<svg width="209" height="209" fill="none" xmlns="http://www.w3.org/2000/svg"><path d="M186.715 114.085c.129-1.188.439-2.234.932-3.138a7.276 7.276 0 011.932-2.241 8.148 8.148 0 012.619-1.294 7.923 7.923 0 012.925-.218c1.373.149 2.592.591 3.658 1.326a7.233 7.233 0 012.466 2.971c.562 1.225.758 2.626.587 4.204-.171 1.577-.661 2.895-1.471 3.952-.809 1.058-1.8 1.805-2.974 2.241l-.719-3.767a3.203 3.203 0 001.361-1.12 3.438 3.438 0 00.632-1.678 3.62 3.62 0 00-.345-2.009c-.29-.613-.752-1.123-1.383-1.53-.614-.404-1.357-.654-2.229-.748-.853-.093-1.632-.008-2.337.253a4.392 4.392 0 00-1.709 1.223 3.484 3.484 0 00-.765 1.861c-.049.445-.02.871.087 1.277.104.424.269.808.494 1.152.226.343.498.607.816.792l-1.509 3.526a5.935 5.935 0 01-1.789-1.687 7.091 7.091 0 01-1.119-2.402c-.223-.888-.276-1.87-.16-2.946zm-3.569 16.233c.373-1.134.894-2.093 1.564-2.875a7.276 7.276 0 012.357-1.789 7.616 7.616 0 012.786-.676c.98-.051 1.949.08 2.906.395a7.984 7.984 0 012.6 1.415 7.604 7.604 0 011.842 2.197c.464.86.734 1.803.809 2.83.093 1.033-.047 2.116-.42 3.251-.373 1.135-.901 2.082-1.582 2.84a6.97 6.97 0 01-5.117 2.474 7.959 7.959 0 01-2.932-.404 7.88 7.88 0 01-2.574-1.406 7.022 7.022 0 01-1.842-2.197c-.47-.842-.751-1.779-.844-2.812-.075-1.027.074-2.108.447-3.243zm8.406-1.274c-.815-.268-1.595-.348-2.338-.238a3.929 3.929 0 00-1.892.822 3.546 3.546 0 00-1.144 1.687 3.495 3.495 0 00-.071 2.011 4.16 4.16 0 001.061 1.793c.528.546 1.2.954 2.015 1.222.798.262 1.572.33 2.321.203.743-.11 1.383-.381 1.918-.814a3.49 3.49 0 001.135-1.66 3.408 3.408 0 00.054-2.046c-.174-.666-.528-1.264-1.061-1.793-.516-.523-1.182-.919-1.998-1.187zm-24.577 31.319l2.095-3.113 6.829 4.596c.96.646 1.78.95 2.458.912.684-.013 1.223-.313 1.619-.902.407-.604.557-1.346.453-2.227-.1-.854-.451-1.653-1.054-2.396l-7.085-4.768 2.094-3.113 6.83 4.596c.976.657 1.803.966 2.481.927.668-.023 1.2-.329 1.596-.917.407-.604.565-1.341.476-2.211-.1-.855-.451-1.654-1.054-2.397l-7.108-4.783 2.094-3.113 12.173 8.191-1.892 2.811-2.253-1.516a5.73 5.73 0 01.562 3.077c-.088 1.067-.47 2.103-1.148 3.11-.677 1.006-1.451 1.622-2.322 1.846a3.95 3.95 0 01-2.57-.143c.503 1.058.716 2.112.639 3.163-.072 1.077-.431 2.095-1.077 3.055-.511.759-1.062 1.277-1.653 1.554a3.373 3.373 0 01-1.842.38 5.303 5.303 0 01-1.893-.497 11.282 11.282 0 01-1.852-1.01l-7.596-5.112zm-10.683 8.643c.872-.732 1.806-1.187 2.802-1.365a5.587 5.587 0 012.894.313l-5.489-6.542 2.874-2.412 13.265 15.808-2.51 2.106-1.619-1.93a6.099 6.099 0 01-.335 2.912c-.333.938-.922 1.761-1.766 2.469-.758.636-1.577 1.068-2.458 1.295a6.514 6.514 0 01-2.735.139 7.432 7.432 0 01-2.642-.927c-.848-.458-1.607-1.088-2.279-1.889-.912-1.087-1.526-2.253-1.841-3.5-.329-1.234-.344-2.428-.044-3.581.297-1.127.925-2.092 1.883-2.896zm3.017 1.635a3.345 3.345 0 00-.967 1.287 3.818 3.818 0 00-.293 1.525c.005.556.11 1.089.318 1.597.205.535.493 1.024.865 1.467.396.472.841.842 1.334 1.111.479.28.987.451 1.525.511.55.074 1.09.036 1.62-.117.516-.14.996-.396 1.439-.768.272-.228.508-.512.71-.852.2-.314.357-.665.47-1.052.114-.388.174-.78.183-1.177a2.979 2.979 0 00-.223-1.093l-2.214-2.638a5.699 5.699 0 00-1.64-.561 4.574 4.574 0 00-1.713.049 3.507 3.507 0 00-1.414.711zm-8.369 9.508l4.196 8.169-3.338 1.714-3.825-7.447c-.512-.996-1.082-1.658-1.712-1.985-.621-.31-1.289-.282-2.003.085a3.814 3.814 0 00-1.142.901 4.123 4.123 0 00-.761 1.398 4.902 4.902 0 00-.244 1.794l4.158 8.094-3.337 1.715-4.785-9.315c-.179-.349-.365-.568-.558-.658-.21-.081-.464-.066-.764.046l-1.394-2.715c.306-.22.572-.398.796-.534.198-.145.389-.263.572-.357.598-.307 1.156-.426 1.674-.357.51.095.922.366 1.236.813l.612 1.008a6.539 6.539 0 011.205-3.169c.683-.917 1.573-1.657 2.669-2.22 1.345-.691 2.587-.784 3.728-.279 1.15.522 2.155 1.622 3.017 3.299zm-27.482 6.145c.267-.217.59-.47.971-.759.381-.29.808-.554 1.282-.794a7.099 7.099 0 011.427-.603c.662-.198 1.305-.264 1.929-.198.624.067 1.18.299 1.67.698.478.422.839 1.045 1.086 1.867l2.419 8.074 1.851-.555.828 2.763-1.851.554 1.366 4.56-3.594 1.077-1.366-4.56-2.95.884-.828-2.762 2.95-.884-2.058-6.867c-.162-.477-.401-.786-.715-.925-.315-.14-.66-.153-1.036-.041a3.451 3.451 0 00-1.043.518c-.32.232-.574.425-.762.579l-1.576-2.626zm-9.711.449c1.168-.136 2.248-.064 3.239.215a7.5 7.5 0 012.61 1.36 7.881 7.881 0 011.835 2.211 7.92 7.92 0 01.862 2.804c.161 1.39.003 2.696-.476 3.917a7.23 7.23 0 01-2.35 3.063c-1.086.841-2.417 1.352-3.993 1.535-1.595.185-2.999-.009-4.212-.582a6.883 6.883 0 01-2.906-2.453 7.648 7.648 0 01-1.344-3.565 8.809 8.809 0 01-.053-.698 11.873 11.873 0 01-.009-.563l11.264-1.308c-.16-.733-.449-1.357-.866-1.873a3.84 3.84 0 00-1.539-1.118 4.198 4.198 0 00-1.884-.204 4.34 4.34 0 00-2.025.771c-.624.449-1.023.983-1.195 1.605l-3.302-.519c.267-.782.7-1.5 1.301-2.152a7.364 7.364 0 012.15-1.631c.853-.419 1.818-.691 2.893-.815zm4.825 8.29l-7.621.885c.161.733.448 1.348.863 1.845.398.518.893.893 1.483 1.125.593.25 1.233.336 1.919.256a3.69 3.69 0 001.781-.686 3.691 3.691 0 001.186-1.435c.271-.576.401-1.239.389-1.99zm-19.55 7.071l-2.68-4.837-.18-.521-.322.479-3.43 4.317-3.934-.335 5.697-6.85-4.537-7.776 3.934.334 2.765 4.816.211.496.264-.456 3.511-4.281 3.934.334-5.778 6.815 4.451 7.797-3.906-.332zm-20.827-12.395l-1.142 3.19-7.987-2.861 1.142-3.19 7.987 2.861zM56.56 172.072c.981.681 1.751 1.455 2.31 2.32a7.28 7.28 0 011.042 2.769 8.138 8.138 0 01-.117 2.918 7.906 7.906 0 01-1.208 2.673c-.788 1.134-1.76 1.993-2.915 2.577a7.224 7.224 0 01-3.789.744c-1.345-.093-2.669-.592-3.972-1.497-1.303-.905-2.225-1.966-2.767-3.182-.541-1.217-.722-2.445-.543-3.684l3.651 1.172a3.193 3.193 0 00.332 1.73c.26.544.65.996 1.17 1.358a3.623 3.623 0 001.93.658c.678.039 1.346-.122 2.006-.482.648-.345 1.223-.878 1.723-1.598.49-.706.788-1.43.896-2.174a4.379 4.379 0 00-.256-2.086 3.483 3.483 0 00-1.267-1.562 3.502 3.502 0 00-1.163-.535 3.711 3.711 0 00-1.248-.117 2.45 2.45 0 00-1.086.337l-2.374-3.012a5.943 5.943 0 012.336-.764 7.103 7.103 0 012.646.167c.886.229 1.774.653 2.663 1.27zm-12.372-10.74c.823.866 1.42 1.779 1.792 2.739.358.973.512 1.947.46 2.923a7.635 7.635 0 01-.724 2.774 7.92 7.92 0 01-1.724 2.373 7.987 7.987 0 01-2.477 1.62 7.635 7.635 0 01-2.807.582 6.949 6.949 0 01-2.876-.627c-.953-.408-1.842-1.044-2.665-1.91-.823-.866-1.407-1.779-1.752-2.738a6.957 6.957 0 01-.48-2.904 7.028 7.028 0 01.723-2.774c.419-.887 1-1.685 1.745-2.392a7.912 7.912 0 012.457-1.601 7.015 7.015 0 012.807-.582c.964-.015 1.923.181 2.877.588.94.42 1.821 1.063 2.644 1.929zm-2.858 8.008c.623-.592 1.062-1.241 1.318-1.947a3.93 3.93 0 00.17-2.056 3.539 3.539 0 00-.944-1.806 3.489 3.489 0 00-1.736-1.015 4.144 4.144 0 00-2.082.086c-.732.206-1.409.604-2.031 1.196-.609.579-1.035 1.228-1.277 1.948-.256.706-.32 1.398-.192 2.075a3.49 3.49 0 00.925 1.786 3.417 3.417 0 001.777 1.016c.669.162 1.363.133 2.081-.086.705-.207 1.37-.606 1.992-1.197zm-15.937-36.466l1.751 3.318-7.28 3.842c-1.024.54-1.679 1.119-1.966 1.734-.312.608-.303 1.226.028 1.853.34.644.923 1.128 1.748 1.453.8.316 1.67.385 2.61.205l7.552-3.986 1.752 3.318-7.28 3.843c-1.04.549-1.704 1.131-1.991 1.747-.296.599-.278 1.212.053 1.84.34.644.914 1.132 1.723 1.465.8.316 1.67.385 2.61.206l7.577-4 1.751 3.319-12.976 6.848-1.58-2.996 2.401-1.268a5.723 5.723 0 01-2.977-.962c-.898-.581-1.63-1.408-2.196-2.481-.567-1.074-.742-2.047-.528-2.92a3.942 3.942 0 011.342-2.196c-1.17-.058-2.2-.369-3.089-.934-.914-.573-1.642-1.371-2.182-2.395-.427-.809-.622-1.539-.587-2.191.011-.66.19-1.261.537-1.803a5.294 5.294 0 011.334-1.432 11.28 11.28 0 011.765-1.154l8.098-4.273zm-2.543-13.535c.225 1.116.179 2.154-.141 3.114a5.576 5.576 0 01-1.658 2.392l8.37-1.696.745 3.678-20.225 4.098-.65-3.211 2.47-.5a6.109 6.109 0 01-2.4-1.685c-.664-.742-1.105-1.652-1.324-2.732-.196-.969-.184-1.896.037-2.778a6.51 6.51 0 011.185-2.469 7.423 7.423 0 012.077-1.878 7.859 7.859 0 012.748-1.1c1.39-.281 2.708-.263 3.954.056 1.242.301 2.297.858 3.167 1.673.848.799 1.396 1.812 1.644 3.038zm-2.879 1.868a3.346 3.346 0 00-.668-1.464 3.806 3.806 0 00-1.2-.985 4.271 4.271 0 00-1.555-.485 5.1 5.1 0 00-1.702.059 4.625 4.625 0 00-1.613.641 3.835 3.835 0 00-1.178 1.096c-.328.447-.552.94-.671 1.479a3.762 3.762 0 00-.013 1.631c.07.347.207.691.41 1.031.18.325.413.63.699.915.286.285.602.526.946.723.341.178.697.287 1.066.327l3.376-.684a5.74 5.74 0 001.276-1.173c.362-.474.62-.983.776-1.529a3.517 3.517 0 00.051-1.582zm-4.375-12.162l-9.18-.249.101-3.75 8.369.226c1.12.03 1.974-.152 2.564-.547.57-.395.867-.994.889-1.797a3.816 3.816 0 00-.242-1.435 4.125 4.125 0 00-.86-1.339c-.38-.421-.866-.78-1.455-1.076l-9.097-.246.101-3.75 10.468.282c.392.01.674-.047.845-.173.172-.145.281-.375.327-.691l3.051.082c.046.375.075.693.086.955.031.243.044.468.038.673-.018.672-.182 1.218-.492 1.64-.329.401-.764.632-1.308.692l-1.177.052a6.53 6.53 0 012.199 2.581c.476 1.04.697 2.175.664 3.407-.04 1.511-.557 2.646-1.548 3.403-1.01.757-2.458 1.11-4.343 1.06zm7.748-27.028c.062.337.13.742.201 1.215.073.473.1.975.084 1.506a7.074 7.074 0 01-.153 1.541 4.876 4.876 0 01-.748 1.788 3.114 3.114 0 01-1.412 1.134c-.6.217-1.319.237-2.16.06l-8.246-1.736-.398 1.89-2.822-.594.398-1.89-4.658-.982.773-3.671 4.658.98.635-3.013 2.822.594-.635 3.014 7.014 1.477c.497.086.882.024 1.155-.186s.45-.506.531-.89c.08-.383.096-.771.045-1.163a17.236 17.236 0 00-.144-.946l3.06-.128zm4.101-8.479c-.437 1.091-1.015 2.006-1.733 2.743a7.495 7.495 0 01-2.44 1.646 7.884 7.884 0 01-2.82.56 7.906 7.906 0 01-2.874-.58c-1.3-.522-2.371-1.284-3.216-2.286a7.23 7.23 0 01-1.572-3.527c-.221-1.355-.036-2.77.555-4.242.597-1.49 1.437-2.632 2.52-3.424a6.886 6.886 0 013.542-1.385 7.645 7.645 0 013.774.518 9.946 9.946 0 011.138.547l-4.221 10.525c.72.209 1.407.253 2.059.132a3.846 3.846 0 001.716-.82 4.19 4.19 0 001.078-1.559 4.336 4.336 0 00.288-2.147c-.097-.762-.377-1.368-.84-1.815l2.03-2.655c.56.607.985 1.33 1.271 2.17.294.821.43 1.71.409 2.667-.04.95-.26 1.927-.664 2.932zm-9.588.287l2.857-7.12c-.721-.21-1.399-.25-2.033-.122-.645.103-1.21.36-1.696.768a3.738 3.738 0 00-1.14 1.564 3.684 3.684 0 00-.247 1.892 3.69 3.69 0 00.696 1.727c.377.513.898.944 1.563 1.291zm3.083-20.598l5.529-.032.543.091-.265-.512-2.143-5.08 2.18-3.291 3.279 8.284 9-.253-2.18 3.292-5.553.117-.536-.052.273.45 2.074 5.134-2.18 3.292-3.21-8.339-8.976.167 2.164-3.268zm20.796-12.416l-2.262-2.523 6.317-5.663 2.262 2.523-6.317 5.663zm25.517-10.526c-1.065.541-2.11.854-3.136.936a7.286 7.286 0 01-2.933-.392 8.14 8.14 0 01-2.515-1.485 7.907 7.907 0 01-1.783-2.329c-.626-1.23-.924-2.493-.891-3.788a7.23 7.23 0 011.138-3.69c.718-1.14 1.784-2.07 3.198-2.79 1.414-.72 2.785-1.03 4.114-.93 1.328.098 2.495.52 3.502 1.264l-2.76 2.662a3.194 3.194 0 00-1.682-.526c-.602-.03-1.185.1-1.75.388a3.627 3.627 0 00-1.493 1.388c-.355.579-.53 1.244-.525 1.995-.003.735.195 1.493.593 2.275.39.765.886 1.37 1.49 1.817a4.381 4.381 0 001.96.763 3.49 3.49 0 001.975-.378c.4-.203.74-.46 1.022-.77.298-.32.529-.668.693-1.045a2.45 2.45 0 00.218-1.116l3.777-.666a5.933 5.933 0 01-.434 2.42 7.087 7.087 0 01-1.399 2.252c-.621.672-1.414 1.254-2.379 1.745zm15.697-5.963c-1.154.308-2.241.395-3.262.262a7.283 7.283 0 01-2.787-.995 7.635 7.635 0 01-2.089-1.963 7.908 7.908 0 01-1.258-2.65 7.982 7.982 0 01-.237-2.95c.107-.976.385-1.89.833-2.744a6.957 6.957 0 011.927-2.224c.814-.643 1.798-1.118 2.953-1.426 1.154-.308 2.235-.384 3.242-.228a6.956 6.956 0 012.78.968 7.033 7.033 0 012.09 1.964c.578.792 1 1.684 1.264 2.676.26.974.337 1.948.23 2.924a7.033 7.033 0 01-.833 2.743c-.448.854-1.079 1.602-1.893 2.244-.819.625-1.805 1.09-2.96 1.399zm-5.663-6.342c.222.83.582 1.526 1.08 2.088a3.927 3.927 0 001.722 1.134 3.537 3.537 0 002.038.036 3.489 3.489 0 001.723-1.04c.458-.527.765-1.15.92-1.868.17-.741.144-1.526-.077-2.356-.217-.811-.583-1.496-1.1-2.054-.497-.563-1.074-.95-1.73-1.161a3.488 3.488 0 00-2.01-.043 3.414 3.414 0 00-1.742 1.074c-.463.51-.77 1.133-.922 1.869-.156.717-.123 1.491.099 2.32zm39.725 3.436l-3.751-.058.127-8.231c.018-1.157-.175-2.01-.577-2.557-.383-.566-.93-.855-1.639-.866-.728-.011-1.432.268-2.113.836-.662.55-1.14 1.28-1.434 2.19l-.132 8.539-3.751-.058.127-8.231c.018-1.176-.174-2.038-.576-2.585-.384-.548-.93-.827-1.64-.838-.728-.011-1.432.258-2.112.808-.662.55-1.14 1.28-1.434 2.19l-.133 8.567-3.751-.058.226-14.67 3.388.052-.042 2.716c.575-.944 1.332-1.66 2.273-2.15.942-.508 2.019-.752 3.232-.734 1.213.019 2.151.332 2.814.94a3.942 3.942 0 011.282 2.232c.613-.999 1.38-1.752 2.303-2.26.941-.528 1.991-.782 3.148-.764.915.014 1.649.193 2.204.538a3.379 3.379 0 011.324 1.336c.308.547.514 1.166.615 1.858.12.693.174 1.394.163 2.103l-.141 9.155zm12.78 4.035c-1.09-.33-1.981-.865-2.674-1.602a5.586 5.586 0 01-1.319-2.595l-2.482 8.17-3.59-1.09 5.998-19.745 3.135.953-.732 2.41a6.096 6.096 0 012.622-1.31c.968-.232 1.979-.188 3.032.132.947.287 1.756.738 2.428 1.352a6.508 6.508 0 011.61 2.215c.388.84.611 1.746.666 2.72.079.96-.033 1.94-.337 2.94-.413 1.358-1.055 2.509-1.927 3.453-.855.95-1.846 1.615-2.976 1.993-1.106.367-2.258.368-3.454.004zm-.278-3.42a3.346 3.346 0 001.606.107 3.816 3.816 0 001.437-.587 4.287 4.287 0 001.165-1.139c.336-.463.588-.972.756-1.526.179-.59.247-1.164.202-1.724a3.845 3.845 0 00-.405-1.556 3.904 3.904 0 00-.982-1.294 3.768 3.768 0 00-1.43-.785 3.29 3.29 0 00-1.101-.13 4.08 4.08 0 00-1.138.18c-.387.117-.749.28-1.085.49a2.95 2.95 0 00-.794.784l-1.001 3.295a5.72 5.72 0 00.426 1.68c.244.543.57 1.012.976 1.409.412.379.868.644 1.368.796zm12.766 1.842l4.583-7.959 3.252 1.873-4.179 7.255c-.559.97-.805 1.809-.738 2.515.077.69.463 1.236 1.158 1.637.421.242.88.398 1.377.47a4.124 4.124 0 001.588-.12c.552-.135 1.098-.391 1.638-.769l4.542-7.886 3.251 1.873-5.226 9.074c-.196.34-.279.615-.249.826.045.22.196.426.452.616l-1.523 2.645a12.85 12.85 0 01-.881-.378 4.495 4.495 0 01-.61-.287c-.582-.335-.985-.74-1.208-1.213-.197-.48-.193-.973.012-1.479l.514-1.06a6.532 6.532 0 01-3.315.707c-1.142-.076-2.246-.421-3.314-1.036-1.31-.755-2.062-1.748-2.257-2.98-.186-1.25.192-2.69 1.133-4.324zm19.972 19.561a38.77 38.77 0 01-1.166-.4 8.264 8.264 0 01-1.365-.64 7.082 7.082 0 01-1.285-.866 4.892 4.892 0 01-1.219-1.507 3.121 3.121 0 01-.328-1.78c.093-.63.417-1.274.971-1.93l5.441-6.436-1.475-1.247 1.861-2.203 1.476 1.247 3.073-3.635 2.865 2.423-3.073 3.635 2.352 1.988-1.861 2.203-2.353-1.989-4.627 5.474c-.311.397-.439.766-.384 1.105.055.34.232.637.531.89.299.253.634.45 1.003.591.37.141.67.249.902.322l-1.339 2.755zm5.822 7.891c-.753-.903-1.283-1.846-1.592-2.829a7.502 7.502 0 01-.289-2.929c.115-.97.397-1.886.846-2.746a7.904 7.904 0 011.876-2.254c1.076-.896 2.255-1.478 3.539-1.745a7.23 7.23 0 013.85.29c1.298.45 2.454 1.285 3.47 2.504 1.027 1.233 1.633 2.515 1.816 3.843a6.877 6.877 0 01-.463 3.775 7.65 7.65 0 01-2.248 3.076 9.605 9.605 0 01-.556.426c-.184.13-.34.235-.466.316l-7.258-8.713c-.526.535-.891 1.118-1.094 1.749a3.847 3.847 0 00-.093 1.9c.155.624.441 1.187.86 1.688a4.33 4.33 0 001.752 1.274c.717.277 1.383.318 1.997.122l1.373 3.047a6.026 6.026 0 01-2.514.09 7.361 7.361 0 01-2.541-.908c-.817-.485-1.573-1.144-2.265-1.976zm4.3-8.574l4.91 5.895c.526-.536.883-1.113 1.072-1.732a3.417 3.417 0 00.13-1.857 3.742 3.742 0 00-.835-1.746 3.68 3.68 0 00-1.549-1.115 3.688 3.688 0 00-1.849-.209c-.631.089-1.258.343-1.879.764zm16.658 12.436l-2.588 4.887-.338.436.577.008 5.489.515 1.869 3.478-8.85-1.03-4.035 8.048-1.869-3.478 2.523-4.947.3-.447-.525.028-5.505-.603-1.868-3.478 8.865 1.118 4.099-7.988 1.856 3.453zm1.1 24.293l3.295-.786 1.97 8.253-3.296.786-1.969-8.252z" fill="#DFDFDF"/></svg>