<svg width="80" height="80" fill="none" xmlns="http://www.w3.org/2000/svg"><rect width="80" height="80" rx="40" fill="#FF4C00"/><g clip-path="url(#clip0_722_5278)"><path fill-rule="evenodd" clip-rule="evenodd" d="M21.25 63.438V21.25A6.25 6.25 0 0127.5 15h25a6.25 6.25 0 016.25 6.25v42.188a1.563 1.563 0 01-2.313 1.371L40 55.841l-16.438 8.968a1.563 1.563 0 01-2.312-1.371zM40.5 27.812a.556.556 0 00-1 0l-1.981 4.016a.561.561 0 01-.419.306l-4.438.644a.556.556 0 00-.306.947l3.206 3.128a.557.557 0 01.16.494l-.753 4.419a.558.558 0 00.806.584l3.969-2.087a.563.563 0 01.515 0l3.97 2.087a.557.557 0 00.802-.584l-.756-4.422a.563.563 0 01.156-.494l3.213-3.128a.556.556 0 00-.306-.947l-4.438-.644a.561.561 0 01-.419-.306L40.5 27.813z" fill="#fff"/></g><defs><clipPath id="clip0_722_5278"><path fill="#fff" transform="translate(15 15)" d="M0 0h50v50H0z"/></clipPath></defs></svg>