<svg width="115" height="35" fill="none" xmlns="http://www.w3.org/2000/svg"><path d="M4.687 6.65v21.7c0 .333.083.633.248.9.19.233.403.35.64.35h6.853c.118 0 .212.05.284.15.07.1.106.217.106.35v4.4a.59.59 0 01-.106.35.332.332 0 01-.284.15H3.835c-1.042 0-1.941-.533-2.699-1.6C.38 32.333 0 31.067 0 29.6V5.4c0-1.467.379-2.733 1.136-3.8C1.894.533 2.793 0 3.835 0h8.592c.119 0 .213.05.285.15.07.1.106.217.106.35v4.4a.59.59 0 01-.106.35.332.332 0 01-.284.15H5.575c-.237 0-.45.133-.64.4a1.435 1.435 0 00-.248.85zm8.87 22.95V5.4c0-1.467.38-2.733 1.137-3.8C15.452.533 16.351 0 17.393 0h5.113c1.065 0 1.976.533 2.734 1.6.757 1.067 1.136 2.333 1.136 3.8v24.2c0 1.467-.379 2.733-1.136 3.8-.758 1.067-1.669 1.6-2.734 1.6h-5.113c-1.042 0-1.941-.533-2.699-1.6-.757-1.067-1.136-2.333-1.136-3.8zm4.688-22.95v21.7c0 .333.083.633.248.9.19.233.403.35.64.35H20.8c.237 0 .438-.117.604-.35a1.67 1.67 0 00.249-.9V6.65c0-.233-.036-.433-.107-.6a.896.896 0 00-.32-.45c-.142-.133-.284-.2-.426-.2h-1.668c-.237 0-.45.133-.64.4a1.435 1.435 0 00-.248.85zM28.41 0h5.68c.214 0 .332.15.356.45l1.172 10.7L36.825.45c.023-.3.142-.45.355-.45h5.681c.095 0 .178.05.249.15.07.1.106.217.106.35v34a.59.59 0 01-.106.35c-.071.1-.154.15-.249.15h-3.977a.332.332 0 01-.284-.15.589.589 0 01-.106-.35V20.2l-.888 8.05c-.024.267-.142.4-.355.4h-3.267c-.19 0-.308-.133-.355-.4l-.887-8.05v14.3a.59.59 0 01-.107.35c-.071.1-.154.15-.249.15H28.41c-.095 0-.178-.05-.249-.15a.589.589 0 01-.106-.35V.5c0-.333.118-.5.355-.5zm24.662 14.2V6.65c0-.333-.083-.617-.249-.85-.166-.267-.367-.4-.604-.4h-2.201c-.095 0-.178.05-.249.15a.589.589 0 00-.106.35v9c0 .133.035.25.106.35.072.1.154.15.249.15h2.201c.237 0 .438-.117.604-.35.166-.233.249-.517.249-.85zM44.976.5c0-.333.118-.5.355-.5h8.593c1.065 0 1.976.533 2.734 1.6.757 1.067 1.136 2.333 1.136 3.8v10c0 1.5-.379 2.783-1.136 3.85-.758 1.033-1.669 1.55-2.734 1.55h-3.906c-.095 0-.178.05-.249.15a.589.589 0 00-.106.35v13.2a.59.59 0 01-.107.35c-.07.1-.153.15-.248.15H45.33c-.095 0-.178-.05-.248-.15a.589.589 0 01-.107-.35V.5zm14.12-.5h3.976c.095 0 .178.05.249.15.07.1.106.217.106.35v27.85c0 .333.083.633.249.9.19.233.402.35.639.35h1.669c.236 0 .438-.117.603-.35a1.67 1.67 0 00.249-.9V.5c0-.333.118-.5.355-.5h3.977c.118 0 .213.05.284.15.07.1.106.217.106.35v29.1c0 1.467-.378 2.733-1.136 3.8-.757 1.067-1.669 1.6-2.734 1.6h-5.113c-1.042 0-1.941-.533-2.699-1.6-.757-1.067-1.136-2.333-1.136-3.8V.5a.59.59 0 01.107-.35c.07-.1.154-.15.248-.15zm13.358 0h12.073c.118 0 .213.05.284.15.07.1.106.217.106.35v4.4a.59.59 0 01-.106.35.332.332 0 01-.285.15H81.19c-.095 0-.178.05-.249.15a.589.589 0 00-.106.35v28.6a.59.59 0 01-.107.35c-.07.1-.154.15-.248.15h-3.977c-.095 0-.178-.05-.249-.15a.589.589 0 01-.106-.35V5.9a.588.588 0 00-.107-.35c-.07-.1-.154-.15-.248-.15h-3.338c-.095 0-.177-.05-.248-.15a.589.589 0 01-.107-.35V.5a.59.59 0 01.106-.35c.072-.1.154-.15.249-.15zm13.343 0h12.072c.118 0 .213.05.284.15a.59.59 0 01.107.35v4.4c0 .333-.13.5-.39.5h-7.386c-.095 0-.178.05-.249.15a.588.588 0 00-.106.35v8.4c0 .133.035.25.106.35.071.1.154.15.249.15h2.663c.094 0 .177.05.248.15a.59.59 0 01.107.35v4.4a.59.59 0 01-.107.35c-.07.1-.154.15-.248.15h-2.663c-.095 0-.178.05-.249.15a.588.588 0 00-.106.35v8.4c0 .133.035.25.106.35.071.1.154.15.249.15h7.385c.118 0 .213.05.284.15a.59.59 0 01.107.35v4.4c0 .333-.13.5-.39.5H85.796c-.095 0-.178-.05-.249-.15a.589.589 0 01-.106-.35V.5a.59.59 0 01.106-.35c.071-.1.154-.15.249-.15zm28.22.7l-5.362 16.8 5.362 16.8a.734.734 0 01-.036.5c-.071.133-.166.2-.284.2h-4.367c-.166 0-.273-.1-.32-.3l-2.947-9.15-2.912 9.15c-.071.2-.177.3-.319.3h-4.368c-.118 0-.213-.067-.284-.2a.731.731 0 01-.035-.5l5.361-16.8L98.145.7a.585.585 0 01.035-.45c.071-.167.166-.25.284-.25h4.368c.142 0 .248.1.319.3l2.912 9.15L109.01.3c.047-.2.154-.3.32-.3h4.367c.118 0 .213.083.284.25a.587.587 0 01.036.45z" fill="#FF4C00"/></svg>