<svg width="100" height="100" fill="none" xmlns="http://www.w3.org/2000/svg"><g clip-path="url(#clip0_187_5807)"><rect x="-1.823" y="-7" width="116" height="131" rx="24" fill="#FF4C00"/><path fill-rule="evenodd" clip-rule="evenodd" d="M36.248 59.5a1.405 1.405 0 011.125-.563h7.031a1.407 1.407 0 010 2.813h-6.328l-6.328 8.438h36.563l-6.329-8.438h-6.328a1.407 1.407 0 010-2.813h7.031a1.405 1.405 0 011.125.563l8.438 11.25A1.406 1.406 0 0171.123 73H28.935a1.406 1.406 0 01-1.124-2.25l8.437-11.25z" fill="#fff"/><path fill-rule="evenodd" clip-rule="evenodd" d="M38.78 39.249a11.25 11.25 0 1112.655 11.163v15.556a1.406 1.406 0 11-2.812 0V50.415a11.25 11.25 0 01-9.844-11.166z" fill="#fff"/></g><defs><clipPath id="clip0_187_5807"><rect width="100" height="100" rx="8" fill="#fff"/></clipPath></defs></svg>