<svg width="80" height="80" viewBox="0 0 80 80" fill="none" xmlns="http://www.w3.org/2000/svg">
<rect width="80" height="80" rx="40" fill="#FF4C00"/>
<path d="M15 27.5C15 25.8424 15.6585 24.2527 16.8306 23.0806C18.0027 21.9085 19.5924 21.25 21.25 21.25H58.75C60.4076 21.25 61.9973 21.9085 63.1694 23.0806C64.3415 24.2527 65 25.8424 65 27.5V30.625H15V27.5ZM15 36.875V52.5C15 54.1576 15.6585 55.7473 16.8306 56.9194C18.0027 58.0915 19.5924 58.75 21.25 58.75H58.75C60.4076 58.75 61.9973 58.0915 63.1694 56.9194C64.3415 55.7473 65 54.1576 65 52.5V36.875H15ZM24.375 43.125H27.5C28.3288 43.125 29.1237 43.4542 29.7097 44.0403C30.2958 44.6263 30.625 45.4212 30.625 46.25V49.375C30.625 50.2038 30.2958 50.9987 29.7097 51.5847C29.1237 52.1708 28.3288 52.5 27.5 52.5H24.375C23.5462 52.5 22.7513 52.1708 22.1653 51.5847C21.5792 50.9987 21.25 50.2038 21.25 49.375V46.25C21.25 45.4212 21.5792 44.6263 22.1653 44.0403C22.7513 43.4542 23.5462 43.125 24.375 43.125Z" fill="white"/>
</svg>
