<svg width="209" height="209" viewBox="0 0 209 209" fill="none" xmlns="http://www.w3.org/2000/svg">
<path d="M186.715 114.085C186.844 112.897 187.154 111.851 187.647 110.947C188.158 110.044 188.802 109.297 189.579 108.706C190.376 108.116 191.248 107.685 192.198 107.412C193.146 107.158 194.12 107.086 195.123 107.194C196.496 107.343 197.715 107.785 198.781 108.52C199.863 109.276 200.685 110.266 201.247 111.491C201.809 112.716 202.005 114.117 201.834 115.695C201.663 117.272 201.173 118.59 200.363 119.647C199.554 120.705 198.563 121.452 197.389 121.888L196.67 118.121C197.243 117.863 197.696 117.49 198.031 117.001C198.384 116.513 198.595 115.954 198.663 115.323C198.74 114.618 198.625 113.948 198.318 113.314C198.028 112.701 197.566 112.191 196.935 111.784C196.321 111.38 195.578 111.13 194.706 111.036C193.853 110.943 193.074 111.028 192.369 111.289C191.682 111.572 191.112 111.979 190.66 112.512C190.226 113.047 189.971 113.668 189.895 114.373C189.846 114.818 189.875 115.244 189.982 115.65C190.086 116.074 190.251 116.458 190.476 116.802C190.702 117.145 190.974 117.409 191.292 117.594L189.783 121.12C189.096 120.708 188.499 120.145 187.994 119.433C187.488 118.74 187.114 117.939 186.875 117.031C186.652 116.143 186.599 115.161 186.715 114.085Z" fill="#DFDFDF"/>
<path d="M183.146 130.318C183.519 129.184 184.04 128.225 184.71 127.443C185.398 126.667 186.183 126.07 187.067 125.654C187.945 125.254 188.874 125.029 189.853 124.978C190.833 124.927 191.802 125.058 192.759 125.373C193.734 125.694 194.601 126.165 195.359 126.788C196.118 127.41 196.732 128.143 197.201 128.985C197.665 129.845 197.935 130.788 198.01 131.815C198.103 132.848 197.963 133.931 197.59 135.066C197.217 136.201 196.689 137.148 196.008 137.906C195.338 138.688 194.561 139.288 193.678 139.705C192.794 140.122 191.865 140.347 190.891 140.38C189.912 140.432 188.934 140.297 187.959 139.976C187.001 139.662 186.143 139.193 185.385 138.57C184.621 137.966 184.007 137.233 183.543 136.373C183.073 135.531 182.792 134.594 182.699 133.561C182.624 132.534 182.773 131.453 183.146 130.318ZM191.552 129.044C190.737 128.776 189.957 128.696 189.214 128.806C188.488 128.921 187.858 129.195 187.322 129.628C186.787 130.061 186.406 130.624 186.178 131.315C185.957 131.989 185.933 132.659 186.107 133.326C186.299 133.998 186.653 134.595 187.168 135.119C187.696 135.665 188.368 136.073 189.183 136.341C189.981 136.603 190.755 136.671 191.504 136.544C192.247 136.434 192.887 136.163 193.422 135.73C193.957 135.297 194.336 134.743 194.557 134.07C194.785 133.378 194.803 132.696 194.611 132.024C194.437 131.358 194.083 130.76 193.55 130.231C193.034 129.708 192.368 129.312 191.552 129.044Z" fill="#DFDFDF"/>
<path d="M166.975 160.363L169.07 157.25L175.899 161.846C176.859 162.492 177.679 162.796 178.357 162.758C179.041 162.745 179.58 162.445 179.976 161.856C180.383 161.252 180.533 160.51 180.429 159.629C180.329 158.775 179.978 157.976 179.375 157.233L172.29 152.465L174.384 149.352L181.214 153.948C182.19 154.605 183.017 154.914 183.695 154.875C184.363 154.852 184.895 154.546 185.291 153.958C185.698 153.354 185.856 152.617 185.767 151.747C185.667 150.892 185.316 150.093 184.713 149.35L177.605 144.567L179.699 141.454L191.872 149.645L189.98 152.456L187.727 150.94C188.204 151.936 188.391 152.962 188.289 154.017C188.201 155.084 187.819 156.12 187.141 157.127C186.464 158.133 185.69 158.749 184.819 158.973C183.938 159.212 183.081 159.164 182.249 158.83C182.752 159.888 182.965 160.942 182.888 161.993C182.816 163.07 182.457 164.088 181.811 165.048C181.3 165.807 180.749 166.325 180.158 166.602C179.571 166.905 178.957 167.032 178.316 166.982C177.689 166.943 177.058 166.777 176.423 166.485C175.777 166.208 175.16 165.871 174.571 165.475L166.975 160.363Z" fill="#DFDFDF"/>
<path d="M156.292 169.006C157.164 168.274 158.098 167.819 159.094 167.641C160.088 167.49 161.053 167.594 161.988 167.954L156.499 161.412L159.373 159L172.638 174.808L170.128 176.914L168.509 174.984C168.632 176.001 168.52 176.972 168.174 177.896C167.841 178.834 167.252 179.657 166.408 180.365C165.65 181.001 164.831 181.433 163.95 181.66C163.054 181.9 162.143 181.946 161.215 181.799C160.299 181.665 159.418 181.357 158.573 180.872C157.725 180.414 156.966 179.784 156.294 178.983C155.382 177.896 154.768 176.73 154.453 175.483C154.124 174.249 154.109 173.055 154.409 171.902C154.706 170.775 155.334 169.81 156.292 169.006ZM159.309 170.641C158.866 171.013 158.543 171.442 158.342 171.928C158.14 172.414 158.043 172.922 158.049 173.453C158.054 174.009 158.159 174.542 158.367 175.05C158.572 175.585 158.86 176.074 159.232 176.517C159.628 176.989 160.073 177.359 160.566 177.628C161.045 177.908 161.553 178.079 162.091 178.139C162.641 178.213 163.181 178.175 163.711 178.022C164.227 177.882 164.707 177.626 165.15 177.254C165.422 177.026 165.658 176.742 165.86 176.402C166.06 176.088 166.217 175.737 166.33 175.35C166.444 174.962 166.504 174.57 166.513 174.173C166.506 173.788 166.432 173.424 166.29 173.08L164.076 170.442C163.557 170.171 163.01 169.984 162.436 169.881C161.848 169.79 161.277 169.806 160.723 169.93C160.18 170.068 159.709 170.305 159.309 170.641Z" fill="#DFDFDF"/>
<path d="M150.94 180.149L155.136 188.318L151.798 190.032L147.973 182.585C147.461 181.589 146.891 180.927 146.261 180.6C145.64 180.29 144.972 180.318 144.258 180.685C143.827 180.906 143.446 181.207 143.116 181.586C142.778 181.991 142.524 182.457 142.355 182.984C142.169 183.521 142.087 184.119 142.111 184.778L146.269 192.872L142.932 194.587L138.147 185.272C137.968 184.923 137.782 184.704 137.589 184.614C137.379 184.533 137.125 184.548 136.825 184.66L135.431 181.945C135.737 181.725 136.003 181.547 136.227 181.411C136.425 181.266 136.616 181.148 136.799 181.054C137.397 180.747 137.955 180.628 138.473 180.697C138.983 180.792 139.395 181.063 139.709 181.51L140.321 182.518C140.45 181.34 140.852 180.283 141.526 179.349C142.209 178.432 143.099 177.692 144.195 177.129C145.54 176.438 146.782 176.345 147.923 176.85C149.073 177.372 150.078 178.472 150.94 180.149Z" fill="#DFDFDF"/>
<path d="M123.458 186.294C123.725 186.077 124.048 185.824 124.429 185.535C124.81 185.245 125.237 184.981 125.711 184.741C126.162 184.489 126.638 184.288 127.138 184.138C127.8 183.94 128.443 183.874 129.067 183.94C129.691 184.007 130.247 184.239 130.737 184.638C131.215 185.06 131.576 185.683 131.823 186.505L134.242 194.579L136.093 194.024L136.921 196.787L135.07 197.341L136.436 201.901L132.842 202.978L131.476 198.418L128.526 199.302L127.698 196.54L130.648 195.656L128.59 188.789C128.428 188.312 128.189 188.003 127.875 187.864C127.56 187.724 127.215 187.711 126.839 187.823C126.464 187.936 126.116 188.108 125.796 188.341C125.476 188.573 125.222 188.766 125.034 188.92L123.458 186.294Z" fill="#DFDFDF"/>
<path d="M113.747 186.743C114.915 186.607 115.995 186.679 116.986 186.958C117.979 187.256 118.849 187.71 119.596 188.318C120.345 188.945 120.957 189.682 121.431 190.529C121.889 191.397 122.176 192.331 122.293 193.333C122.454 194.723 122.296 196.029 121.817 197.25C121.32 198.472 120.537 199.494 119.467 200.313C118.381 201.154 117.05 201.665 115.474 201.848C113.879 202.033 112.475 201.839 111.262 201.266C110.052 200.712 109.083 199.894 108.356 198.813C107.613 197.753 107.165 196.565 107.012 195.248C106.986 195.026 106.968 194.793 106.959 194.55C106.951 194.325 106.948 194.138 106.95 193.987L118.214 192.679C118.054 191.946 117.765 191.322 117.348 190.806C116.913 190.293 116.4 189.92 115.809 189.688C115.202 189.477 114.574 189.409 113.925 189.484C113.183 189.571 112.508 189.827 111.9 190.255C111.276 190.704 110.877 191.238 110.705 191.86L107.403 191.341C107.67 190.559 108.103 189.841 108.704 189.189C109.286 188.539 110.003 187.995 110.854 187.558C111.707 187.139 112.672 186.867 113.747 186.743ZM118.572 195.033L110.951 195.918C111.112 196.651 111.399 197.266 111.814 197.763C112.212 198.281 112.707 198.656 113.297 198.888C113.89 199.138 114.53 199.224 115.216 199.144C115.883 199.066 116.477 198.838 116.997 198.458C117.5 198.099 117.895 197.621 118.183 197.023C118.454 196.447 118.584 195.784 118.572 195.033Z" fill="#DFDFDF"/>
<path d="M99.022 202.104L96.3422 197.267L96.1617 196.746L95.84 197.225L92.4098 201.542L88.476 201.207L94.173 194.357L89.6358 186.581L93.5696 186.915L96.3354 191.731L96.5461 192.227L96.8097 191.771L100.321 187.49L104.255 187.824L98.4766 194.639L102.928 202.436L99.022 202.104Z" fill="#DFDFDF"/>
<path d="M78.1953 189.709L77.0529 192.899L69.0657 190.038L70.2082 186.848L78.1953 189.709Z" fill="#DFDFDF"/>
<path d="M56.5603 172.072C57.5415 172.753 58.3114 173.527 58.8697 174.392C59.4175 175.272 59.765 176.195 59.9124 177.161C60.0491 178.142 60.01 179.115 59.7949 180.079C59.5645 181.033 59.1619 181.924 58.5869 182.752C57.7991 183.886 56.8274 184.745 55.672 185.329C54.4906 185.918 53.2276 186.166 51.883 186.073C50.5385 185.98 49.2145 185.481 47.9113 184.576C46.608 183.671 45.6857 182.61 45.1444 181.394C44.603 180.177 44.4218 178.949 44.6006 177.71L48.2523 178.882C48.2042 179.507 48.3149 180.084 48.5845 180.612C48.8435 181.156 49.2336 181.608 49.7549 181.97C50.3376 182.375 50.9807 182.594 51.6842 182.628C52.3618 182.667 53.0303 182.506 53.6896 182.146C54.3382 181.801 54.9127 181.268 55.4131 180.548C55.9029 179.842 56.2014 179.118 56.3087 178.374C56.39 177.635 56.3048 176.94 56.0531 176.288C55.7908 175.651 55.3683 175.13 54.7856 174.726C54.4176 174.47 54.0301 174.292 53.6229 174.191C53.2004 174.08 52.7843 174.041 52.3746 174.074C51.9649 174.108 51.6029 174.22 51.2886 174.411L48.9146 171.399C49.6058 170.993 50.3847 170.738 51.2514 170.635C52.1028 170.522 52.9846 170.578 53.8969 170.802C54.7832 171.031 55.671 171.455 56.5603 172.072Z" fill="#DFDFDF"/>
<path d="M44.1881 161.332C45.0111 162.198 45.6085 163.111 45.9801 164.071C46.3383 165.044 46.4918 166.018 46.4405 166.994C46.3764 167.956 46.1351 168.881 45.7164 169.768C45.2977 170.655 44.723 171.446 43.9924 172.141C43.2482 172.848 42.4224 173.388 41.5151 173.761C40.6078 174.134 39.672 174.328 38.7077 174.343C37.7306 174.345 36.7721 174.136 35.8321 173.716C34.8786 173.308 33.9903 172.672 33.1673 171.806C32.3443 170.94 31.7602 170.027 31.4149 169.068C31.0432 168.108 30.883 167.14 30.9342 166.164C30.9855 165.188 31.2268 164.263 31.6584 163.39C32.077 162.503 32.6585 161.705 33.4027 160.998C34.1333 160.304 34.9523 159.77 35.8597 159.397C36.7541 159.01 37.6899 158.816 38.667 158.815C39.6313 158.8 40.5902 158.996 41.5437 159.403C42.4836 159.823 43.3651 160.466 44.1881 161.332ZM41.3305 169.34C41.9529 168.748 42.3919 168.099 42.6476 167.393C42.8897 166.699 42.9467 166.014 42.8187 165.337C42.6907 164.661 42.3759 164.059 41.8744 163.531C41.3857 163.017 40.8068 162.678 40.1375 162.516C39.4547 162.367 38.7608 162.395 38.0558 162.602C37.3243 162.808 36.6474 163.206 36.025 163.798C35.4161 164.377 34.9903 165.026 34.7475 165.746C34.4919 166.452 34.428 167.144 34.5561 167.821C34.6841 168.497 34.9924 169.093 35.4811 169.607C35.9826 170.135 36.5748 170.473 37.2576 170.623C37.9268 170.785 38.6207 170.756 39.3393 170.537C40.0443 170.33 40.7081 169.931 41.3305 169.34Z" fill="#DFDFDF"/>
<path d="M25.3929 132.874L27.1441 136.192L19.8639 140.034C18.8403 140.574 18.185 141.153 17.898 141.768C17.5857 142.376 17.5951 142.994 17.9262 143.621C18.266 144.265 18.8486 144.749 19.674 145.074C20.4742 145.39 21.3441 145.459 22.2837 145.279L29.8364 141.293L31.5876 144.611L24.3074 148.454C23.2673 149.003 22.6038 149.585 22.3167 150.201C22.0209 150.8 22.0386 151.413 22.3697 152.041C22.7095 152.685 23.2838 153.173 24.0928 153.506C24.893 153.822 25.7629 153.891 26.7025 153.712L34.2799 149.712L36.0312 153.031L23.0555 159.879L21.4741 156.883L23.8761 155.615C22.7728 155.564 21.7804 155.243 20.899 154.653C20.0012 154.072 19.2691 153.245 18.7027 152.172C18.1364 151.098 17.9605 150.125 18.1752 149.252C18.3811 148.363 18.8284 147.631 19.5172 147.056C18.3469 146.998 17.3172 146.687 16.428 146.122C15.5136 145.549 14.7863 144.751 14.2461 143.727C13.8192 142.918 13.6236 142.188 13.6594 141.536C13.67 140.876 13.8488 140.275 14.1959 139.733C14.5266 139.2 14.9712 138.722 15.5297 138.301C16.0795 137.863 16.6681 137.478 17.2954 137.147L25.3929 132.874Z" fill="#DFDFDF"/>
<path d="M22.8492 119.339C23.0754 120.455 23.0286 121.493 22.7089 122.453C22.3672 123.398 21.8146 124.196 21.0511 124.845L29.421 123.149L30.1661 126.827L9.94122 130.925L9.29059 127.714L11.7604 127.214C10.8076 126.835 10.0081 126.274 9.36192 125.529C8.69742 124.787 8.25581 123.877 8.03708 122.797C7.84059 121.828 7.85288 120.901 8.07396 120.019C8.29132 119.117 8.68643 118.295 9.25929 117.55C9.81386 116.809 10.506 116.183 11.3357 115.672C12.1434 115.147 13.0595 114.78 14.0841 114.572C15.4745 114.291 16.7924 114.309 18.0379 114.628C19.2797 114.929 20.3354 115.486 21.2051 116.301C22.0528 117.1 22.6008 118.113 22.8492 119.339ZM19.9711 121.207C19.8561 120.64 19.6334 120.152 19.3029 119.743C18.9724 119.334 18.5725 119.005 18.1033 118.758C17.6121 118.495 17.0937 118.334 16.548 118.273C15.9804 118.197 15.413 118.217 14.8459 118.332C14.2422 118.454 13.7046 118.668 13.2331 118.973C12.7579 119.26 12.3653 119.625 12.0553 120.069C11.7269 120.516 11.503 121.009 11.3836 121.548C11.2604 122.068 11.2563 122.612 11.3712 123.179C11.4417 123.526 11.578 123.87 11.7802 124.21C11.9604 124.535 12.1937 124.84 12.4799 125.125C12.7662 125.41 13.0816 125.651 13.4263 125.848C13.7672 126.026 14.1226 126.135 14.4924 126.175L17.8678 125.491C18.3539 125.163 18.7794 124.773 19.1443 124.318C19.5055 123.844 19.7641 123.335 19.9202 122.789C20.0579 122.247 20.0749 121.72 19.9711 121.207Z" fill="#DFDFDF"/>
<path d="M15.5963 109.045L6.41562 108.796L6.51698 105.046L14.8859 105.272C16.0055 105.302 16.8601 105.12 17.4496 104.725C18.0205 104.33 18.3168 103.731 18.3385 102.928C18.3516 102.443 18.2712 101.965 18.0972 101.493C17.905 101.003 17.6183 100.556 17.2371 100.154C16.8563 99.7325 16.3711 99.3739 15.7816 99.0779L6.6849 98.832L6.78626 95.0814L17.2544 95.3643C17.6463 95.3749 17.928 95.3172 18.0994 95.1911C18.2714 95.0463 18.3803 94.8159 18.4262 94.4997L21.4771 94.5821C21.523 94.9568 21.5518 95.275 21.5634 95.5368C21.5941 95.7804 21.6067 96.0048 21.6012 96.21C21.583 96.8818 21.4189 97.4282 21.1087 97.8493C20.7804 98.2513 20.3447 98.4823 19.8015 98.5423L18.6237 98.5945C19.595 99.2743 20.328 100.134 20.8228 101.175C21.2989 102.215 21.5203 103.35 21.487 104.582C21.4461 106.093 20.93 107.228 19.9385 107.985C18.9283 108.742 17.4809 109.095 15.5963 109.045Z" fill="#DFDFDF"/>
<path d="M23.3437 82.0166C23.4062 82.3541 23.4734 82.7593 23.5455 83.2323C23.6176 83.7053 23.6454 84.2072 23.629 84.7378C23.6348 85.2541 23.5838 85.768 23.4761 86.2794C23.3337 86.9552 23.0842 87.5513 22.7275 88.0675C22.3708 88.5838 21.9002 88.9616 21.3156 89.2009C20.7167 89.4181 19.9971 89.4383 19.1569 89.2613L10.9098 87.5245L10.5116 89.415L7.68952 88.8207L8.08767 86.9301L3.42984 85.9492L4.20305 82.2777L8.86088 83.2587L9.49561 80.2448L12.3177 80.8391L11.683 83.853L18.6971 85.3302C19.1941 85.4158 19.5792 85.3538 19.8522 85.1442C20.1253 84.9347 20.3022 84.6381 20.383 84.2545C20.4638 83.8709 20.4787 83.483 20.4278 83.0908C20.3768 82.6985 20.3288 82.3832 20.2836 82.1448L23.3437 82.0166Z" fill="#DFDFDF"/>
<path d="M27.4455 73.5378C27.0077 74.6293 26.4297 75.5438 25.7115 76.2815C24.976 77.0122 24.1626 77.5608 23.2714 77.9274C22.3629 78.287 21.4233 78.4733 20.4528 78.4863C19.4718 78.475 18.5136 78.2817 17.578 77.9064C16.2786 77.3852 15.2065 76.6234 14.3617 75.6208C13.5238 74.6009 12.9998 73.4253 12.7896 72.0941C12.569 70.7385 12.7541 69.3245 13.3447 67.8518C13.9424 66.3619 14.7823 65.2205 15.8645 64.4278C16.9294 63.6281 18.1102 63.1664 19.4067 63.0429C20.6928 62.895 21.9509 63.0678 23.181 63.5612C23.3889 63.6446 23.602 63.7401 23.8203 63.8478C24.0212 63.9485 24.1875 64.0353 24.3192 64.1082L20.0976 74.6331C20.8184 74.8418 21.5047 74.8858 22.1565 74.7651C22.8152 74.627 23.3874 74.3537 23.8731 73.9452C24.3484 73.5123 24.7077 72.9927 24.9509 72.3864C25.2288 71.6934 25.3248 70.9777 25.2389 70.2392C25.1425 69.4766 24.8623 68.8714 24.3983 68.4238L26.4286 65.7688C26.9896 66.376 27.4135 67.0991 27.7004 67.9382C27.9943 68.76 28.1303 69.6492 28.1086 70.6059C28.0696 71.5557 27.8486 72.5329 27.4455 73.5378ZM17.8574 73.8251L20.7135 66.7045C19.9927 66.4959 19.3151 66.4554 18.6806 66.583C18.0358 66.6864 17.4705 66.9424 16.9849 67.3509C16.4819 67.7525 16.1018 68.2739 15.8447 68.9149C15.5945 69.5386 15.5125 70.1694 15.5985 70.8073C15.6742 71.4209 15.9059 71.9965 16.2936 72.5342C16.671 73.0475 17.1922 73.4778 17.8574 73.8251Z" fill="#DFDFDF"/>
<path d="M20.9394 53.2266L26.4686 53.1945L27.0125 53.286L26.7469 52.7743L24.6038 47.6941L26.7838 44.4026L30.0626 52.6866L39.0625 52.4344L36.8824 55.7259L31.3302 55.8435L30.7942 55.7908L31.0673 56.2404L33.1407 61.3751L30.9607 64.6666L27.7516 56.328L18.7748 56.4948L20.9394 53.2266Z" fill="#DFDFDF"/>
<path d="M41.7358 40.811L39.4742 38.2883L45.7913 32.625L48.0529 35.1476L41.7358 40.811Z" fill="#DFDFDF"/>
<path d="M67.253 30.2846C66.1884 30.8265 65.1429 31.1387 64.1167 31.2212C63.0819 31.287 62.1043 31.1563 61.1836 30.829C60.2545 30.485 59.4161 29.9901 58.6685 29.3443C57.9375 28.69 57.3434 27.9137 56.8862 27.0154C56.2596 25.7844 55.9625 24.5217 55.995 23.2275C56.0356 21.9082 56.415 20.6783 57.1331 19.5378C57.8513 18.3973 58.9174 17.4672 60.3314 16.7475C61.7454 16.0277 63.1165 15.7174 64.4446 15.8164C65.7726 15.9154 66.9402 16.337 67.9473 17.0811L65.1865 19.7431C64.6581 19.4046 64.0975 19.2291 63.5047 19.2167C62.9034 19.1876 62.32 19.317 61.7544 19.6049C61.1222 19.9267 60.6246 20.3894 60.2616 20.993C59.9068 21.5716 59.7321 22.2365 59.7375 22.9878C59.7344 23.7225 59.9318 24.4808 60.3298 25.2627C60.7193 26.0279 61.2162 26.6338 61.8204 27.0802C62.4329 27.5016 63.0859 27.7557 63.7794 27.8426C64.4644 27.9128 65.1231 27.787 65.7552 27.4653C66.1545 27.2621 66.4949 27.005 66.7765 26.6941C67.0748 26.3747 67.306 26.0266 67.4703 25.6498C67.6345 25.2729 67.707 24.9009 67.6877 24.5337L71.4646 23.868C71.4954 24.6692 71.3509 25.4759 71.0312 26.2879C70.7281 27.0915 70.2618 27.842 69.6323 28.5395C69.011 29.2118 68.2179 29.7935 67.253 30.2846Z" fill="#DFDFDF"/>
<path d="M82.9507 24.3218C81.7964 24.6299 80.7088 24.7174 79.6879 24.5841C78.6622 24.4329 77.7333 24.1012 76.9011 23.5892C76.0869 23.0724 75.3905 22.4178 74.812 21.6256C74.2334 20.8333 73.8142 19.9502 73.5542 18.9763C73.2894 17.9844 73.2104 17.0008 73.3172 16.0256C73.424 15.0504 73.7015 14.1359 74.1498 13.2821C74.6162 12.4234 75.2587 11.682 76.0774 11.0577C76.8913 10.4154 77.8754 9.94024 79.0296 9.63214C80.1839 9.32404 81.2648 9.24803 82.2725 9.4041C83.2934 9.53732 84.2199 9.85995 85.0521 10.372C85.8843 10.884 86.5807 11.5386 87.1412 12.3356C87.7198 13.1279 88.1414 14.02 88.4062 15.0119C88.6662 15.9858 88.7428 16.9604 88.636 17.9356C88.5472 18.906 88.2697 19.8205 87.8034 20.6791C87.3551 21.5329 86.724 22.281 85.9101 22.9233C85.0914 23.5476 84.1049 24.0137 82.9507 24.3218ZM77.2875 17.9798C77.509 18.8094 77.8686 19.5055 78.3666 20.0682C78.8597 20.6127 79.434 20.9908 80.0893 21.2022C80.7447 21.4137 81.4241 21.4256 82.1275 21.2378C82.8128 21.0549 83.3869 20.7084 83.8497 20.1985C84.3077 19.6705 84.6147 19.0476 84.7709 18.3297C84.9403 17.589 84.9142 16.8038 84.6928 15.9742C84.4761 15.1626 84.1098 14.4779 83.5939 13.9201C83.0959 13.3575 82.5193 12.9704 81.8639 12.759C81.2085 12.5475 80.5382 12.5332 79.8528 12.7162C79.1494 12.9039 78.5688 13.2618 78.1108 13.7897C77.6479 14.2997 77.3409 14.9226 77.1895 15.6585C77.0334 16.3764 77.0661 17.1502 77.2875 17.9798Z" fill="#DFDFDF"/>
<path d="M117.012 21.4158L113.261 21.3579L113.388 13.1269C113.406 11.9697 113.213 11.1173 112.811 10.5697C112.428 10.0037 111.881 9.7152 111.172 9.70425C110.444 9.69301 109.74 9.9715 109.059 10.5397C108.397 11.0896 107.919 11.8196 107.625 12.7298L107.493 21.2688L103.742 21.2109L103.869 12.9799C103.887 11.804 103.695 10.9423 103.293 10.3947C102.909 9.84735 102.363 9.56821 101.653 9.55726C100.925 9.54602 100.221 9.81518 99.5406 10.3647C98.8787 10.9146 98.4008 11.6446 98.1067 12.5549L97.9744 21.1218L94.2228 21.0639L94.4494 6.39366L97.8369 6.44597L97.795 9.16164C98.3696 8.2184 99.1275 7.50202 100.068 7.01249C101.01 6.50429 102.087 6.25956 103.3 6.2783C104.513 6.29703 105.451 6.61021 106.114 7.21785C106.795 7.82578 107.223 8.5698 107.396 9.44991C108.009 8.45125 108.776 7.69768 109.699 7.1892C110.64 6.66234 111.69 6.40784 112.847 6.42571C113.762 6.43983 114.496 6.6192 115.051 6.9638C115.625 7.29003 116.066 7.73557 116.375 8.3004C116.683 8.84657 116.889 9.46581 116.99 10.1581C117.11 10.8507 117.164 11.5516 117.153 12.2609L117.012 21.4158Z" fill="#DFDFDF"/>
<path d="M129.792 25.4514C128.702 25.1204 127.811 24.5863 127.118 23.849C126.448 23.0993 126.009 22.2342 125.799 21.2537L123.317 29.4249L119.727 28.3343L125.725 8.58935L128.86 9.5416L128.128 11.9528C128.913 11.294 129.787 10.8572 130.75 10.6424C131.718 10.4098 132.729 10.4535 133.782 10.7736C134.729 11.0612 135.538 11.5119 136.21 12.1257C136.9 12.745 137.437 13.4835 137.82 14.3412C138.208 15.1811 138.431 16.0875 138.486 17.0603C138.565 18.0207 138.453 19.001 138.149 20.0012C137.736 21.3587 137.094 22.5096 136.222 23.4542C135.367 24.4042 134.376 25.0686 133.246 25.4473C132.14 25.8135 130.988 25.8149 129.792 25.4514ZM129.514 22.0309C130.068 22.1991 130.603 22.235 131.12 22.1384C131.637 22.0419 132.116 21.846 132.557 21.5507C133.021 21.243 133.409 20.8635 133.722 20.4123C134.058 19.9486 134.31 19.4399 134.478 18.8862C134.657 18.2968 134.725 17.7222 134.68 17.1624C134.653 16.6081 134.518 16.0891 134.275 15.6055C134.037 15.104 133.71 14.6729 133.293 14.3121C132.893 13.9567 132.417 13.6949 131.863 13.5267C131.524 13.4236 131.157 13.3803 130.762 13.3968C130.39 13.4009 130.01 13.4612 129.624 13.5779C129.237 13.6945 128.875 13.8578 128.539 14.0676C128.22 14.2828 127.955 14.5438 127.745 14.8506L126.744 18.1459C126.801 18.729 126.943 19.2891 127.17 19.8263C127.414 20.3689 127.74 20.8385 128.146 21.235C128.558 21.6137 129.014 21.879 129.514 22.0309Z" fill="#DFDFDF"/>
<path d="M142.28 23.8729L146.863 15.9145L150.115 17.787L145.936 25.0418C145.377 26.0124 145.131 26.8508 145.198 27.5573C145.275 28.2475 145.661 28.7929 146.356 29.1935C146.777 29.4357 147.236 29.5924 147.733 29.6635C148.257 29.7278 148.786 29.6879 149.321 29.5439C149.873 29.4091 150.419 29.1528 150.959 28.775L155.501 20.8893L158.752 22.7618L153.526 31.8364C153.33 32.1761 153.247 32.4514 153.277 32.6621C153.322 32.8823 153.473 33.0877 153.729 33.2784L152.206 35.9231C151.855 35.7853 151.561 35.6593 151.325 35.5451C151.097 35.4563 150.893 35.3607 150.715 35.2582C150.133 34.9228 149.73 34.5186 149.507 34.0455C149.31 33.5656 149.314 33.0724 149.519 32.5661L150.033 31.5051C148.973 32.0363 147.868 32.2722 146.718 32.2127C145.576 32.1371 144.472 31.7918 143.404 31.177C142.094 30.4224 141.342 29.4289 141.147 28.1964C140.961 26.9478 141.339 25.5067 142.28 23.8729Z" fill="#DFDFDF"/>
<path d="M162.252 43.4337C161.925 43.3286 161.536 43.1956 161.086 43.0347C160.635 42.8738 160.18 42.6602 159.721 42.3941C159.264 42.1543 158.835 41.8656 158.436 41.5282C157.909 41.0823 157.503 40.5799 157.217 40.021C156.932 39.4621 156.823 38.8686 156.889 38.2405C156.982 37.6102 157.306 36.9671 157.86 36.3114L163.301 29.875L161.826 28.6277L163.687 26.4253L165.163 27.6725L168.236 24.0374L171.101 26.4596L168.028 30.0948L170.38 32.0832L168.519 34.2857L166.166 32.2973L161.539 37.7714C161.228 38.1683 161.1 38.5367 161.155 38.8765C161.21 39.2162 161.387 39.5127 161.686 39.7657C161.985 40.0188 162.32 40.2159 162.689 40.3572C163.059 40.4984 163.359 40.6057 163.591 40.679L162.252 43.4337Z" fill="#DFDFDF"/>
<path d="M168.074 51.3251C167.321 50.4216 166.791 49.4786 166.482 48.4962C166.189 47.5019 166.092 46.5255 166.193 45.5672C166.308 44.5968 166.59 43.6815 167.039 42.8212C167.515 41.9633 168.14 41.2118 168.915 40.5667C169.991 39.6706 171.17 39.0889 172.454 38.8215C173.749 38.5685 175.033 38.6656 176.304 39.1128C177.602 39.5624 178.758 40.3968 179.774 41.6159C180.801 42.8494 181.407 44.1306 181.59 45.4595C181.789 46.7764 181.634 48.0348 181.127 49.2344C180.646 50.4365 179.897 51.4617 178.879 52.3099C178.706 52.4532 178.521 52.5954 178.323 52.7364C178.139 52.8654 177.983 52.9705 177.857 53.0518L170.599 44.3385C170.073 44.8737 169.708 45.4568 169.505 46.0877C169.314 46.733 169.283 47.3663 169.412 47.9878C169.567 48.6116 169.853 49.1745 170.272 49.6765C170.749 50.2502 171.334 50.6746 172.024 50.9496C172.741 51.227 173.407 51.2678 174.021 51.072L175.394 54.1195C174.593 54.3249 173.755 54.3546 172.88 54.2086C172.018 54.077 171.17 53.7744 170.339 53.301C169.522 52.8157 168.766 52.157 168.074 51.3251ZM172.374 42.7507L177.284 48.6456C177.81 48.1104 178.167 47.5333 178.356 46.9143C178.572 46.2977 178.615 45.6787 178.486 45.0573C178.371 44.4239 178.093 43.8419 177.651 43.3112C177.221 42.7948 176.705 42.4231 176.102 42.1959C175.527 41.9711 174.91 41.9016 174.253 41.9875C173.622 42.0758 172.995 42.3302 172.374 42.7507Z" fill="#DFDFDF"/>
<path d="M189.032 55.1873L186.444 60.0739L186.106 60.5097L186.683 60.5178L192.172 61.0331L194.041 64.5109L185.191 63.4805L181.156 71.5289L179.287 68.0511L181.81 63.1038L182.11 62.6565L181.585 62.6845L176.08 62.082L174.212 58.6042L183.077 59.7218L187.176 51.7342L189.032 55.1873Z" fill="#DFDFDF"/>
<path d="M190.132 79.4806L193.427 78.6943L195.397 86.9466L192.101 87.7329L190.132 79.4806Z" fill="#DFDFDF"/>
</svg>
