<svg width="100" height="100" viewBox="0 0 100 100" fill="none" xmlns="http://www.w3.org/2000/svg">
<g clip-path="url(#clip0_187_5839)">
<path fill-rule="evenodd" clip-rule="evenodd" d="M50.5376 2.1505C77.261 2.1505 98.9247 23.814 98.9247 50.5375C98.9247 77.2609 77.261 98.9244 50.5376 98.9244C23.8141 98.9244 2.1505 77.2609 2.1505 50.5375C2.1505 23.814 23.8141 2.1505 50.5376 2.1505Z" fill="#FF4C00"/>
<rect x="-1.82324" y="-7" width="116" height="131" rx="24" fill="#FF4C00"/>
<g clip-path="url(#clip1_187_5839)">
<path d="M46.25 32.5C45.2554 32.5 44.3016 32.8951 43.5983 33.5983C42.8951 34.3016 42.5 35.2554 42.5 36.25V37.5H33.75C32.7554 37.5 31.8016 37.8951 31.0983 38.5983C30.3951 39.3016 30 40.2554 30 41.25V44.71L49.035 49.785C49.6673 49.9534 50.3327 49.9534 50.965 49.785L70 44.71V41.25C70 40.2554 69.6049 39.3016 68.9016 38.5983C68.1984 37.8951 67.2446 37.5 66.25 37.5H57.5V36.25C57.5 35.2554 57.1049 34.3016 56.4017 33.5983C55.6984 32.8951 54.7446 32.5 53.75 32.5H46.25ZM46.25 35H53.75C54.0815 35 54.3995 35.1317 54.6339 35.3661C54.8683 35.6005 55 35.9185 55 36.25V37.5H45V36.25C45 35.9185 45.1317 35.6005 45.3661 35.3661C45.6005 35.1317 45.9185 35 46.25 35Z" fill="white"/>
<path d="M30 61.25C30 62.2446 30.3951 63.1984 31.0983 63.9017C31.8016 64.6049 32.7554 65 33.75 65H66.25C67.2446 65 68.1984 64.6049 68.9016 63.9017C69.6049 63.1984 70 62.2446 70 61.25V47.125L50.3225 52.3675C50.1112 52.4239 49.8888 52.4239 49.6775 52.3675L30 47.125V61.25Z" fill="white"/>
</g>
</g>
<defs>
<clipPath id="clip0_187_5839">
<rect width="100" height="100" rx="8" fill="white"/>
</clipPath>
<clipPath id="clip1_187_5839">
<rect width="40" height="40" fill="white" transform="translate(30 30)"/>
</clipPath>
</defs>
</svg>
