<svg width="100" height="100" viewBox="0 0 100 100" fill="none" xmlns="http://www.w3.org/2000/svg">
<g clip-path="url(#clip0_661_5196)">
<rect x="-1.82422" y="-7" width="116" height="131" rx="24" fill="#FF4C00"/>
<g clip-path="url(#clip1_661_5196)">
<path d="M85.1583 36.976H69.9733V34.6308H85.1583V36.976ZM85.1583 38.5055H69.9733V40.8554H85.1583V38.5055ZM85.1491 27.8669H69.9872V33.0339H85.1491V27.8669ZM90 22.3116V77.6943C89.9977 78.5241 89.3213 79.2004 88.4892 79.2004H66.6471C65.8127 79.2004 65.1386 78.5241 65.1386 77.6919V22.3116C65.1386 21.4795 65.8127 20.8008 66.6471 20.8008H88.4892C89.3236 20.8008 90 21.4795 90 22.3116ZM86.9806 23.8155H68.1533V76.1834H86.9806V23.8155ZM85.1583 42.3825H69.9733V44.7255H85.1583V42.3825ZM82.6875 59.8571C82.6875 62.558 80.505 64.7359 77.8134 64.7359C75.1171 64.7359 72.9345 62.5557 72.9345 59.8571C72.9345 57.1655 75.1194 54.9806 77.8134 54.9806C80.505 54.9806 82.6875 57.1678 82.6875 59.8571ZM80.928 59.8571C80.928 58.1394 79.5334 56.7401 77.811 56.7401C76.0863 56.7401 74.6917 58.1371 74.6917 59.8571C74.6917 61.5771 76.0863 62.9717 77.811 62.9717C79.5334 62.9717 80.928 61.5771 80.928 59.8571ZM60.9896 31.4255V62.816C60.9896 64.708 59.4671 66.2398 57.5937 66.2398H40.6351C40.6351 66.2398 39.6728 73.092 45.7766 73.092V76.5205H40.6351H30.3568H25.2153V73.0967C31.0936 73.0967 30.3568 66.2444 30.3568 66.2444H13.4052C11.5248 66.2444 10 64.7127 10 62.8207V31.4255C10 29.5334 11.5248 28.0086 13.4052 28.0086H57.5914C59.4671 28.0086 60.9896 29.5334 60.9896 31.4255ZM38.6641 62.0513C38.6641 60.4289 37.3485 59.1156 35.7261 59.1156C34.1013 59.1156 32.7834 60.4289 32.7834 62.0513C32.7834 63.6737 34.099 64.9916 35.7261 64.9916C37.3508 64.9916 38.6641 63.6737 38.6641 62.0513ZM57.3496 31.6416H13.6446V58.1092H57.3473C57.3473 58.1092 57.3496 31.6416 57.3496 31.6416ZM35.7563 60.2127C34.7475 60.2127 33.9317 61.0309 33.9317 62.0373C33.9317 63.0438 34.7498 63.862 35.7563 63.862C36.7627 63.862 37.5809 63.0438 37.5809 62.0373C37.5809 61.0309 36.7651 60.2127 35.7563 60.2127Z" fill="white"/>
</g>
</g>
<defs>
<clipPath id="clip0_661_5196">
<rect width="100" height="100" rx="8" fill="white"/>
</clipPath>
<clipPath id="clip1_661_5196">
<rect width="80" height="80" fill="white" transform="translate(10 10)"/>
</clipPath>
</defs>
</svg>
