<svg width="100" height="100" viewBox="0 0 100 100" fill="none" xmlns="http://www.w3.org/2000/svg">
<g clip-path="url(#clip0_187_5816)">
<path fill-rule="evenodd" clip-rule="evenodd" d="M52.0002 2C79.6144 2 102 24.3857 102 52.0001C102 79.6143 79.6144 102 52.0002 102C24.3859 102 2 79.6143 2 52.0001C2 24.3857 24.3859 2 52.0002 2Z" fill="#FF4C00"/>
<rect x="-1.82324" y="-7" width="116" height="131" rx="24" fill="#FF4C00"/>
<g clip-path="url(#clip1_187_5816)">
<path d="M47.7294 61.2478C46.17 62.6888 44.0132 63.0116 42.1003 62.0905C41.4087 61.7574 40.8251 61.2976 40.3682 60.7468L37.7635 66.508C37.6449 66.7702 37.7773 66.9677 37.8396 67.0405C37.902 67.1131 38.0771 67.274 38.3541 67.197L40.2503 66.6691C40.4664 66.6091 40.6849 66.5801 40.9003 66.5801C41.8089 66.5801 42.6642 67.0944 43.076 67.9466L43.9324 69.7189C44.0574 69.9779 44.2921 70.0037 44.3897 70.0018C44.4855 70.0005 44.7211 69.9695 44.8396 69.7073L48.9828 60.543C48.5275 60.674 48.0964 60.9086 47.7294 61.2478Z" fill="white"/>
<path d="M62.237 66.508L59.6323 60.7468C59.1754 61.2977 58.5918 61.7575 57.9002 62.0905C55.9872 63.0116 53.8305 62.6888 52.2711 61.2478C51.9041 60.9086 51.473 60.674 51.0176 60.543L55.1608 69.7073C55.2793 69.9695 55.5149 70.0005 55.6106 70.0018C55.7083 70.0037 55.9429 69.9779 56.068 69.7189L56.9244 67.9466C57.3361 67.0944 58.1914 66.5801 59.1001 66.5801C59.3155 66.5801 59.534 66.6091 59.75 66.6691L61.6462 67.197C61.9233 67.2741 62.0984 67.1132 62.1607 67.0405C62.2232 66.9677 62.3555 66.7701 62.237 66.508Z" fill="white"/>
<path d="M64.2826 46.2337C62.1193 44.7524 61.4481 41.8114 62.7545 39.5382C63.5397 38.1717 63.131 36.8214 62.4867 36.0134C61.8424 35.2055 60.6167 34.5067 59.1099 34.968C56.6034 35.7358 53.8852 34.427 52.9224 31.9883C52.3436 30.5223 51.0331 30 49.9997 30C48.9663 30 47.6558 30.5223 47.077 31.9884C46.1142 34.4272 43.3963 35.7358 40.8895 34.9681C39.3825 34.5069 38.1571 35.2055 37.5127 36.0134C36.8684 36.8215 36.4597 38.1716 37.2449 39.5383C38.5513 41.8114 37.8801 44.7525 35.7168 46.2338C34.4163 47.1243 34.1988 48.5181 34.4286 49.5256C34.6584 50.5331 35.4594 51.6945 37.0174 51.9325C39.6092 52.3284 41.4899 54.6869 41.2994 57.3018C41.1847 58.8738 42.1388 59.913 43.0699 60.3614C44.0009 60.8098 45.4083 60.9079 46.5658 59.8381C47.5284 58.9485 48.7643 58.5035 49.9996 58.5035C51.2354 58.5035 52.4706 58.9483 53.4334 59.8381C54.591 60.908 55.9984 60.8098 56.9295 60.3614C57.8605 59.913 58.8145 58.8738 58.6999 57.3019C58.5094 54.687 60.3902 52.3285 62.9819 51.9325C64.5399 51.6945 65.3407 50.533 65.5707 49.5256C65.8006 48.518 65.5829 47.1241 64.2826 46.2337ZM49.9997 56.244C44.3298 56.244 39.717 51.6312 39.717 45.9613C39.717 40.2913 44.3297 35.6784 49.9997 35.6784C55.6697 35.6784 60.2824 40.2913 60.2824 45.9612C60.2824 51.6311 55.6696 56.244 49.9997 56.244Z" fill="white"/>
<path d="M50.0003 37.5938C45.3875 37.5938 41.6348 41.3466 41.6348 45.9593C41.6348 50.572 45.3874 54.3248 50.0003 54.3248C54.6132 54.3248 58.3659 50.572 58.3659 45.9593C58.3659 41.3466 54.6131 37.5938 50.0003 37.5938ZM54.2874 45.1482L49.081 48.9509C48.9158 49.0716 48.7175 49.1355 48.5156 49.1355C48.4636 49.1355 48.4113 49.1313 48.3593 49.1227C48.1055 49.0807 47.8791 48.9384 47.7311 48.7278L46.1737 46.5105C45.8695 46.0771 45.9741 45.4792 46.4073 45.1749C46.8405 44.8706 47.4384 44.9752 47.7427 45.4084L48.7388 46.8267L53.1566 43.6C53.5842 43.2879 54.184 43.381 54.4962 43.8087C54.8084 44.2362 54.7149 44.8359 54.2874 45.1482Z" fill="white"/>
</g>
</g>
<defs>
<clipPath id="clip0_187_5816">
<rect width="100" height="100" rx="8" fill="white"/>
</clipPath>
<clipPath id="clip1_187_5816">
<rect width="40" height="40" fill="white" transform="translate(30 30)"/>
</clipPath>
</defs>
</svg>
