<svg width="80" height="80" viewBox="0 0 80 80" fill="none" xmlns="http://www.w3.org/2000/svg">
<rect width="80" height="80" rx="40" fill="#FF4C00"/>
<g clip-path="url(#clip0_722_5278)">
<path fill-rule="evenodd" clip-rule="evenodd" d="M21.25 63.4375V21.25C21.25 19.5924 21.9085 18.0027 23.0806 16.8306C24.2527 15.6585 25.8424 15 27.5 15H52.5C54.1576 15 55.7473 15.6585 56.9194 16.8306C58.0915 18.0027 58.75 19.5924 58.75 21.25V63.4375C58.7502 63.7088 58.6797 63.9755 58.5455 64.2114C58.4114 64.4472 58.2181 64.644 57.9847 64.7825C57.7514 64.9209 57.486 64.9962 57.2147 65.0009C56.9434 65.0056 56.6755 64.9396 56.4375 64.8094L40 55.8406L23.5625 64.8094C23.3245 64.9396 23.0566 65.0056 22.7853 65.0009C22.514 64.9962 22.2486 64.9209 22.0153 64.7825C21.7819 64.644 21.5886 64.4472 21.4545 64.2114C21.3203 63.9755 21.2498 63.7088 21.25 63.4375ZM40.5 27.8125C40.4543 27.7188 40.3832 27.6398 40.2948 27.5846C40.2064 27.5293 40.1043 27.5 40 27.5C39.8957 27.5 39.7936 27.5293 39.7052 27.5846C39.6168 27.6398 39.5457 27.7188 39.5 27.8125L37.5187 31.8281C37.4787 31.909 37.4197 31.9791 37.3468 32.0324C37.2739 32.0857 37.1893 32.1207 37.1 32.1344L32.6625 32.7781C32.5603 32.7936 32.4645 32.8373 32.3858 32.9042C32.307 32.9711 32.2485 33.0586 32.2167 33.1569C32.1849 33.2552 32.1811 33.3604 32.2058 33.4608C32.2304 33.5611 32.2825 33.6526 32.3563 33.725L35.5625 36.8531C35.6937 36.9813 35.7531 37.1656 35.7219 37.3469L34.9687 41.7656C34.9518 41.8677 34.9636 41.9724 35.0028 42.0681C35.0421 42.1638 35.1073 42.2467 35.191 42.3074C35.2748 42.3681 35.3738 42.4042 35.4769 42.4117C35.5801 42.4193 35.6833 42.3979 35.775 42.35L39.7438 40.2625C39.8235 40.2214 39.9119 40.1999 40.0016 40.1999C40.0913 40.1999 40.1797 40.2214 40.2594 40.2625L44.2281 42.35C44.3197 42.397 44.4226 42.4177 44.5252 42.4098C44.6279 42.4018 44.7263 42.3656 44.8095 42.305C44.8928 42.2444 44.9576 42.1619 44.9967 42.0667C45.0359 41.9715 45.0478 41.8672 45.0312 41.7656L44.275 37.3438C44.2596 37.255 44.2657 37.1638 44.2929 37.0778C44.3201 36.9919 44.3676 36.9138 44.4313 36.85L47.6438 33.7219C47.7175 33.6495 47.7696 33.558 47.7942 33.4577C47.8189 33.3573 47.8151 33.2521 47.7833 33.1538C47.7515 33.0555 47.693 32.968 47.6142 32.9011C47.5355 32.8341 47.4397 32.7905 47.3375 32.775L42.9 32.1312C42.8107 32.1176 42.7261 32.0826 42.6532 32.0293C42.5803 31.976 42.5213 31.9059 42.4812 31.825L40.5 27.8125Z" fill="white"/>
</g>
<defs>
<clipPath id="clip0_722_5278">
<rect width="50" height="50" fill="white" transform="translate(15 15)"/>
</clipPath>
</defs>
</svg>
