<svg width="561" height="298" viewBox="0 0 561 298" fill="none" xmlns="http://www.w3.org/2000/svg">
<path d="M21.7188 192.562H79.6875V196.625C79.6875 204.229 81.4583 209.385 85 212.094C88.6458 214.802 96.1458 216.156 107.5 216.156H116.094C127.76 216.156 135.312 214.646 138.75 211.625C142.292 208.604 144.062 202.146 144.062 192.25V169.125C144.062 159.021 142.448 152.51 139.219 149.594C136.094 146.677 128.385 145.219 116.094 145.219H107.5C97.2917 145.219 90.4167 146.104 86.875 147.875C83.3333 149.646 81.3542 152.771 80.9375 157.25H25.625V28.3438H192.344V74.4375H81.25V115.375C85.5208 109.958 90.8854 105.896 97.3438 103.188C103.906 100.479 111.562 99.125 120.312 99.125H133.75C158.125 99.125 175.781 104.333 186.719 114.75C197.656 125.167 203.125 141.938 203.125 165.062V198.344C203.125 222.51 197.083 239.49 185 249.281C173.021 258.969 151.875 263.812 121.562 263.812H99.8438C74.9479 263.812 55.6771 258.708 42.0312 248.5C28.4896 238.188 21.7188 223.708 21.7188 205.062V192.562Z" fill="#FF4C00"/>
<path d="M246.38 254H225.486V175.475H271.893V192.501H246.38V207.486H269.905V224.513H246.38V254ZM310.511 175.475C317.636 175.475 323.562 176.352 328.289 178.106C333.016 179.825 336.561 182.403 338.924 185.841C341.323 189.278 342.522 193.557 342.522 198.678C342.522 201.865 341.985 204.765 340.911 207.379C339.837 209.993 338.297 212.338 336.292 214.415C334.323 216.456 331.959 218.246 329.202 219.786L352.083 254H328.021L311.37 225.426H305.999V254H284.783V175.475H310.511ZM310.188 191.534H305.999V209.474H309.974C313.232 209.474 315.9 208.757 317.977 207.325C320.053 205.893 321.092 203.333 321.092 199.645C321.092 197.102 320.232 195.115 318.514 193.683C316.795 192.25 314.02 191.534 310.188 191.534ZM405.848 254H359.227V175.475H405.848V192.501H380.442V204.854H403.968V221.881H380.442V236.705H405.848V254ZM466.219 254H419.598V175.475H466.219V192.501H440.813V204.854H464.339V221.881H440.813V236.705H466.219V254Z" fill="#D5D5D5"/>
</svg>
