<svg width="162" height="50" viewBox="0 0 162 50" fill="none" xmlns="http://www.w3.org/2000/svg">
<path fill-rule="evenodd" clip-rule="evenodd" d="M143.748 28.0894L135.799 39.9588H128.818L140.449 23.7385L143.748 19.7103L149.139 11.5703H155.557L146.999 23.6787L158.928 39.9588H151.948L143.748 28.0894Z" fill="#2B2A29"/>
<path fill-rule="evenodd" clip-rule="evenodd" d="M157.004 0.693486C151.433 -2.52188 140.628 5.74962 132.882 19.1729C125.137 32.5962 123.368 46.0911 128.938 49.3065C134.508 52.5219 145.313 44.2504 153.059 30.8271C160.805 17.4038 162.574 3.90885 157.004 0.693486ZM133.313 19.4239C140.484 7.00469 150.31 -0.752833 155.258 2.09199C160.207 4.94877 158.402 17.3441 151.23 29.7633C144.058 42.1825 134.233 49.94 129.284 47.0952C124.336 44.2384 126.141 31.8551 133.313 19.4239Z" fill="url(#paint0_radial_187_5725)"/>
<path fill-rule="evenodd" clip-rule="evenodd" d="M143.748 28.0894L135.799 39.9588H128.818L140.449 23.7385L131.388 11.5703H137.819L143.748 19.7103L149.139 11.5703H155.557L146.999 23.6787L143.748 28.0894Z" fill="#2B2A29"/>
<path fill-rule="evenodd" clip-rule="evenodd" d="M155.736 17.5352C152.568 17.5352 149.998 20.1051 149.998 23.2726C149.998 26.4402 152.568 29.0101 155.736 29.0101C158.903 29.0101 161.473 26.4402 161.473 23.2726C161.473 20.1051 158.903 17.5352 155.736 17.5352Z" fill="url(#paint1_linear_187_5725)"/>
<path d="M3.75326 23.3095C3.80107 25.3654 4.56606 27.1105 6.04824 28.521C7.53042 29.9314 9.29947 30.6486 11.3673 30.6486C11.9052 30.6486 12.467 30.5889 13.0527 30.4813C13.6265 30.3737 14.2122 30.1825 14.7979 29.9434C15.2043 29.7641 15.6226 29.5489 16.041 29.2979C16.4593 29.0469 16.8777 28.76 17.2841 28.4493L19.2564 30.9235C18.2882 31.8081 17.2124 32.4894 16.029 32.9795C14.8457 33.4695 13.6384 33.7803 12.3953 33.9118C12.1921 33.9357 11.9769 33.9477 11.7498 33.9596C11.5227 33.9716 11.2956 33.9716 11.0685 33.9716C8.25955 33.9716 5.72551 33.0631 3.46638 31.2343C1.20726 29.4175 0.0478122 26.7758 0 23.3334C0 19.8909 1.09968 17.2254 3.31099 15.3368C5.52231 13.4482 8.05635 12.5039 10.937 12.5039C11.2956 12.5039 11.6781 12.5159 12.0606 12.5517C12.4431 12.5876 12.8137 12.6354 13.1842 12.7071C14.2241 12.8864 15.2521 13.1972 16.28 13.6394C17.2961 14.0817 18.2762 14.6674 19.1966 15.3846L17.6307 17.9306C17.2482 17.6318 16.8657 17.3688 16.4713 17.1297C16.0888 16.8907 15.6943 16.6875 15.2879 16.4962C14.6066 16.1735 13.9253 15.9464 13.2559 15.779C12.5746 15.6237 11.9172 15.54 11.2837 15.54C9.20384 15.54 7.42284 16.2572 5.96457 17.6915C4.48239 19.1618 3.75326 21.0264 3.75326 23.3095ZM28.8905 34.0792C26.5597 34.0552 24.5516 33.2903 22.8662 31.7722C21.1808 30.2542 20.3321 28.2102 20.3321 25.6284L20.368 25.5925C20.368 23.0345 21.2286 21.0384 22.9379 19.616C24.6472 18.1936 26.5836 17.4764 28.759 17.4764H28.8905C31.0899 17.5003 33.0502 18.2175 34.7834 19.6279C36.5165 21.0384 37.3891 23.0345 37.413 25.5925V25.6284C37.413 28.1385 36.5763 30.1705 34.9029 31.7125C33.2295 33.2544 31.2333 34.0194 28.9264 34.0194L28.8905 34.0792ZM28.8546 31.5332C30.2771 31.5332 31.5202 31.0072 32.5601 29.9554C33.6 28.9035 34.1259 27.5408 34.1259 25.8674C34.1259 24.194 33.6359 22.8074 32.6438 21.7197C31.6636 20.632 30.3966 20.0941 28.8546 20.0941H28.8188C27.2768 20.118 26.0337 20.6559 25.0655 21.7197C24.0973 22.7835 23.6192 24.1701 23.6192 25.8674C23.6192 27.5408 24.1332 28.9035 25.1612 29.9554C26.2011 31.0072 27.4203 31.5332 28.8546 31.5332ZM52.9281 22.1261V33.6369H49.9757V22.8672C49.9757 22.0066 49.6051 21.3133 48.876 20.7754C48.1349 20.2375 47.2862 19.9746 46.3061 19.9746C46.1268 19.9746 45.9355 19.9865 45.7443 20.0104C45.553 20.0343 45.3618 20.0702 45.1825 20.118C44.6566 20.2495 44.1426 20.4885 43.6406 20.8352C43.1266 21.1699 42.6843 21.6121 42.3018 22.162V33.6369H39.3494V17.8828H42.3018V19.3052C42.4333 19.1976 42.5767 19.09 42.7082 18.9825C42.8397 18.8749 42.9831 18.7793 43.1146 18.6956C43.796 18.2175 44.4773 17.8828 45.1706 17.6796C45.8638 17.4764 46.5691 17.3688 47.2982 17.3688C48.3142 17.3927 49.2226 17.584 50.0115 17.9664C50.8004 18.337 51.4459 18.8868 51.9479 19.616C52.5575 19.0781 53.203 18.6478 53.8843 18.337C54.5656 18.0262 55.247 17.8111 55.9163 17.6796C56.251 17.6079 56.5977 17.56 56.9323 17.5242C57.267 17.4883 57.6137 17.4764 57.9484 17.4764C59.4664 17.4764 60.7573 17.9306 61.8331 18.839C62.9089 19.7475 63.4707 20.8471 63.5185 22.1381V33.6488H60.5661V22.7835C60.5661 21.9707 60.1955 21.3013 59.4664 20.7993C58.7253 20.2853 57.9005 20.0343 56.9682 20.0343C56.8128 20.0343 56.6574 20.0343 56.514 20.0463C56.3706 20.0582 56.2152 20.0821 56.0598 20.13C55.498 20.2256 54.9362 20.4407 54.3744 20.7754C53.8246 21.1101 53.3345 21.5524 52.9281 22.1261ZM69.5069 33.3022V41.4183H66.5545V17.8828H69.5069V18.6358C70.1883 18.3011 70.8935 18.0382 71.6107 17.8708C72.3398 17.7035 73.057 17.6198 73.7861 17.6198C75.8182 17.6198 77.6589 18.2892 79.3084 19.6279C80.946 20.9667 81.7708 22.9389 81.7708 25.5327C81.7708 28.2102 80.9819 30.2542 79.416 31.6766C77.8382 33.099 75.8301 33.8162 73.3917 33.8162C72.806 33.8162 72.1844 33.7803 71.527 33.6967C70.8576 33.613 70.1883 33.4815 69.5069 33.3022ZM69.5069 21.5404V30.4096C70.009 30.6606 70.5469 30.8518 71.1206 31.0072C71.6944 31.1507 72.2801 31.2224 72.8658 31.2224C74.2643 31.2224 75.5432 30.7921 76.7027 29.9314C77.8621 29.0708 78.4359 27.6723 78.4359 25.724C78.4359 23.8952 77.9219 22.5325 76.9059 21.648C75.8899 20.7635 74.7065 20.3212 73.3678 20.3212C73.1646 20.3212 72.9494 20.3332 72.7223 20.3571C72.4952 20.381 72.2801 20.4168 72.0769 20.4646C71.6226 20.5603 71.1804 20.6917 70.7501 20.871C70.3317 21.0503 69.9134 21.2774 69.5069 21.5404ZM95.0745 33.6369L95.0387 32.3101C94.0226 32.8121 93.0425 33.1707 92.0982 33.3978C91.1539 33.6249 90.2933 33.7325 89.5044 33.7325C87.7114 33.7325 86.289 33.2663 85.2372 32.3221C84.1853 31.3778 83.6594 30.29 83.6594 29.0469V17.8708H86.6237V27.9233C86.6237 29.1186 86.9943 29.9912 87.7234 30.541C88.4645 31.0789 89.3131 31.3539 90.2933 31.3539C90.4965 31.3539 90.7116 31.3419 90.9268 31.318C91.142 31.2941 91.3571 31.2582 91.5842 31.2104C92.2177 31.0789 92.8393 30.8638 93.4489 30.565C94.0585 30.2661 94.5964 29.9075 95.0506 29.4772L95.0865 17.8589H98.0389V33.613L95.0745 33.6369Z" fill="#EF7F1A"/>
<path fill-rule="evenodd" clip-rule="evenodd" d="M103.059 30.5407V20.3208H100.884V17.8704H103.059V15.5635L106.012 14.7148V17.8704H111.821V20.3208H106.012V29.5964C106.012 30.0984 106.227 30.469 106.669 30.7319C107.111 30.9949 107.649 31.1264 108.283 31.1264C108.534 31.1264 108.797 31.1144 109.06 31.0786C109.335 31.0427 109.598 30.9829 109.872 30.8873C110.195 30.7917 110.506 30.6841 110.805 30.5646C111.116 30.4451 111.414 30.2897 111.701 30.1104L113.088 32.25C112.562 32.5727 112 32.8476 111.391 33.0867C110.781 33.3257 110.159 33.505 109.526 33.6126C109.167 33.6843 108.809 33.7321 108.45 33.768C108.103 33.8039 107.757 33.8158 107.41 33.8158C106.275 33.8158 105.283 33.5648 104.434 33.0628C103.621 32.5607 103.155 31.724 103.059 30.5407ZM130.503 25.1499H116.614C116.614 25.1738 116.614 25.2096 116.614 25.2574C116.614 25.3052 116.614 25.3531 116.614 25.3889C116.59 25.4367 116.578 25.4726 116.578 25.5084C116.578 25.5443 116.578 25.5802 116.578 25.628C116.578 25.8312 116.59 26.0463 116.614 26.2615C116.638 26.4766 116.674 26.6918 116.722 26.9189C116.996 28.0544 117.582 29.0944 118.491 30.0386C119.399 30.9949 120.57 31.473 122.029 31.4969H122.196C123.463 31.4969 124.563 31.222 125.495 30.6841C126.427 30.1462 127.288 29.3812 128.077 28.413L130.181 30.4211C129.069 31.736 127.862 32.6683 126.547 33.2062C125.232 33.7441 123.81 34.019 122.268 34.019L121.933 34.0549C119.124 33.9592 116.996 33.0508 115.526 31.3176C114.068 29.5844 113.339 27.6241 113.339 25.4248C113.339 25.2933 113.339 25.1499 113.351 24.9945C113.363 24.851 113.375 24.6956 113.399 24.5402C113.602 22.7712 114.415 21.1575 115.849 19.6873C117.271 18.2171 119.303 17.476 121.933 17.476C124.694 17.476 126.798 18.2649 128.256 19.8307C129.679 21.4086 130.444 23.1776 130.503 25.1499ZM122.017 19.8786H121.945C121.67 19.8786 121.395 19.9025 121.108 19.9503C120.821 19.9981 120.535 20.0579 120.248 20.1535C119.638 20.3567 119.052 20.6675 118.503 21.0739C117.953 21.4803 117.51 22.0062 117.2 22.6397H126.918C126.595 22.054 126.164 21.552 125.615 21.1456C125.065 20.7392 124.479 20.4284 123.869 20.2252C123.571 20.1176 123.272 20.022 122.973 19.9742C122.662 19.9144 122.375 19.8905 122.112 19.8905L122.017 19.8786Z" fill="#2B2A29"/>
<defs>
<radialGradient id="paint0_radial_187_5725" cx="0" cy="0" r="1" gradientUnits="userSpaceOnUse" gradientTransform="translate(145.738 14.9989) scale(25.0012 25.0012)">
<stop stop-color="#FFED00"/>
<stop offset="1" stop-color="#EF7F1A"/>
</radialGradient>
<linearGradient id="paint1_linear_187_5725" x1="149.989" y1="23.2754" x2="161.471" y2="23.2754" gradientUnits="userSpaceOnUse">
<stop stop-color="#EF7F1A"/>
<stop offset="0.9882" stop-color="#FFD300"/>
<stop offset="1" stop-color="#FFED00"/>
</linearGradient>
</defs>
</svg>
