<svg width="115" height="35" viewBox="0 0 115 35" fill="none" xmlns="http://www.w3.org/2000/svg">
<path d="M4.68695 6.65V28.35C4.68695 28.6833 4.7698 28.9833 4.9355 29.25C5.12487 29.4833 5.33791 29.6 5.57462 29.6H12.4275C12.5459 29.6 12.6405 29.65 12.7116 29.75C12.7826 29.85 12.8181 29.9667 12.8181 30.1V34.5C12.8181 34.6333 12.7826 34.75 12.7116 34.85C12.6405 34.95 12.5459 35 12.4275 35H3.83477C2.79323 35 1.89372 34.4667 1.13623 33.4C0.378743 32.3333 0 31.0667 0 29.6V5.4C0 3.93334 0.378743 2.66667 1.13623 1.6C1.89372 0.533334 2.79323 0 3.83477 0H12.4275C12.5459 0 12.6405 0.0500004 12.7116 0.150001C12.7826 0.250002 12.8181 0.366667 12.8181 0.499999V4.9C12.8181 5.03334 12.7826 5.15 12.7116 5.25C12.6405 5.35 12.5459 5.4 12.4275 5.4H5.57462C5.33791 5.4 5.12487 5.53334 4.9355 5.8C4.7698 6.03334 4.68695 6.31667 4.68695 6.65ZM13.5579 29.6V5.4C13.5579 3.93334 13.9367 2.66667 14.6942 1.6C15.4517 0.533334 16.3512 0 17.3927 0H22.5057C23.571 0 24.4823 0.533334 25.2398 1.6C25.9973 2.66667 26.376 3.93334 26.376 5.4V29.6C26.376 31.0667 25.9973 32.3333 25.2398 33.4C24.4823 34.4667 23.571 35 22.5057 35H17.3927C16.3512 35 15.4517 34.4667 14.6942 33.4C13.9367 32.3333 13.5579 31.0667 13.5579 29.6ZM18.2449 6.65V28.35C18.2449 28.6833 18.3277 28.9833 18.4934 29.25C18.6828 29.4833 18.8958 29.6 19.1326 29.6H20.8014C21.0381 29.6 21.2393 29.4833 21.405 29.25C21.5707 28.9833 21.6536 28.6833 21.6536 28.35V6.65C21.6536 6.41667 21.6181 6.21667 21.547 6.05C21.476 5.85 21.3695 5.7 21.2275 5.6C21.0855 5.46667 20.9434 5.4 20.8014 5.4H19.1326C18.8958 5.4 18.6828 5.53334 18.4934 5.8C18.3277 6.03334 18.2449 6.31667 18.2449 6.65ZM28.4096 0H34.0908C34.3038 0 34.4222 0.15 34.4459 0.450001L35.6176 11.15L36.8248 0.450001C36.8485 0.15 36.9669 0 37.1799 0H42.861C42.9557 0 43.0386 0.0500004 43.1096 0.150001C43.1806 0.250002 43.2161 0.366667 43.2161 0.499999V34.5C43.2161 34.6333 43.1806 34.75 43.1096 34.85C43.0386 34.95 42.9557 35 42.861 35H38.8842C38.7659 35 38.6712 34.95 38.6002 34.85C38.5292 34.75 38.4937 34.6333 38.4937 34.5V20.2L37.606 28.25C37.5823 28.5167 37.464 28.65 37.2509 28.65H33.9843C33.7949 28.65 33.6765 28.5167 33.6292 28.25L32.7415 20.2V34.5C32.7415 34.6333 32.706 34.75 32.635 34.85C32.564 34.95 32.4811 35 32.3864 35H28.4096C28.3149 35 28.2321 34.95 28.1611 34.85C28.0901 34.75 28.0546 34.6333 28.0546 34.5V0.499999C28.0546 0.166667 28.1729 0 28.4096 0ZM53.0716 14.2V6.65C53.0716 6.31667 52.9888 6.03334 52.8231 5.8C52.6574 5.53334 52.4561 5.4 52.2194 5.4H50.018C49.9233 5.4 49.8405 5.45 49.7694 5.55C49.6984 5.65 49.6629 5.76667 49.6629 5.9V14.9C49.6629 15.0333 49.6984 15.15 49.7694 15.25C49.8405 15.35 49.9233 15.4 50.018 15.4H52.2194C52.4561 15.4 52.6574 15.2833 52.8231 15.05C52.9888 14.8167 53.0716 14.5333 53.0716 14.2ZM44.976 0.499999C44.976 0.166667 45.0943 0 45.331 0H53.9238C54.989 0 55.9003 0.533334 56.6578 1.6C57.4153 2.66667 57.7941 3.93334 57.7941 5.4V15.4C57.7941 16.9 57.4153 18.1833 56.6578 19.25C55.9003 20.2833 54.989 20.8 53.9238 20.8H50.018C49.9233 20.8 49.8405 20.85 49.7694 20.95C49.6984 21.05 49.6629 21.1667 49.6629 21.3V34.5C49.6629 34.6333 49.6274 34.75 49.5564 34.85C49.4854 34.95 49.4025 35 49.3078 35H45.331C45.2364 35 45.1535 34.95 45.0825 34.85C45.0115 34.75 44.976 34.6333 44.976 34.5V0.499999ZM59.0953 0H63.0721C63.1668 0 63.2496 0.0500004 63.3206 0.150001C63.3916 0.250002 63.4272 0.366667 63.4272 0.499999V28.35C63.4272 28.6833 63.51 28.9833 63.6757 29.25C63.8651 29.4833 64.0781 29.6 64.3148 29.6H65.9837C66.2204 29.6 66.4216 29.4833 66.5873 29.25C66.753 28.9833 66.8358 28.6833 66.8358 28.35V0.499999C66.8358 0.166667 66.9542 0 67.1909 0H71.1677C71.2861 0 71.3808 0.0500004 71.4518 0.150001C71.5228 0.250002 71.5583 0.366667 71.5583 0.499999V29.6C71.5583 31.0667 71.1796 32.3333 70.4221 33.4C69.6646 34.4667 68.7532 35 67.688 35H62.575C61.5334 35 60.6339 34.4667 59.8764 33.4C59.1189 32.3333 58.7402 31.0667 58.7402 29.6V0.499999C58.7402 0.366667 58.7757 0.250002 58.8467 0.150001C58.9177 0.0500004 59.0006 0 59.0953 0ZM72.454 0H84.5265C84.6448 0 84.7395 0.0500004 84.8105 0.150001C84.8815 0.250002 84.917 0.366667 84.917 0.499999V4.9C84.917 5.03334 84.8815 5.15 84.8105 5.25C84.7395 5.35 84.6448 5.4 84.5265 5.4H81.1888C81.0941 5.4 81.0112 5.45 80.9402 5.55C80.8692 5.65 80.8337 5.76667 80.8337 5.9V34.5C80.8337 34.6333 80.7982 34.75 80.7272 34.85C80.6562 34.95 80.5733 35 80.4786 35H76.5018C76.4071 35 76.3243 34.95 76.2533 34.85C76.1823 34.75 76.1468 34.6333 76.1468 34.5V5.9C76.1468 5.76667 76.1113 5.65 76.0402 5.55C75.9692 5.45 75.8864 5.4 75.7917 5.4H72.454C72.3593 5.4 72.2765 5.35 72.2055 5.25C72.1345 5.15 72.0989 5.03334 72.0989 4.9V0.499999C72.0989 0.366667 72.1345 0.250002 72.2055 0.150001C72.2765 0.0500004 72.3593 0 72.454 0ZM85.7967 0H97.8691C97.9875 0 98.0821 0.0500004 98.1532 0.150001C98.2242 0.250002 98.2597 0.366667 98.2597 0.499999V4.9C98.2597 5.23334 98.1295 5.4 97.8691 5.4H90.4836C90.3889 5.4 90.3061 5.45 90.2351 5.55C90.164 5.65 90.1285 5.76667 90.1285 5.9V14.3C90.1285 14.4333 90.164 14.55 90.2351 14.65C90.3061 14.75 90.3889 14.8 90.4836 14.8H93.1466C93.2413 14.8 93.3242 14.85 93.3952 14.95C93.4662 15.05 93.5017 15.1667 93.5017 15.3V19.7C93.5017 19.8333 93.4662 19.95 93.3952 20.05C93.3242 20.15 93.2413 20.2 93.1466 20.2H90.4836C90.3889 20.2 90.3061 20.25 90.2351 20.35C90.164 20.45 90.1285 20.5667 90.1285 20.7V29.1C90.1285 29.2333 90.164 29.35 90.2351 29.45C90.3061 29.55 90.3889 29.6 90.4836 29.6H97.8691C97.9875 29.6 98.0821 29.65 98.1532 29.75C98.2242 29.85 98.2597 29.9667 98.2597 30.1V34.5C98.2597 34.8333 98.1295 35 97.8691 35H85.7967C85.702 35 85.6191 34.95 85.5481 34.85C85.4771 34.75 85.4416 34.6333 85.4416 34.5V0.499999C85.4416 0.366667 85.4771 0.250002 85.5481 0.150001C85.6191 0.0500004 85.702 0 85.7967 0ZM114.017 0.700001L108.655 17.5L114.017 34.3C114.064 34.4667 114.052 34.6333 113.981 34.8C113.91 34.9333 113.815 35 113.697 35H109.33C109.164 35 109.057 34.9 109.01 34.7L106.063 25.55L103.151 34.7C103.08 34.9 102.974 35 102.832 35H98.4644C98.3461 35 98.2514 34.9333 98.1804 34.8C98.1094 34.6333 98.0975 34.4667 98.1449 34.3L103.506 17.5L98.1449 0.700001C98.0975 0.533334 98.1094 0.383334 98.1804 0.249999C98.2514 0.0833332 98.3461 0 98.4644 0H102.832C102.974 0 103.08 0.100001 103.151 0.300002L106.063 9.45L109.01 0.300002C109.057 0.100001 109.164 0 109.33 0H113.697C113.815 0 113.91 0.0833332 113.981 0.249999C114.052 0.383334 114.064 0.533334 114.017 0.700001Z" fill="#FF4C00"/>
</svg>
