<svg width="80" height="80" viewBox="0 0 80 80" fill="none" xmlns="http://www.w3.org/2000/svg">
<rect width="80" height="80" rx="40" fill="#FF4C00"/>
<path d="M36.875 58.75C36.875 58.75 33.75 58.75 33.75 55.625C33.75 52.5 36.875 43.125 49.375 43.125C61.875 43.125 65 52.5 65 55.625C65 58.75 61.875 58.75 61.875 58.75H36.875ZM49.375 40C51.8614 40 54.246 39.0123 56.0041 37.2541C57.7623 35.496 58.75 33.1114 58.75 30.625C58.75 28.1386 57.7623 25.754 56.0041 23.9959C54.246 22.2377 51.8614 21.25 49.375 21.25C46.8886 21.25 44.504 22.2377 42.7459 23.9959C40.9877 25.754 40 28.1386 40 30.625C40 33.1114 40.9877 35.496 42.7459 37.2541C44.504 39.0123 46.8886 40 49.375 40ZM31.3 58.75C30.837 57.7743 30.6059 56.7048 30.625 55.625C30.625 51.3906 32.75 47.0312 36.675 44C34.7162 43.3951 32.6749 43.0999 30.625 43.125C18.125 43.125 15 52.5 15 55.625C15 58.75 18.125 58.75 18.125 58.75H31.3ZM29.0625 40C31.1345 40 33.1216 39.1769 34.5868 37.7118C36.0519 36.2466 36.875 34.2595 36.875 32.1875C36.875 30.1155 36.0519 28.1284 34.5868 26.6632C33.1216 25.1981 31.1345 24.375 29.0625 24.375C26.9905 24.375 25.0034 25.1981 23.5382 26.6632C22.0731 28.1284 21.25 30.1155 21.25 32.1875C21.25 34.2595 22.0731 36.2466 23.5382 37.7118C25.0034 39.1769 26.9905 40 29.0625 40Z" fill="white"/>
</svg>
