<svg width="80" height="80" viewBox="0 0 80 80" fill="none" xmlns="http://www.w3.org/2000/svg">
<rect width="80" height="80" rx="40" fill="#FF4C00"/>
<path d="M40 24.375C35.856 24.375 31.8817 26.0212 28.9515 28.9515C26.0212 31.8817 24.375 35.856 24.375 40V43.125H27.5C28.3288 43.125 29.1237 43.4542 29.7097 44.0403C30.2958 44.6263 30.625 45.4212 30.625 46.25V55.625C30.625 56.4538 30.2958 57.2487 29.7097 57.8347C29.1237 58.4208 28.3288 58.75 27.5 58.75H24.375C23.5462 58.75 22.7513 58.4208 22.1653 57.8347C21.5792 57.2487 21.25 56.4538 21.25 55.625V40C21.25 37.5377 21.735 35.0995 22.6773 32.8247C23.6195 30.5498 25.0006 28.4828 26.7417 26.7417C28.4828 25.0006 30.5498 23.6195 32.8247 22.6773C35.0995 21.735 37.5377 21.25 40 21.25C42.4623 21.25 44.9005 21.735 47.1753 22.6773C49.4502 23.6195 51.5172 25.0006 53.2583 26.7417C54.9993 28.4828 56.3805 30.5498 57.3227 32.8247C58.265 35.0995 58.75 37.5377 58.75 40V55.625C58.75 56.4538 58.4208 57.2487 57.8347 57.8347C57.2487 58.4208 56.4538 58.75 55.625 58.75H52.5C51.6712 58.75 50.8763 58.4208 50.2903 57.8347C49.7042 57.2487 49.375 56.4538 49.375 55.625V46.25C49.375 45.4212 49.7042 44.6263 50.2903 44.0403C50.8763 43.4542 51.6712 43.125 52.5 43.125H55.625V40C55.625 35.856 53.9788 31.8817 51.0485 28.9515C48.1183 26.0212 44.144 24.375 40 24.375Z" fill="white"/>
</svg>
