<svg width="100" height="100" viewBox="0 0 100 100" fill="none" xmlns="http://www.w3.org/2000/svg">
<g clip-path="url(#clip0_187_5807)">
<rect x="-1.82324" y="-7" width="116" height="131" rx="24" fill="#FF4C00"/>
<path fill-rule="evenodd" clip-rule="evenodd" d="M36.248 59.5C36.379 59.3253 36.5489 59.1836 36.7442 59.086C36.9394 58.9883 37.1547 58.9375 37.373 58.9375H44.4043C44.7773 58.9375 45.1349 59.0857 45.3987 59.3494C45.6624 59.6131 45.8105 59.9708 45.8105 60.3438C45.8105 60.7167 45.6624 61.0744 45.3987 61.3381C45.1349 61.6018 44.7773 61.75 44.4043 61.75H38.0762L31.748 70.1875H68.3105L61.9824 61.75H55.6543C55.2813 61.75 54.9237 61.6018 54.6599 61.3381C54.3962 61.0744 54.248 60.7167 54.248 60.3438C54.248 59.9708 54.3962 59.6131 54.6599 59.3494C54.9237 59.0857 55.2813 58.9375 55.6543 58.9375H62.6855C62.9039 58.9375 63.1192 58.9883 63.3144 59.086C63.5097 59.1836 63.6796 59.3253 63.8105 59.5L72.248 70.75C72.4047 70.9589 72.5002 71.2074 72.5236 71.4675C72.5471 71.7276 72.4976 71.9891 72.3808 72.2226C72.264 72.4562 72.0845 72.6527 71.8624 72.79C71.6402 72.9273 71.3842 73 71.123 73H28.9355C28.6744 73 28.4184 72.9273 28.1962 72.79C27.9741 72.6527 27.7946 72.4562 27.6778 72.2226C27.561 71.9891 27.5115 71.7276 27.535 71.4675C27.5584 71.2074 27.6539 70.9589 27.8105 70.75L36.248 59.5Z" fill="white"/>
<path fill-rule="evenodd" clip-rule="evenodd" d="M38.7793 39.249C38.7795 37.084 39.4044 34.965 40.579 33.1464C41.7536 31.3277 43.428 29.8866 45.4013 28.996C47.3747 28.1054 49.563 27.8031 51.7039 28.1253C53.8448 28.4476 55.8472 29.3808 57.4709 30.8129C59.0945 32.2449 60.2705 34.1151 60.8577 36.199C61.4448 38.2828 61.4182 40.4918 60.7811 42.5609C60.1439 44.63 58.9232 46.4713 57.2655 47.8639C55.6079 49.2565 53.5836 50.1411 51.4355 50.4118V65.9677C51.4355 66.3407 51.2874 66.6983 51.0237 66.9621C50.7599 67.2258 50.4023 67.374 50.0293 67.374C49.6563 67.374 49.2987 67.2258 49.0349 66.9621C48.7712 66.6983 48.623 66.3407 48.623 65.9677V50.4146C45.9033 50.0719 43.4022 48.748 41.5896 46.6915C39.777 44.635 38.7777 41.9902 38.7793 39.249Z" fill="white"/>
</g>
<defs>
<clipPath id="clip0_187_5807">
<rect width="100" height="100" rx="8" fill="white"/>
</clipPath>
</defs>
</svg>
