<svg width="80" height="80" viewBox="0 0 80 80" fill="none" xmlns="http://www.w3.org/2000/svg">
<rect width="80" height="80" rx="40" fill="#FF4C00"/>
<g clip-path="url(#clip0_722_5289)">
<path d="M15.3188 21.9468C14.8961 23.5371 14.8989 25.2106 15.3268 26.7995C15.7547 28.3884 16.5928 29.8369 17.7569 30.9998C18.9211 32.1627 20.3705 32.9992 21.9599 33.4254C23.5492 33.8516 25.2227 33.8525 26.8125 33.4281L46.6282 52.9656C46.2163 54.3646 46.1362 55.8404 46.3942 57.2757C46.6522 58.7111 47.2412 60.0666 48.1144 61.2347C48.9877 62.4027 50.1211 63.3512 51.4248 64.0048C52.7285 64.6584 54.1666 64.9991 55.625 65C56.9686 64.9981 58.296 64.7075 59.5175 64.1477C60.7389 63.588 61.8257 62.7723 62.7044 61.7559C63.583 60.7395 64.2329 59.546 64.6101 58.2565C64.9872 56.9669 65.0827 55.6114 64.8902 54.2817C64.6977 52.952 64.2216 51.6792 63.4943 50.5496C62.7669 49.4199 61.8052 48.4598 60.6744 47.7343C59.5435 47.0088 58.27 46.5348 56.94 46.3445C55.61 46.1542 54.2546 46.252 52.9657 46.6312L33.4281 26.8156C33.8546 25.2252 33.8552 23.5505 33.43 21.9598C33.0047 20.369 32.1685 18.9181 31.0052 17.7526C29.842 16.5872 28.3927 15.7482 26.8027 15.3199C25.2128 14.8916 23.5382 14.889 21.9469 15.3125L28.6375 22.0062L27.5 27.5L22.0094 28.6375L15.3188 21.9468ZM57.1 50.1312L58.75 50.2125L59.6469 51.6031L61.0375 52.5L61.1188 54.1531L61.875 55.625L61.1188 57.0968L61.0375 58.75L59.6469 59.6468L58.75 61.0375L57.0969 61.1187L55.625 61.875L54.1532 61.1187L52.5 61.0375L51.6032 59.6468L50.2125 58.75L50.1313 57.0968L49.375 55.625L50.1313 54.1531L50.2125 52.5L51.6032 51.6031L52.5 50.2125L54.1532 50.1312L55.625 49.375L57.1 50.1312Z" fill="white"/>
</g>
<defs>
<clipPath id="clip0_722_5289">
<rect width="50" height="50" fill="white" transform="translate(15 15)"/>
</clipPath>
</defs>
</svg>
