<svg width="196" height="196" viewBox="0 0 196 196" fill="none" xmlns="http://www.w3.org/2000/svg">
<path d="M173.77 106.875C173.898 105.687 174.209 104.641 174.701 103.737C175.212 102.835 175.856 102.088 176.634 101.496C177.43 100.907 178.303 100.475 179.252 100.203C180.2 99.9487 181.175 99.876 182.177 99.9846C183.55 100.133 184.77 100.575 185.835 101.31C186.917 102.066 187.74 103.056 188.302 104.281C188.864 105.506 189.059 106.908 188.888 108.485C188.717 110.062 188.227 111.38 187.418 112.438C186.608 113.495 185.617 114.242 184.443 114.678L183.725 110.911C184.297 110.654 184.751 110.28 185.085 109.791C185.439 109.304 185.649 108.744 185.718 108.113C185.794 107.408 185.679 106.738 185.372 106.104C185.082 105.491 184.621 104.981 183.989 104.574C183.376 104.17 182.633 103.921 181.761 103.826C180.907 103.734 180.128 103.818 179.424 104.08C178.736 104.362 178.166 104.77 177.714 105.303C177.28 105.838 177.025 106.458 176.949 107.163C176.901 107.609 176.93 108.034 177.036 108.44C177.14 108.864 177.305 109.248 177.531 109.592C177.756 109.936 178.028 110.2 178.346 110.384L176.837 113.91C176.15 113.498 175.554 112.936 175.049 112.224C174.542 111.531 174.169 110.73 173.929 109.821C173.706 108.933 173.653 107.951 173.77 106.875Z" fill="#FF4C00"/>
<path d="M170.492 121.803C170.865 120.668 171.386 119.71 172.056 118.928C172.743 118.152 173.529 117.555 174.412 117.138C175.29 116.739 176.219 116.514 177.199 116.463C178.178 116.411 179.147 116.543 180.105 116.858C181.08 117.178 181.947 117.65 182.705 118.273C183.463 118.895 184.077 119.628 184.547 120.47C185.011 121.33 185.28 122.273 185.356 123.3C185.448 124.332 185.308 125.416 184.935 126.551C184.562 127.686 184.035 128.633 183.353 129.391C182.684 130.173 181.907 130.773 181.023 131.189C180.139 131.606 179.211 131.832 178.237 131.865C177.257 131.916 176.28 131.782 175.304 131.461C174.347 131.146 173.489 130.678 172.731 130.055C171.967 129.45 171.353 128.718 170.889 127.858C170.419 127.016 170.137 126.078 170.045 125.046C169.969 124.019 170.118 122.938 170.492 121.803ZM178.898 120.529C178.082 120.26 177.303 120.181 176.559 120.29C175.834 120.406 175.203 120.68 174.668 121.113C174.133 121.546 173.751 122.108 173.524 122.8C173.302 123.474 173.279 124.144 173.453 124.81C173.644 125.482 173.998 126.08 174.514 126.603C175.041 127.15 175.713 127.558 176.529 127.826C177.327 128.088 178.1 128.156 178.849 128.029C179.593 127.919 180.232 127.648 180.768 127.215C181.303 126.782 181.681 126.228 181.903 125.554C182.13 124.863 182.148 124.181 181.956 123.509C181.782 122.842 181.429 122.245 180.895 121.716C180.379 121.192 179.714 120.797 178.898 120.529Z" fill="#FF4C00"/>
<path d="M155.1 150.264L157.194 147.151L164.024 151.747C164.984 152.393 165.804 152.697 166.482 152.658C167.165 152.645 167.705 152.345 168.101 151.756C168.508 151.152 168.658 150.41 168.553 149.53C168.454 148.675 168.102 147.876 167.5 147.133L160.415 142.365L162.509 139.253L169.339 143.848C170.315 144.505 171.142 144.814 171.82 144.775C172.488 144.752 173.02 144.447 173.416 143.858C173.823 143.254 173.981 142.517 173.892 141.647C173.792 140.792 173.441 139.993 172.838 139.251L165.73 134.467L167.824 131.354L179.997 139.545L178.105 142.356L175.852 140.84C176.329 141.836 176.516 142.862 176.413 143.918C176.326 144.984 175.944 146.02 175.266 147.027C174.589 148.034 173.815 148.649 172.944 148.873C172.063 149.112 171.206 149.065 170.374 148.73C170.877 149.788 171.09 150.843 171.013 151.893C170.941 152.97 170.582 153.988 169.936 154.948C169.425 155.707 168.874 156.225 168.283 156.502C167.696 156.805 167.082 156.932 166.44 156.883C165.814 156.844 165.183 156.678 164.548 156.385C163.902 156.108 163.285 155.771 162.696 155.375L155.1 150.264Z" fill="#FF4C00"/>
<path d="M145.63 157.535C146.502 156.803 147.437 156.348 148.433 156.17C149.426 156.018 150.391 156.123 151.327 156.483L145.837 149.941L148.711 147.529L161.976 163.337L159.467 165.443L157.847 163.512C157.97 164.53 157.859 165.501 157.513 166.424C157.179 167.362 156.59 168.185 155.747 168.893C154.989 169.529 154.169 169.961 153.288 170.189C152.393 170.428 151.481 170.475 150.553 170.327C149.637 170.194 148.757 169.885 147.911 169.4C147.064 168.942 146.304 168.313 145.632 167.512C144.72 166.425 144.107 165.258 143.792 164.012C143.462 162.777 143.448 161.584 143.747 160.431C144.044 159.304 144.672 158.339 145.63 157.535ZM148.647 159.17C148.204 159.542 147.882 159.971 147.68 160.457C147.479 160.942 147.381 161.451 147.388 161.981C147.392 162.538 147.498 163.071 147.705 163.579C147.91 164.114 148.199 164.603 148.57 165.046C148.966 165.518 149.411 165.888 149.904 166.156C150.383 166.437 150.892 166.607 151.43 166.667C151.98 166.742 152.52 166.703 153.05 166.551C153.566 166.41 154.045 166.154 154.488 165.782C154.76 165.554 154.997 165.27 155.199 164.93C155.399 164.616 155.555 164.266 155.669 163.878C155.782 163.491 155.843 163.098 155.851 162.702C155.845 162.317 155.771 161.953 155.628 161.609L153.415 158.971C152.895 158.7 152.348 158.513 151.774 158.41C151.186 158.319 150.615 158.335 150.061 158.459C149.519 158.597 149.048 158.834 148.647 159.17Z" fill="#FF4C00"/>
<path d="M141.499 167.876L145.695 176.045L142.357 177.759L138.532 170.312C138.021 169.316 137.45 168.655 136.82 168.327C136.199 168.017 135.531 168.045 134.817 168.412C134.386 168.634 134.005 168.934 133.675 169.313C133.337 169.718 133.083 170.184 132.914 170.712C132.728 171.248 132.647 171.846 132.67 172.505L136.828 180.6L133.491 182.314L128.706 172.999C128.527 172.65 128.341 172.431 128.148 172.341C127.938 172.26 127.684 172.275 127.385 172.387L125.99 169.672C126.297 169.452 126.562 169.274 126.786 169.138C126.984 168.994 127.175 168.875 127.358 168.781C127.956 168.474 128.514 168.355 129.032 168.425C129.542 168.519 129.954 168.79 130.268 169.238L130.88 170.245C131.009 169.067 131.411 168.011 132.085 167.077C132.768 166.159 133.658 165.419 134.754 164.856C136.099 164.165 137.342 164.072 138.482 164.578C139.632 165.099 140.637 166.199 141.499 167.876Z" fill="#FF4C00"/>
<path d="M115.095 173.59C115.362 173.374 115.686 173.121 116.066 172.831C116.447 172.542 116.875 172.277 117.349 172.038C117.799 171.786 118.275 171.585 118.776 171.435C119.437 171.237 120.08 171.171 120.704 171.237C121.328 171.303 121.885 171.536 122.375 171.935C122.852 172.357 123.214 172.979 123.46 173.802L125.879 181.875L127.73 181.32L128.558 184.083L126.707 184.638L128.074 189.197L124.48 190.274L123.113 185.715L120.163 186.599L119.335 183.836L122.285 182.952L120.228 176.086C120.065 175.608 119.827 175.3 119.512 175.16C119.197 175.021 118.852 175.007 118.477 175.12C118.101 175.232 117.753 175.405 117.433 175.637C117.113 175.869 116.859 176.062 116.672 176.216L115.095 173.59Z" fill="#FF4C00"/>
<path d="M106.506 173.813C107.674 173.677 108.753 173.749 109.744 174.028C110.737 174.326 111.607 174.78 112.355 175.388C113.104 176.015 113.716 176.752 114.19 177.599C114.648 178.467 114.935 179.401 115.051 180.403C115.213 181.793 115.054 183.099 114.576 184.32C114.079 185.542 113.296 186.564 112.226 187.383C111.139 188.224 109.808 188.735 108.232 188.918C106.638 189.103 105.234 188.909 104.021 188.336C102.81 187.782 101.841 186.964 101.114 185.883C100.371 184.823 99.9231 183.635 99.7702 182.318C99.7443 182.096 99.7267 181.863 99.7172 181.62C99.7099 181.395 99.7069 181.208 99.7082 181.057L110.973 179.749C110.812 179.016 110.524 178.392 110.107 177.876C109.671 177.363 109.158 176.99 108.567 176.758C107.96 176.547 107.332 176.479 106.683 176.554C105.942 176.641 105.267 176.897 104.659 177.325C104.034 177.773 103.636 178.308 103.464 178.93L100.162 178.411C100.428 177.629 100.862 176.911 101.462 176.259C102.045 175.609 102.761 175.065 103.613 174.628C104.466 174.209 105.43 173.937 106.506 173.813ZM111.331 182.103L103.71 182.988C103.87 183.721 104.158 184.336 104.572 184.833C104.971 185.351 105.465 185.725 106.056 185.958C106.649 186.208 107.288 186.294 107.974 186.214C108.642 186.136 109.235 185.908 109.755 185.528C110.258 185.169 110.654 184.691 110.942 184.093C111.213 183.517 111.343 182.854 111.331 182.103Z" fill="#FF4C00"/>
<path d="M93.0974 189.146L90.4176 184.309L90.2371 183.788L89.9154 184.267L86.4852 188.583L82.5514 188.249L88.2484 181.399L83.7112 173.623L87.645 173.957L90.4108 178.773L90.6215 179.269L90.8851 178.813L94.3966 174.531L98.3304 174.866L92.552 181.681L97.0033 189.478L93.0974 189.146Z" fill="#FF4C00"/>
<path d="M73.8873 177.105L72.7449 180.294L64.7578 177.434L65.9002 174.244L73.8873 177.105Z" fill="#FF4C00"/>
<path d="M53.766 160.264C54.7473 160.945 55.5171 161.719 56.0755 162.584C56.6232 163.464 56.9708 164.387 57.1181 165.353C57.2549 166.334 57.2157 167.307 57.0007 168.271C56.7703 169.225 56.3676 170.116 55.7927 170.943C55.0048 172.078 54.0332 172.937 52.8777 173.521C51.6963 174.11 50.4333 174.358 49.0888 174.265C47.7442 174.172 46.4203 173.673 45.117 172.768C43.8138 171.863 42.8915 170.802 42.3501 169.586C41.8088 168.369 41.6275 167.141 41.8064 165.901L45.458 167.074C45.4099 167.699 45.5207 168.276 45.7903 168.804C46.0492 169.348 46.4394 169.8 46.9607 170.162C47.5433 170.567 48.1864 170.786 48.89 170.82C49.5676 170.859 50.236 170.698 50.8953 170.338C51.5439 169.993 52.1184 169.46 52.6189 168.74C53.1086 168.034 53.4072 167.31 53.5145 166.566C53.5958 165.827 53.5106 165.132 53.2589 164.48C52.9965 163.843 52.574 163.322 51.9914 162.918C51.6234 162.662 51.2358 162.484 50.8287 162.383C50.4062 162.272 49.9901 162.233 49.5804 162.266C49.1706 162.3 48.8086 162.412 48.4943 162.603L46.1203 159.591C46.8115 159.185 47.5905 158.93 48.4572 158.827C49.3085 158.714 50.1904 158.77 51.1026 158.994C51.9889 159.223 52.8767 159.646 53.766 160.264Z" fill="#FF4C00"/>
<path d="M42.4009 150.385C43.2239 151.251 43.8213 152.164 44.1929 153.124C44.5511 154.097 44.7046 155.072 44.6533 156.047C44.5892 157.01 44.3479 157.934 43.9292 158.821C43.5105 159.709 42.9358 160.499 42.2052 161.194C41.461 161.901 40.6352 162.441 39.7279 162.814C38.8206 163.187 37.8848 163.381 36.9205 163.396C35.9434 163.398 34.9849 163.189 34.0449 162.769C33.0914 162.362 32.2031 161.725 31.3801 160.859C30.5571 159.993 29.973 159.08 29.6277 158.121C29.256 157.161 29.0958 156.193 29.147 155.217C29.1983 154.241 29.4396 153.317 29.8712 152.443C30.2898 151.556 30.8713 150.759 31.6155 150.051C32.3461 149.357 33.1651 148.823 34.0725 148.45C34.9669 148.064 35.9027 147.87 36.8798 147.868C37.8441 147.853 38.803 148.049 39.7565 148.456C40.6964 148.876 41.5779 149.519 42.4009 150.385ZM39.5433 158.393C40.1657 157.801 40.6047 157.152 40.8604 156.446C41.1025 155.752 41.1595 155.067 41.0315 154.391C40.9035 153.714 40.5887 153.112 40.0872 152.584C39.5985 152.07 39.0196 151.732 38.3503 151.569C37.6675 151.42 36.9736 151.449 36.2686 151.655C35.5371 151.861 34.8602 152.26 34.2378 152.851C33.6289 153.43 33.2031 154.079 32.9603 154.799C32.7047 155.506 32.6408 156.197 32.7689 156.874C32.8969 157.55 33.2052 158.146 33.6939 158.66C34.1954 159.188 34.7876 159.526 35.4704 159.676C36.1396 159.838 36.8335 159.809 37.5521 159.59C38.2571 159.384 38.9209 158.984 39.5433 158.393Z" fill="#FF4C00"/>
<path d="M24.6358 123.363L26.3871 126.681L19.1068 130.523C18.0833 131.063 17.428 131.641 17.1409 132.257C16.8286 132.865 16.838 133.483 17.1691 134.11C17.5089 134.754 18.0915 135.238 18.9169 135.562C19.7171 135.879 20.5871 135.947 21.5267 135.768L29.0793 131.782L30.8306 135.1L23.5503 138.943C22.5103 139.491 21.8467 140.074 21.5597 140.69C21.2639 141.289 21.2815 141.902 21.6126 142.53C21.9524 143.174 22.5268 143.662 23.3357 143.995C24.1359 144.311 25.0058 144.38 25.9454 144.201L33.5228 140.201L35.2741 143.52L22.2984 150.368L20.717 147.372L23.119 146.104C22.0157 146.053 21.0234 145.732 20.142 145.142C19.2441 144.561 18.512 143.733 17.9457 142.66C17.3793 141.587 17.2035 140.614 17.4181 139.741C17.624 138.852 18.0713 138.119 18.7601 137.545C17.5898 137.487 16.5601 137.176 15.671 136.611C14.7566 136.038 14.0293 135.24 13.4891 134.216C13.0622 133.407 12.8666 132.677 12.9023 132.025C12.9129 131.365 13.0917 130.764 13.4389 130.222C13.7695 129.689 14.2141 129.211 14.7726 128.79C15.3225 128.352 15.911 127.967 16.5384 127.636L24.6358 123.363Z" fill="#FF4C00"/>
<path d="M22.7085 111.552C22.9346 112.668 22.8878 113.706 22.5681 114.666C22.2264 115.611 21.6738 116.409 20.9103 117.059L29.2802 115.363L30.0254 119.04L9.80044 123.139L9.14981 119.928L11.6196 119.427C10.6668 119.049 9.86734 118.487 9.22114 117.742C8.55664 117.001 8.11503 116.09 7.8963 115.011C7.69981 114.041 7.7121 113.115 7.93318 112.232C8.15054 111.331 8.54565 110.508 9.11851 109.764C9.67308 109.023 10.3652 108.397 11.1949 107.886C12.0027 107.36 12.9188 106.994 13.9433 106.786C15.3337 106.504 16.6516 106.523 17.8971 106.842C19.1389 107.143 20.1947 107.7 21.0643 108.514C21.912 109.314 22.4601 110.326 22.7085 111.552ZM19.8303 113.421C19.7154 112.854 19.4926 112.366 19.1621 111.956C18.8316 111.547 18.4317 111.219 17.9625 110.971C17.4713 110.709 16.9529 110.547 16.4073 110.486C15.8396 110.411 15.2723 110.431 14.7051 110.546C14.1014 110.668 13.5638 110.882 13.0923 111.187C12.6171 111.473 12.2245 111.839 11.9145 112.282C11.5861 112.73 11.3622 113.223 11.2428 113.761C11.1197 114.281 11.1155 114.825 11.2305 115.392C11.3009 115.74 11.4372 116.084 11.6394 116.424C11.8196 116.749 12.0529 117.054 12.3392 117.339C12.6254 117.624 12.9409 117.864 13.2855 118.061C13.6264 118.24 13.9818 118.349 14.3516 118.388L17.727 117.704C18.2131 117.377 18.6386 116.986 19.0035 116.531C19.3647 116.058 19.6234 115.548 19.7794 115.003C19.9171 114.46 19.9341 113.933 19.8303 113.421Z" fill="#FF4C00"/>
<path d="M15.5788 102.724L6.39811 102.476L6.49946 98.7251L14.8684 98.9512C15.988 98.9815 16.8426 98.7992 17.4321 98.4043C18.003 98.0089 18.2993 97.41 18.321 96.6077C18.3341 96.1225 18.2537 95.6441 18.0797 95.1726C17.8875 94.6819 17.6008 94.2353 17.2195 93.8329C16.8388 93.4118 16.3536 93.0532 15.7641 92.7572L6.66739 92.5113L6.76875 88.7607L17.2369 89.0436C17.6288 89.0542 17.9104 88.9964 18.0819 88.8704C18.2539 88.7256 18.3628 88.4952 18.4087 88.1789L21.4596 88.2614C21.5055 88.6361 21.5342 88.9543 21.5458 89.2161C21.5766 89.4597 21.5892 89.6841 21.5837 89.8893C21.5655 90.5611 21.4014 91.1075 21.0912 91.5286C20.7629 91.9306 20.3272 92.1616 19.784 92.2216L18.6062 92.2738C19.5775 92.9536 20.3105 93.8137 20.8053 94.8541C21.2813 95.894 21.5027 97.0298 21.4695 98.2613C21.4286 99.7728 20.9124 100.907 19.921 101.665C18.9108 102.422 17.4634 102.775 15.5788 102.724Z" fill="#FF4C00"/>
<path d="M23.1996 76.8574C23.262 77.1949 23.3293 77.6001 23.4014 78.0731C23.4734 78.5461 23.5013 79.048 23.4849 79.5786C23.4906 80.0949 23.4396 80.6088 23.3319 81.1202C23.1896 81.796 22.9401 82.3921 22.5834 82.9083C22.2267 83.4246 21.756 83.8023 21.1715 84.0417C20.5725 84.2589 19.8529 84.2791 19.0127 84.1021L10.7656 82.3652L10.3675 84.2558L7.54537 83.6614L7.94352 81.7709L3.2857 80.79L4.05891 77.1185L8.71674 78.0994L9.35147 75.0856L12.1736 75.6799L11.5388 78.6938L18.553 80.171C19.05 80.2566 19.435 80.1946 19.7081 79.985C19.9811 79.7755 20.158 79.4789 20.2388 79.0953C20.3196 78.7117 20.3345 78.3238 20.2836 77.9316C20.2327 77.5393 20.1846 77.224 20.1395 76.9855L23.1996 76.8574Z" fill="#FF4C00"/>
<path d="M26.9696 69.4498C26.5318 70.5413 25.9538 71.4558 25.2355 72.1935C24.5 72.9242 23.6866 73.4728 22.7954 73.8394C21.8869 74.199 20.9474 74.3853 19.9768 74.3983C18.9958 74.387 18.0376 74.1937 17.102 73.8184C15.8027 73.2972 14.7306 72.5354 13.8857 71.5328C13.0478 70.5129 12.5238 69.3373 12.3136 68.0061C12.0931 66.6505 12.2781 65.2365 12.8688 63.7638C13.4664 62.2739 14.3063 61.1325 15.3886 60.3398C16.4535 59.5401 17.6342 59.0784 18.9307 58.9549C20.2169 58.807 21.475 58.9798 22.705 59.4732C22.9129 59.5566 23.126 59.6521 23.3443 59.7598C23.5453 59.8605 23.7116 59.9473 23.8432 60.0202L19.6217 70.5451C20.3425 70.7538 21.0288 70.7978 21.6805 70.6771C22.3393 70.539 22.9115 70.2657 23.3971 69.8572C23.8724 69.4243 24.2317 68.9047 24.4749 68.2984C24.7529 67.6054 24.8489 66.8897 24.7629 66.1513C24.6666 65.3886 24.3864 64.7834 23.9223 64.3358L25.9526 61.6808C26.5136 62.288 26.9375 63.0111 27.2244 63.8502C27.5183 64.672 27.6544 65.5612 27.6327 66.5179C27.5936 67.4677 27.3726 68.445 26.9696 69.4498ZM17.3815 69.7371L20.2375 62.6165C19.5167 62.4079 18.8391 62.3674 18.2046 62.495C17.5598 62.5984 16.9945 62.8544 16.5089 63.2629C16.0059 63.6646 15.6258 64.1859 15.3687 64.8269C15.1186 65.4506 15.0365 66.0814 15.1226 66.7193C15.1982 67.3329 15.4299 67.9085 15.8176 68.4462C16.195 68.9595 16.7163 69.3898 17.3815 69.7371Z" fill="#FF4C00"/>
<path d="M19.8442 50.3059L25.3734 50.2738L25.9173 50.3653L25.6517 49.8536L23.5086 44.7734L25.6886 41.4819L28.9674 49.7659L37.9673 49.5137L35.7872 52.8052L30.235 52.9228L29.699 52.8701L29.9721 53.3197L32.0455 58.4544L29.8655 61.7459L26.6564 53.4073L17.6796 53.5741L19.8442 50.3059Z" fill="#FF4C00"/>
<path d="M39.5703 39.1385L37.3087 36.6159L43.6257 30.9525L45.8873 33.4752L39.5703 39.1385Z" fill="#FF4C00"/>
<path d="M63.6985 29.5655C62.6338 30.1074 61.5883 30.4196 60.5621 30.5021C59.5274 30.568 58.5497 30.4372 57.6291 30.1099C56.6999 29.7659 55.8616 29.271 55.114 28.6252C54.383 27.971 53.7889 27.1947 53.3316 26.2963C52.705 25.0653 52.408 23.8027 52.4404 22.5085C52.4811 21.1891 52.8605 19.9592 53.5786 18.8187C54.2967 17.6782 55.3628 16.7481 56.7768 16.0284C58.1909 15.3087 59.5619 14.9983 60.89 15.0973C62.2181 15.1963 63.3857 15.6179 64.3928 16.362L61.6319 19.024C61.1035 18.6855 60.5429 18.51 59.9501 18.4976C59.3489 18.4685 58.7654 18.5979 58.1998 18.8858C57.5676 19.2076 57.0701 19.6703 56.7071 20.274C56.3522 20.8525 56.1775 21.5175 56.1829 22.2688C56.1798 23.0034 56.3773 23.7617 56.7752 24.5436C57.1647 25.3088 57.6616 25.9147 58.2659 26.3612C58.8783 26.7825 59.5313 27.0366 60.2248 27.1235C60.9099 27.1937 61.5685 27.068 62.2006 26.7462C62.5999 26.543 62.9403 26.2859 63.2219 25.975C63.5202 25.6556 63.7514 25.3075 63.9157 24.9307C64.08 24.5538 64.1524 24.1818 64.1331 23.8147L67.9101 23.149C67.9409 23.9502 67.7964 24.7568 67.4766 25.5689C67.1735 26.3725 66.7072 27.123 66.0777 27.8204C65.4564 28.4927 64.6633 29.0744 63.6985 29.5655Z" fill="#FF4C00"/>
<path d="M78.1267 24.0852C76.9724 24.3933 75.8849 24.4807 74.864 24.3475C73.8383 24.1963 72.9093 23.8646 72.0771 23.3526C71.2629 22.8357 70.5666 22.1812 69.988 21.3889C69.4095 20.5967 68.9902 19.7136 68.7302 18.7397C68.4655 17.7477 68.3865 16.7642 68.4933 15.789C68.6 14.8138 68.8776 13.8993 69.3259 13.0454C69.7922 12.1868 70.4347 11.4454 71.2534 10.8211C72.0673 10.1788 73.0514 9.70361 74.2056 9.39551C75.3599 9.08741 76.4409 9.01139 77.4485 9.16747C78.4694 9.30069 79.396 9.62332 80.2282 10.1353C81.0604 10.6474 81.7567 11.3019 82.3173 12.099C82.8958 12.8913 83.3175 13.7834 83.5822 14.7753C83.8422 15.7492 83.9188 16.7238 83.812 17.6989C83.7233 18.6693 83.4457 19.5838 82.9794 20.4425C82.5311 21.2963 81.9 22.0444 81.0861 22.6867C80.2674 23.3109 79.2809 23.7771 78.1267 24.0852ZM72.4635 17.7432C72.685 18.5728 73.0447 19.2689 73.5426 19.8315C74.0357 20.3761 74.61 20.7541 75.2654 20.9656C75.9207 21.1771 76.6001 21.1889 77.3035 21.0012C77.9888 20.8182 78.5629 20.4718 79.0257 19.9619C79.4837 19.4339 79.7908 18.811 79.9469 18.0931C80.1163 17.3523 80.0902 16.5672 79.8688 15.7375C79.6522 14.926 79.2859 14.2413 78.7699 13.6835C78.2719 13.1208 77.6953 12.7338 77.0399 12.5223C76.3845 12.3109 75.7142 12.2966 75.0288 12.4795C74.3255 12.6673 73.7448 13.0251 73.2868 13.5531C72.824 14.0631 72.5169 14.686 72.3656 15.4219C72.2094 16.1398 72.2421 16.9135 72.4635 17.7432Z" fill="#FF4C00"/>
<path d="M110.428 21.4008L106.677 21.3429L106.804 13.1118C106.822 11.9547 106.63 11.1022 106.227 10.5546C105.844 9.98865 105.298 9.70018 104.589 9.68923C103.861 9.67799 103.156 9.95648 102.475 10.5247C101.814 11.0746 101.336 11.8046 101.041 12.7148L100.91 21.2538L97.1581 21.1959L97.2852 12.9649C97.3033 11.789 97.1113 10.9273 96.709 10.3797C96.3254 9.83234 95.779 9.5532 95.0697 9.54225C94.3418 9.53101 93.6376 9.80017 92.957 10.3497C92.2951 10.8996 91.8171 11.6296 91.523 12.5398L91.3907 21.1068L87.6392 21.0489L87.8657 6.37864L91.2533 6.43095L91.2114 9.14663C91.786 8.20339 92.5438 7.487 93.4848 6.99748C94.4261 6.48928 95.5034 6.24455 96.7166 6.26328C97.9298 6.28202 98.8677 6.5952 99.5304 7.20284C100.212 7.81077 100.639 8.55478 100.812 9.43489C101.425 8.43624 102.193 7.68267 103.115 7.17418C104.057 6.64733 105.106 6.39283 106.263 6.4107C107.178 6.42482 107.913 6.60418 108.467 6.94879C109.041 7.27502 109.482 7.72055 109.791 8.28539C110.1 8.83155 110.305 9.4508 110.406 10.1431C110.526 10.8357 110.581 11.5366 110.57 12.2459L110.428 21.4008Z" fill="#FF4C00"/>
<path d="M121.423 25.1614C120.334 24.8304 119.443 24.2963 118.75 23.559C118.08 22.8093 117.64 21.9442 117.431 20.9637L114.949 29.1349L111.359 28.0443L117.357 8.29934L120.492 9.2516L119.759 11.6628C120.545 11.004 121.419 10.5672 122.381 10.3524C123.349 10.1198 124.36 10.1635 125.414 10.4836C126.361 10.7712 127.17 11.2219 127.842 11.8357C128.532 12.455 129.068 13.1935 129.451 14.0512C129.84 14.8911 130.062 15.7975 130.118 16.7703C130.197 17.7307 130.084 18.711 129.78 19.7112C129.368 21.0687 128.726 22.2196 127.853 23.1642C126.999 24.1142 126.007 24.7786 124.878 25.1573C123.771 25.5235 122.62 25.5249 121.423 25.1614ZM121.146 21.7409C121.699 21.9091 122.235 21.945 122.752 21.8484C123.269 21.7519 123.748 21.556 124.189 21.2607C124.653 20.953 125.041 20.5735 125.354 20.1223C125.69 19.6586 125.942 19.1499 126.11 18.5962C126.289 18.0068 126.356 17.4322 126.312 16.8724C126.285 16.3181 126.15 15.7991 125.907 15.3155C125.669 14.814 125.342 14.3829 124.924 14.0221C124.525 13.6667 124.049 13.4049 123.495 13.2367C123.156 13.1336 122.788 13.0903 122.393 13.1068C122.021 13.1109 121.642 13.1712 121.255 13.2879C120.869 13.4045 120.507 13.5678 120.17 13.7776C119.851 13.9928 119.587 14.2538 119.376 14.5606L118.375 17.8559C118.432 18.439 118.574 18.9991 118.801 19.5363C119.046 20.0789 119.372 20.5485 119.778 20.945C120.19 21.3237 120.645 21.589 121.146 21.7409Z" fill="#FF4C00"/>
<path d="M132.55 23.0103L137.133 15.0519L140.385 16.9244L136.207 24.1792C135.648 25.1498 135.402 25.9882 135.469 26.6946C135.545 27.3849 135.931 27.9303 136.627 28.3309C137.047 28.5731 137.506 28.7298 138.004 28.8009C138.527 28.8652 139.056 28.8253 139.591 28.6813C140.143 28.5465 140.689 28.2902 141.23 27.9124L145.771 20.0267L149.023 21.8992L143.796 30.9738C143.601 31.3135 143.518 31.5888 143.547 31.7995C143.592 32.0197 143.743 32.2251 144 32.4158L142.477 35.0605C142.125 34.9227 141.831 34.7967 141.596 34.6825C141.367 34.5937 141.163 34.4981 140.985 34.3956C140.403 34.0602 140 33.656 139.777 33.1829C139.58 32.703 139.584 32.2098 139.789 31.7035L140.304 30.6425C139.244 31.1737 138.138 31.4096 136.988 31.3501C135.847 31.2745 134.742 30.9292 133.675 30.3144C132.364 29.5598 131.612 28.5663 131.417 27.3338C131.231 26.0852 131.609 24.6441 132.55 23.0103Z" fill="#FF4C00"/>
<path d="M151.578 41.9006C151.251 41.7955 150.863 41.6625 150.412 41.5016C149.962 41.3407 149.507 41.1271 149.047 40.861C148.59 40.6211 148.162 40.3325 147.763 39.9951C147.235 39.5492 146.829 39.0468 146.544 38.4879C146.258 37.929 146.149 37.3355 146.216 36.7074C146.308 36.077 146.632 35.434 147.186 34.7783L152.627 28.3419L151.152 27.0946L153.014 24.8922L154.489 26.1394L157.562 22.5043L160.428 24.9265L157.355 28.5617L159.707 30.5501L157.845 32.7526L155.493 30.7641L150.865 36.2383C150.554 36.6352 150.426 37.0036 150.481 37.3433C150.536 37.6831 150.713 37.9795 151.012 38.2326C151.312 38.4857 151.646 38.6828 152.016 38.8241C152.385 38.9653 152.686 39.0726 152.917 39.1459L151.578 41.9006Z" fill="#FF4C00"/>
<path d="M156.592 48.9836C155.839 48.08 155.309 47.137 155.001 46.1547C154.707 45.1603 154.61 44.184 154.711 43.2256C154.826 42.2553 155.108 41.34 155.558 40.4797C156.033 39.6218 156.659 38.8702 157.433 38.2251C158.509 37.3291 159.688 36.7474 160.972 36.48C162.267 36.227 163.551 36.324 164.822 36.7713C166.12 37.2209 167.277 38.0553 168.292 39.2744C169.319 40.5079 169.925 41.7891 170.109 43.118C170.307 44.4349 170.152 45.6932 169.645 46.8929C169.165 48.095 168.415 49.1201 167.397 49.9683C167.225 50.1117 167.04 50.2539 166.841 50.3948C166.657 50.5239 166.502 50.629 166.375 50.7102L159.117 41.997C158.591 42.5322 158.227 43.1153 158.023 43.7462C157.832 44.3915 157.801 45.0248 157.93 45.6462C158.085 46.2701 158.372 46.833 158.79 47.335C159.268 47.9087 159.852 48.3331 160.543 48.6081C161.26 48.8855 161.925 48.9263 162.539 48.7304L163.912 51.778C163.111 51.9834 162.273 52.0131 161.399 51.8671C160.536 51.7354 159.689 51.4329 158.857 50.9595C158.04 50.4741 157.285 49.8155 156.592 48.9836ZM160.892 40.4092L165.802 46.3041C166.328 45.7688 166.686 45.1917 166.875 44.5728C167.09 43.9562 167.133 43.3372 167.004 42.7157C166.89 42.0824 166.611 41.5003 166.169 40.9696C165.739 40.4533 165.223 40.0815 164.621 39.8543C164.045 39.6296 163.428 39.5601 162.771 39.646C162.14 39.7343 161.514 39.9887 160.892 40.4092Z" fill="#FF4C00"/>
<path d="M176.821 51.7427L174.233 56.6292L173.896 57.0651L174.472 57.0732L179.962 57.5884L181.83 61.0663L172.981 60.0359L168.945 68.0843L167.077 64.6064L169.6 59.6592L169.9 59.2119L169.374 59.2399L163.87 58.6374L162.001 55.1595L170.866 56.2772L174.966 48.2895L176.821 51.7427Z" fill="#FF4C00"/>
<path d="M177.323 74.5017L180.618 73.7153L182.587 81.9676L179.292 82.754L177.323 74.5017Z" fill="#FF4C00"/>
</svg>
