<svg width="100" height="100" fill="none" xmlns="http://www.w3.org/2000/svg"><g clip-path="url(#clip0_187_5839)"><path fill-rule="evenodd" clip-rule="evenodd" d="M50.538 2.15c26.723 0 48.387 21.664 48.387 48.388 0 26.723-21.664 48.386-48.387 48.386-26.724 0-48.387-21.663-48.387-48.387 0-26.723 21.663-48.386 48.387-48.386z" fill="#FF4C00"/><rect x="-1.823" y="-7" width="116" height="131" rx="24" fill="#FF4C00"/><g clip-path="url(#clip1_187_5839)" fill="#fff"><path d="M46.25 32.5a3.75 3.75 0 00-3.75 3.75v1.25h-8.75A3.75 3.75 0 0030 41.25v3.46l19.035 5.075a3.75 3.75 0 001.93 0L70 44.71v-3.46a3.75 3.75 0 00-3.75-3.75H57.5v-1.25a3.75 3.75 0 00-3.75-3.75h-7.5zm0 2.5h7.5A1.25 1.25 0 0155 36.25v1.25H45v-1.25A1.25 1.25 0 0146.25 35z"/><path d="M30 61.25A3.75 3.75 0 0033.75 65h32.5A3.75 3.75 0 0070 61.25V47.125l-19.678 5.242a1.25 1.25 0 01-.645 0L30 47.126V61.25z"/></g></g><defs><clipPath id="clip0_187_5839"><rect width="100" height="100" rx="8" fill="#fff"/></clipPath><clipPath id="clip1_187_5839"><path fill="#fff" transform="translate(30 30)" d="M0 0h40v40H0z"/></clipPath></defs></svg>