<svg width="100" height="100" fill="none" xmlns="http://www.w3.org/2000/svg"><g clip-path="url(#clip0_661_5196)"><rect x="-1.824" y="-7" width="116" height="131" rx="24" fill="#FF4C00"/><g clip-path="url(#clip1_661_5196)"><path d="M85.158 36.976H69.973v-2.345h15.185v2.345zm0 1.53H69.973v2.35h15.185v-2.35zm-.009-10.64H69.987v5.168H85.15v-5.167zM90 22.313v55.382a1.513 1.513 0 01-1.51 1.506H66.646a1.508 1.508 0 01-1.508-1.508v-55.38a1.51 1.51 0 011.508-1.511H88.49c.835 0 1.511.679 1.511 1.51zm-3.02 1.503H68.154v52.368h18.828V23.815zm-1.822 18.567H69.973v2.343h15.185v-2.343zm-2.47 17.475a4.873 4.873 0 01-4.875 4.879 4.875 4.875 0 01-4.879-4.879 4.88 4.88 0 014.88-4.876 4.878 4.878 0 014.874 4.876zm-1.76 0a3.119 3.119 0 00-6.236 0 3.116 3.116 0 003.119 3.115 3.115 3.115 0 003.117-3.115zM60.99 31.426v31.39c0 1.892-1.523 3.424-3.396 3.424H40.635s-.962 6.852 5.142 6.852v3.428H25.215v-3.423c5.879 0 5.142-6.853 5.142-6.853H13.405A3.414 3.414 0 0110 62.821V31.426a3.408 3.408 0 013.405-3.417h44.186a3.405 3.405 0 013.399 3.416zM38.664 62.05a2.936 2.936 0 00-2.938-2.935 2.939 2.939 0 100 5.876 2.939 2.939 0 002.938-2.94zM57.35 31.64H13.645v26.47h43.702l.003-26.467zM35.756 60.214a1.825 1.825 0 100 3.65 1.825 1.825 0 000-3.65z" fill="#fff"/></g></g><defs><clipPath id="clip0_661_5196"><rect width="100" height="100" rx="8" fill="#fff"/></clipPath><clipPath id="clip1_661_5196"><path fill="#fff" transform="translate(10 10)" d="M0 0h80v80H0z"/></clipPath></defs></svg>