<svg width="100" height="100" fill="none" xmlns="http://www.w3.org/2000/svg"><g clip-path="url(#clip0_187_5816)"><path fill-rule="evenodd" clip-rule="evenodd" d="M52 2c27.614 0 50 22.386 50 50s-22.386 50-50 50S2 79.614 2 52 24.386 2 52 2z" fill="#FF4C00"/><rect x="-1.823" y="-7" width="116" height="131" rx="24" fill="#FF4C00"/><g clip-path="url(#clip1_187_5816)" fill="#fff"><path d="M47.73 61.248c-1.56 1.44-3.717 1.764-5.63.843a5.13 5.13 0 01-1.732-1.344l-2.605 5.761a.487.487 0 00.077.532.487.487 0 00.514.157l1.896-.528a2.416 2.416 0 012.826 1.278l.856 1.772c.125.259.36.285.458.283a.487.487 0 00.45-.295l4.143-9.164a3.108 3.108 0 00-1.254.705zm14.507 5.26l-2.605-5.761A5.127 5.127 0 0157.9 62.09c-1.913.922-4.07.599-5.629-.842a3.108 3.108 0 00-1.253-.705l4.143 9.164a.487.487 0 00.45.295.484.484 0 00.457-.283l.856-1.772a2.416 2.416 0 012.826-1.278l1.896.528a.487.487 0 00.515-.157.487.487 0 00.076-.532z"/><path d="M64.283 46.234c-2.164-1.482-2.835-4.423-1.529-6.696.786-1.366.377-2.717-.267-3.525-.645-.807-1.87-1.506-3.377-1.045-2.507.768-5.225-.541-6.188-2.98C52.344 30.522 51.033 30 50 30c-1.034 0-2.344.522-2.923 1.988-.963 2.44-3.68 3.748-6.188 2.98-1.507-.461-2.732.237-3.376 1.045-.645.809-1.053 2.159-.268 3.525 1.306 2.273.635 5.215-1.528 6.696-1.3.89-1.518 2.284-1.288 3.292.23 1.007 1.03 2.168 2.588 2.406 2.592.396 4.473 2.755 4.282 5.37-.114 1.572.84 2.611 1.77 3.06.932.448 2.34.546 3.497-.524A5.048 5.048 0 0150 58.504c1.235 0 2.47.444 3.433 1.334 1.158 1.07 2.565.972 3.496.523.931-.448 1.886-1.487 1.77-3.06-.19-2.614 1.691-4.973 4.283-5.369 1.558-.238 2.359-1.399 2.589-2.406.23-1.008.012-2.402-1.288-3.292zM50 56.244c-5.67 0-10.283-4.613-10.283-10.283 0-5.67 4.613-10.283 10.283-10.283 5.67 0 10.282 4.613 10.282 10.283 0 5.67-4.612 10.283-10.282 10.283z"/><path d="M50 37.594c-4.612 0-8.365 3.753-8.365 8.365 0 4.613 3.752 8.366 8.365 8.366s8.366-3.753 8.366-8.366c0-4.612-3.753-8.365-8.366-8.365zm4.287 7.554l-5.206 3.803a.959.959 0 01-1.35-.223l-1.557-2.218a.959.959 0 011.569-1.102l.996 1.419 4.418-3.227a.959.959 0 011.13 1.548z"/></g></g><defs><clipPath id="clip0_187_5816"><rect width="100" height="100" rx="8" fill="#fff"/></clipPath><clipPath id="clip1_187_5816"><path fill="#fff" transform="translate(30 30)" d="M0 0h40v40H0z"/></clipPath></defs></svg>