<svg width="561" height="298" fill="none" xmlns="http://www.w3.org/2000/svg"><path d="M21.719 192.562h57.968v4.063c0 7.604 1.771 12.76 5.313 15.469 3.646 2.708 11.146 4.062 22.5 4.062h8.594c11.666 0 19.218-1.51 22.656-4.531 3.542-3.021 5.312-9.479 5.312-19.375v-23.125c0-10.104-1.614-16.615-4.843-19.531-3.125-2.917-10.834-4.375-23.125-4.375H107.5c-10.208 0-17.083.885-20.625 2.656-3.542 1.771-5.52 4.896-5.938 9.375H25.626V28.344h166.719v46.093H81.25v40.938c4.27-5.417 9.635-9.479 16.094-12.187 6.562-2.709 14.218-4.063 22.968-4.063h13.438c24.375 0 42.031 5.208 52.969 15.625 10.937 10.417 16.406 27.188 16.406 50.312v33.282c0 24.166-6.042 41.146-18.125 50.937-11.979 9.688-33.125 14.531-63.438 14.531H99.844c-24.896 0-44.167-5.104-57.813-15.312-13.541-10.312-20.312-24.792-20.312-43.438v-12.5z" fill="#FF4C00"/><path d="M246.38 254h-20.894v-78.525h46.407v17.026H246.38v14.985h23.525v17.027H246.38V254zm64.131-78.525c7.125 0 13.051.877 17.778 2.631 4.727 1.719 8.272 4.297 10.635 7.735 2.399 3.437 3.598 7.716 3.598 12.837 0 3.187-.537 6.087-1.611 8.701a22.208 22.208 0 01-4.619 7.036c-1.969 2.041-4.333 3.831-7.09 5.371L352.083 254h-24.062l-16.651-28.574h-5.371V254h-21.216v-78.525h25.728zm-.323 16.059h-4.189v17.94h3.975c3.258 0 5.926-.717 8.003-2.149 2.076-1.432 3.115-3.992 3.115-7.68 0-2.543-.86-4.53-2.578-5.962-1.719-1.433-4.494-2.149-8.326-2.149zM405.848 254h-46.621v-78.525h46.621v17.026h-25.406v12.353h23.526v17.027h-23.526v14.824h25.406V254zm60.371 0h-46.621v-78.525h46.621v17.026h-25.406v12.353h23.526v17.027h-23.526v14.824h25.406V254z" fill="#D5D5D5"/></svg>