<svg width="162" height="50" fill="none" xmlns="http://www.w3.org/2000/svg"><path fill-rule="evenodd" clip-rule="evenodd" d="M143.748 28.09l-7.949 11.869h-6.981l11.631-16.22 3.299-4.029 5.391-8.14h6.418l-8.558 12.109 11.929 16.28h-6.98l-8.2-11.87z" fill="#2B2A29"/><path fill-rule="evenodd" clip-rule="evenodd" d="M157.004.693c-5.571-3.215-16.376 5.057-24.122 18.48-7.745 13.423-9.514 26.918-3.944 30.134 5.57 3.215 16.375-5.057 24.121-18.48 7.746-13.423 9.515-26.918 3.945-30.134zm-23.691 18.73c7.171-12.417 16.997-20.175 21.945-17.33 4.949 2.857 3.144 15.252-4.028 27.671-7.172 12.42-16.997 20.177-21.946 17.332-4.948-2.857-3.143-15.24 4.029-27.671z" fill="url(#paint0_radial_187_5725)"/><path fill-rule="evenodd" clip-rule="evenodd" d="M143.748 28.09l-7.949 11.869h-6.981l11.631-16.22-9.061-12.169h6.431l5.929 8.14 5.391-8.14h6.418l-8.558 12.109-3.251 4.41z" fill="#2B2A29"/><path fill-rule="evenodd" clip-rule="evenodd" d="M155.736 17.535a5.74 5.74 0 00-5.738 5.738 5.74 5.74 0 005.738 5.737 5.739 5.739 0 005.737-5.737 5.739 5.739 0 00-5.737-5.738z" fill="url(#paint1_linear_187_5725)"/><path d="M3.753 23.31c.048 2.055.813 3.8 2.295 5.211 1.482 1.41 3.251 2.128 5.32 2.128.537 0 1.099-.06 1.685-.168a9.12 9.12 0 001.745-.538c.406-.179.825-.394 1.243-.645a13.49 13.49 0 001.243-.849l1.972 2.474a10.97 10.97 0 01-3.227 2.057c-1.183.49-2.39.8-3.634.932-.203.024-.418.036-.645.048-.227.012-.454.012-.681.012-2.81 0-5.343-.909-7.603-2.738C1.207 29.417.048 26.776 0 23.334c0-3.443 1.1-6.109 3.311-7.997 2.211-1.889 4.745-2.833 7.626-2.833a12.134 12.134 0 012.247.203c1.04.18 2.068.49 3.096.932a13.561 13.561 0 012.917 1.746L17.63 17.93a11.853 11.853 0 00-1.16-.801 11.271 11.271 0 00-1.183-.634 10.884 10.884 0 00-2.032-.717 8.886 8.886 0 00-1.972-.239c-2.08 0-3.861.717-5.32 2.152-1.482 1.47-2.21 3.334-2.21 5.617zM28.89 34.08c-2.33-.025-4.338-.79-6.024-2.308-1.685-1.518-2.534-3.562-2.534-6.144l.036-.035c0-2.558.86-4.555 2.57-5.977 1.71-1.422 3.646-2.14 5.821-2.14h.131c2.2.024 4.16.742 5.893 2.152 1.733 1.41 2.606 3.407 2.63 5.965v.035c0 2.51-.837 4.543-2.51 6.084-1.673 1.542-3.67 2.307-5.977 2.307l-.035.06zm-.035-2.547c1.422 0 2.665-.526 3.705-1.578 1.04-1.051 1.566-2.414 1.566-4.088 0-1.673-.49-3.06-1.482-4.147-.98-1.088-2.247-1.626-3.79-1.626h-.035c-1.542.024-2.785.562-3.753 1.626-.969 1.064-1.447 2.45-1.447 4.147 0 1.674.514 3.037 1.542 4.088 1.04 1.052 2.26 1.578 3.694 1.578zm24.073-9.407v11.51h-2.952V22.868c0-.86-.37-1.554-1.1-2.092-.741-.537-1.59-.8-2.57-.8a4.577 4.577 0 00-1.123.143c-.526.132-1.04.37-1.542.717a4.869 4.869 0 00-1.34 1.327v11.475H39.35V17.883h2.953v1.422c.131-.107.275-.215.406-.322.132-.108.275-.204.407-.287a6.963 6.963 0 012.056-1.016 7.51 7.51 0 012.127-.311c1.016.024 1.925.215 2.713.597.79.371 1.435.92 1.937 1.65a7.878 7.878 0 011.936-1.279 9.136 9.136 0 012.032-.657 9.934 9.934 0 012.032-.204c1.518 0 2.81.455 3.885 1.363 1.076.909 1.638 2.008 1.686 3.3v11.51h-2.953V22.783c0-.812-.37-1.482-1.1-1.984-.74-.514-1.566-.765-2.498-.765-.155 0-.31 0-.454.012a2.144 2.144 0 00-.454.084 4.898 4.898 0 00-1.686.645c-.55.335-1.04.777-1.446 1.351zm16.579 11.176v8.116h-2.953V17.883h2.953v.753a9.888 9.888 0 012.104-.765 9.649 9.649 0 012.175-.251c2.032 0 3.873.67 5.522 2.008 1.638 1.339 2.463 3.31 2.463 5.905 0 2.677-.79 4.721-2.355 6.144-1.578 1.422-3.586 2.14-6.024 2.14-.586 0-1.208-.037-1.865-.12a15.444 15.444 0 01-2.02-.395zm0-11.762v8.87c.502.25 1.04.442 1.614.597a7.19 7.19 0 001.745.215c1.398 0 2.677-.43 3.837-1.29 1.16-.861 1.733-2.26 1.733-4.208 0-1.829-.514-3.192-1.53-4.076a5.232 5.232 0 00-3.538-1.327c-.203 0-.419.012-.646.036-.227.024-.442.06-.645.108a7.397 7.397 0 00-1.327.406 8.39 8.39 0 00-1.243.67zm25.567 12.097l-.035-1.327a14.09 14.09 0 01-2.94 1.088c-.945.227-1.806.334-2.595.334-1.793 0-3.215-.466-4.267-1.41-1.052-.944-1.578-2.032-1.578-3.275V17.87h2.965v10.052c0 1.196.37 2.068 1.1 2.618.74.538 1.59.813 2.57.813.203 0 .418-.012.633-.036a7.853 7.853 0 002.522-.753 6.409 6.409 0 001.602-1.088l.035-11.618h2.953v15.754l-2.965.024z" fill="#EF7F1A"/><path fill-rule="evenodd" clip-rule="evenodd" d="M103.059 30.54V20.32h-2.175v-2.45h2.175v-2.307l2.953-.848v3.155h5.809v2.45h-5.809v9.276c0 .502.215.873.657 1.136.442.263.98.394 1.614.394.251 0 .514-.012.777-.047a3.97 3.97 0 00.812-.192c.323-.095.634-.203.933-.322.311-.12.609-.275.896-.455l1.387 2.14a10.67 10.67 0 01-1.697.837 9.456 9.456 0 01-1.865.526 11.126 11.126 0 01-2.116.203c-1.135 0-2.127-.251-2.976-.753-.813-.502-1.279-1.339-1.375-2.522zm27.444-5.39h-13.889v.239a.267.267 0 00-.036.12v.119c0 .203.012.418.036.634.024.215.06.43.108.657.274 1.135.86 2.175 1.769 3.12.908.956 2.079 1.434 3.538 1.458h.167c1.267 0 2.367-.275 3.299-.813.932-.538 1.793-1.303 2.582-2.271l2.104 2.008c-1.112 1.315-2.319 2.247-3.634 2.785-1.315.538-2.737.813-4.279.813l-.335.036c-2.809-.096-4.937-1.004-6.407-2.737-1.458-1.734-2.187-3.694-2.187-5.893 0-.132 0-.275.012-.43.012-.144.024-.3.048-.455.203-1.769 1.016-3.383 2.45-4.853 1.422-1.47 3.454-2.211 6.084-2.211 2.761 0 4.865.789 6.323 2.355 1.423 1.578 2.188 3.347 2.247 5.319zm-8.486-5.271h-.072c-.275 0-.55.023-.837.071a5.604 5.604 0 00-.86.204 6.27 6.27 0 00-1.745.92 4.25 4.25 0 00-1.303 1.566h9.718a4.6 4.6 0 00-1.303-1.494 6.288 6.288 0 00-1.746-.92 4.999 4.999 0 00-.896-.252 4.546 4.546 0 00-.861-.084l-.095-.011z" fill="#2B2A29"/><defs><radialGradient id="paint0_radial_187_5725" cx="0" cy="0" r="1" gradientUnits="userSpaceOnUse" gradientTransform="translate(145.738 14.999) scale(25.0012)"><stop stop-color="#FFED00"/><stop offset="1" stop-color="#EF7F1A"/></radialGradient><linearGradient id="paint1_linear_187_5725" x1="149.989" y1="23.275" x2="161.471" y2="23.275" gradientUnits="userSpaceOnUse"><stop stop-color="#EF7F1A"/><stop offset=".988" stop-color="#FFD300"/><stop offset="1" stop-color="#FFED00"/></linearGradient></defs></svg>