<svg width="80" height="80" fill="none" xmlns="http://www.w3.org/2000/svg"><rect width="80" height="80" rx="40" fill="#FF4C00"/><path d="M36.875 58.75s-3.125 0-3.125-3.125 3.125-12.5 15.625-12.5S65 52.5 65 55.625s-3.125 3.125-3.125 3.125h-25zM49.375 40a9.375 9.375 0 100-18.75 9.375 9.375 0 000 18.75zM31.3 58.75a7 7 0 01-.675-3.125c0-4.234 2.125-8.594 6.05-11.625-1.959-.605-4-.9-6.05-.875-12.5 0-15.625 9.375-15.625 12.5s3.125 3.125 3.125 3.125H31.3zM29.062 40a7.813 7.813 0 100-15.626 7.813 7.813 0 000 15.626z" fill="#fff"/></svg>