<svg width="80" height="80" fill="none" xmlns="http://www.w3.org/2000/svg"><rect width="80" height="80" rx="40" fill="#FF4C00"/><g clip-path="url(#clip0_722_5289)"><path d="M15.319 21.947a9.388 9.388 0 0011.493 11.481l19.816 19.538A9.383 9.383 0 0055.625 65a9.374 9.374 0 10-2.66-18.369L33.429 26.816a9.388 9.388 0 00-11.481-11.503l6.69 6.693L27.5 27.5l-5.49 1.137-6.691-6.69zM57.1 50.13l1.65.081.897 1.391 1.39.897.082 1.653.756 1.472-.756 1.472-.081 1.653-1.391.897-.897 1.39-1.653.082-1.472.756-1.472-.756-1.653-.081-.897-1.391-1.39-.897-.082-1.653-.756-1.472.756-1.472.081-1.653 1.391-.897.897-1.39 1.653-.082 1.472-.756 1.475.756z" fill="#fff"/></g><defs><clipPath id="clip0_722_5289"><path fill="#fff" transform="translate(15 15)" d="M0 0h50v50H0z"/></clipPath></defs></svg>