<svg width="196" height="196" fill="none" xmlns="http://www.w3.org/2000/svg"><path d="M173.77 106.875c.128-1.188.439-2.234.931-3.138a7.289 7.289 0 011.933-2.241 8.14 8.14 0 012.618-1.293 7.906 7.906 0 012.925-.218c1.373.148 2.593.59 3.658 1.325a7.236 7.236 0 012.467 2.971c.562 1.225.757 2.627.586 4.204-.171 1.577-.661 2.895-1.47 3.953-.81 1.057-1.801 1.804-2.975 2.24l-.718-3.767a3.193 3.193 0 001.36-1.12 3.436 3.436 0 00.633-1.678 3.63 3.63 0 00-.346-2.009c-.29-.613-.751-1.123-1.383-1.53-.613-.404-1.356-.653-2.228-.748-.854-.092-1.633-.008-2.337.254a4.378 4.378 0 00-1.71 1.223 3.48 3.48 0 00-.765 1.86 3.52 3.52 0 00.087 1.277c.104.424.269.808.495 1.152.225.344.497.608.815.792l-1.509 3.526a5.929 5.929 0 01-1.788-1.686 7.09 7.09 0 01-1.12-2.403c-.223-.888-.276-1.87-.159-2.946zm-3.278 14.928c.373-1.135.894-2.093 1.564-2.875a7.29 7.29 0 012.356-1.79 7.635 7.635 0 012.787-.675 7.891 7.891 0 012.906.395c.975.32 1.842.792 2.6 1.415a7.636 7.636 0 011.842 2.197 6.97 6.97 0 01.809 2.83c.092 1.032-.048 2.116-.421 3.251-.373 1.135-.9 2.082-1.582 2.84a6.934 6.934 0 01-2.33 1.798 7.02 7.02 0 01-2.786.676 7.985 7.985 0 01-2.933-.404 7.904 7.904 0 01-2.573-1.406 7.033 7.033 0 01-1.842-2.197 6.972 6.972 0 01-.844-2.812c-.076-1.027.073-2.108.447-3.243zm8.406-1.274c-.816-.269-1.595-.348-2.339-.239a3.936 3.936 0 00-1.891.823 3.534 3.534 0 00-1.144 1.687 3.483 3.483 0 00-.071 2.01c.191.672.545 1.27 1.061 1.793.527.547 1.199.955 2.015 1.223.798.262 1.571.33 2.32.203.744-.11 1.383-.381 1.919-.814a3.494 3.494 0 001.135-1.661 3.412 3.412 0 00.053-2.045c-.174-.667-.527-1.264-1.061-1.793-.516-.524-1.181-.919-1.997-1.187zM155.1 150.264l2.094-3.113 6.83 4.596c.96.646 1.78.95 2.458.911.683-.013 1.223-.313 1.619-.902.407-.604.557-1.346.452-2.226-.099-.855-.451-1.654-1.053-2.397l-7.085-4.768 2.094-3.112 6.83 4.595c.976.657 1.803.966 2.481.927.668-.023 1.2-.328 1.596-.917.407-.604.565-1.341.476-2.211-.1-.855-.451-1.654-1.054-2.396l-7.108-4.784 2.094-3.113 12.173 8.191-1.892 2.811-2.253-1.516c.477.996.664 2.022.561 3.078-.087 1.066-.469 2.102-1.147 3.109-.677 1.007-1.451 1.622-2.322 1.846a3.943 3.943 0 01-2.57-.143c.503 1.058.716 2.113.639 3.163-.072 1.077-.431 2.095-1.077 3.055-.511.759-1.062 1.277-1.653 1.554a3.384 3.384 0 01-1.843.381 5.285 5.285 0 01-1.892-.498 11.282 11.282 0 01-1.852-1.01l-7.596-5.111zm-9.47 7.271c.872-.732 1.807-1.187 2.803-1.365a5.58 5.58 0 012.894.313l-5.49-6.542 2.874-2.412 13.265 15.808-2.509 2.106-1.62-1.931a6.095 6.095 0 01-.334 2.912c-.334.938-.923 1.761-1.766 2.469-.758.636-1.578 1.068-2.459 1.296a6.513 6.513 0 01-2.735.138 7.42 7.42 0 01-2.642-.927 7.836 7.836 0 01-2.279-1.888c-.912-1.087-1.525-2.254-1.84-3.5-.33-1.235-.344-2.428-.045-3.581.297-1.127.925-2.092 1.883-2.896zm3.017 1.635a3.355 3.355 0 00-.967 1.287 3.812 3.812 0 00-.292 1.524c.004.557.11 1.09.317 1.598.205.535.494 1.024.865 1.467.396.472.841.842 1.334 1.11.479.281.988.451 1.526.511.55.075 1.09.036 1.62-.116a3.766 3.766 0 001.438-.769c.272-.228.509-.512.711-.852.2-.314.356-.664.47-1.052a4.51 4.51 0 00.182-1.176 2.939 2.939 0 00-.223-1.093l-2.213-2.638a5.715 5.715 0 00-1.641-.561 4.574 4.574 0 00-1.713.049 3.52 3.52 0 00-1.414.711zm-7.148 8.706l4.196 8.169-3.338 1.714-3.825-7.447c-.511-.996-1.082-1.657-1.712-1.985-.621-.31-1.289-.282-2.003.085a3.83 3.83 0 00-1.142.901 4.118 4.118 0 00-.761 1.399c-.186.536-.267 1.134-.244 1.793l4.158 8.095-3.337 1.714-4.785-9.315c-.179-.349-.365-.568-.558-.658-.21-.081-.464-.066-.763.046l-1.395-2.715c.307-.22.572-.398.796-.534.198-.144.389-.263.572-.357.598-.307 1.156-.426 1.674-.356.51.094.922.365 1.236.813l.612 1.007a6.535 6.535 0 011.205-3.168c.683-.918 1.573-1.658 2.669-2.221 1.345-.691 2.588-.784 3.728-.278 1.15.521 2.155 1.621 3.017 3.298zm-26.404 5.714c.267-.216.591-.469.971-.759a8.306 8.306 0 011.283-.793 7.05 7.05 0 011.427-.603c.661-.198 1.304-.264 1.928-.198a3.113 3.113 0 011.671.698c.477.422.839 1.044 1.085 1.867l2.419 8.073 1.851-.555.828 2.763-1.851.555 1.367 4.559-3.594 1.077-1.367-4.559-2.95.884-.828-2.763 2.95-.884-2.057-6.866c-.163-.478-.401-.786-.716-.926-.315-.139-.66-.153-1.035-.04a3.442 3.442 0 00-1.044.517c-.32.232-.574.425-.761.579l-1.577-2.626zm-8.589.223c1.168-.136 2.247-.064 3.238.215a7.514 7.514 0 012.611 1.36 7.881 7.881 0 011.835 2.211c.458.868.745 1.802.861 2.804.162 1.39.003 2.696-.475 3.917a7.23 7.23 0 01-2.35 3.063c-1.087.841-2.418 1.352-3.994 1.535-1.594.185-2.998-.009-4.211-.582a6.88 6.88 0 01-2.907-2.453 7.647 7.647 0 01-1.344-3.565 9.103 9.103 0 01-.053-.698c-.007-.225-.01-.412-.009-.563l11.265-1.308c-.161-.733-.449-1.357-.866-1.873a3.85 3.85 0 00-1.54-1.118 4.198 4.198 0 00-1.884-.204 4.34 4.34 0 00-2.024.771c-.625.448-1.023.983-1.195 1.605l-3.302-.519c.266-.782.7-1.5 1.3-2.152a7.369 7.369 0 012.151-1.631c.853-.419 1.817-.691 2.893-.815zm4.825 8.29l-7.621.885c.16.733.448 1.348.862 1.845.399.518.893.892 1.484 1.125a3.74 3.74 0 001.918.256 3.687 3.687 0 001.781-.686 3.694 3.694 0 001.187-1.435c.271-.576.401-1.239.389-1.99zm-18.234 7.043l-2.68-4.837-.18-.521-.322.479-3.43 4.316-3.934-.334 5.697-6.85-4.537-7.776 3.934.334 2.766 4.816.21.496.264-.456 3.512-4.282 3.933.335-5.778 6.815 4.451 7.797-3.906-.332zm-19.21-12.041l-1.142 3.189-7.987-2.86 1.142-3.19 7.987 2.861zm-20.121-16.841c.981.681 1.751 1.455 2.31 2.32a7.28 7.28 0 011.042 2.769 8.138 8.138 0 01-.117 2.918 7.895 7.895 0 01-1.208 2.672c-.788 1.135-1.76 1.994-2.915 2.578a7.224 7.224 0 01-3.79.744c-1.344-.093-2.668-.592-3.971-1.497-1.303-.905-2.225-1.966-2.767-3.182-.541-1.217-.723-2.445-.544-3.685l3.652 1.173a3.193 3.193 0 00.332 1.73c.26.544.65.996 1.17 1.358a3.623 3.623 0 001.93.658c.678.039 1.346-.122 2.005-.482.649-.345 1.223-.878 1.724-1.598.49-.706.788-1.43.895-2.174a4.379 4.379 0 00-.255-2.086 3.485 3.485 0 00-1.268-1.562 3.503 3.503 0 00-1.162-.535 3.711 3.711 0 00-1.249-.117 2.45 2.45 0 00-1.086.337l-2.374-3.012a5.944 5.944 0 012.337-.764 7.102 7.102 0 012.646.167c.886.229 1.774.652 2.663 1.27zM42.4 150.385c.824.866 1.421 1.779 1.793 2.739.358.973.512 1.948.46 2.923a7.63 7.63 0 01-.724 2.774 7.908 7.908 0 01-1.724 2.373 7.987 7.987 0 01-2.477 1.62 7.635 7.635 0 01-2.808.582 6.949 6.949 0 01-2.875-.627c-.954-.407-1.842-1.044-2.665-1.91-.823-.866-1.407-1.779-1.752-2.738a6.957 6.957 0 01-.481-2.904c.051-.976.293-1.9.724-2.774a7.99 7.99 0 011.745-2.392 7.912 7.912 0 012.456-1.601 7.049 7.049 0 012.808-.582c.964-.015 1.923.181 2.877.588.94.42 1.82 1.063 2.644 1.929zm-2.857 8.008c.623-.592 1.062-1.241 1.317-1.947.242-.694.3-1.379.172-2.055a3.538 3.538 0 00-.945-1.807 3.496 3.496 0 00-1.737-1.015 4.156 4.156 0 00-2.081.086c-.732.206-1.409.605-2.031 1.196-.61.579-1.035 1.228-1.278 1.948-.255.707-.32 1.398-.191 2.075a3.49 3.49 0 00.925 1.786 3.417 3.417 0 001.776 1.016c.67.162 1.364.133 2.082-.086.705-.206 1.369-.606 1.991-1.197zm-14.907-35.03l1.751 3.318-7.28 3.842c-1.024.54-1.679 1.118-1.966 1.734-.312.608-.303 1.226.028 1.853.34.644.922 1.128 1.748 1.452.8.317 1.67.385 2.61.206l7.552-3.986 1.752 3.318-7.28 3.843c-1.04.548-1.704 1.131-1.991 1.747-.296.599-.278 1.212.053 1.84.34.644.914 1.132 1.723 1.465.8.316 1.67.385 2.61.206l7.577-4 1.751 3.319-12.976 6.848-1.581-2.996 2.402-1.268a5.723 5.723 0 01-2.977-.962c-.898-.581-1.63-1.409-2.196-2.482-.567-1.073-.743-2.046-.528-2.919a3.939 3.939 0 011.342-2.196c-1.17-.058-2.2-.369-3.089-.934-.914-.573-1.642-1.371-2.182-2.395-.427-.809-.622-1.539-.587-2.191.01-.66.19-1.261.537-1.803a5.292 5.292 0 011.334-1.432 11.28 11.28 0 011.765-1.154l8.098-4.273zm-1.927-11.811c.226 1.116.179 2.154-.14 3.114a5.585 5.585 0 01-1.659 2.393l8.37-1.696.745 3.677L9.8 123.139l-.65-3.211 2.47-.501a6.098 6.098 0 01-2.399-1.685c-.664-.741-1.106-1.652-1.325-2.731-.196-.97-.184-1.896.037-2.779a6.506 6.506 0 011.186-2.468 7.422 7.422 0 012.076-1.878c.808-.526 1.724-.892 2.748-1.1 1.39-.282 2.709-.263 3.954.056 1.242.301 2.298.858 3.167 1.672.848.8 1.396 1.812 1.645 3.038zm-2.879 1.869a3.354 3.354 0 00-.668-1.465 3.82 3.82 0 00-1.2-.985 4.29 4.29 0 00-1.555-.485 5.128 5.128 0 00-1.702.06 4.625 4.625 0 00-1.613.641 3.832 3.832 0 00-1.178 1.095 3.909 3.909 0 00-.671 1.479 3.762 3.762 0 00-.013 1.631c.07.348.207.692.41 1.032.18.325.413.63.7.915a4.5 4.5 0 00.946.722c.34.179.696.288 1.066.327l3.375-.684a5.717 5.717 0 001.276-1.173c.362-.473.62-.983.776-1.528.138-.543.155-1.07.051-1.582zm-4.251-10.697l-9.18-.248.1-3.75 8.37.225c1.119.03 1.974-.152 2.563-.547.571-.395.867-.994.889-1.796a3.814 3.814 0 00-.241-1.435 4.123 4.123 0 00-.86-1.34c-.381-.421-.866-.78-1.456-1.076l-9.097-.246.102-3.75 10.468.283c.392.01.673-.048.845-.174.172-.144.28-.375.327-.691l3.05.082c.047.375.075.693.087.955.03.244.043.468.038.673-.018.672-.183 1.219-.493 1.64-.328.402-.764.633-1.307.693l-1.178.052a6.534 6.534 0 012.2 2.58c.475 1.04.697 2.176.663 3.407-.04 1.512-.557 2.646-1.548 3.404-1.01.757-2.458 1.11-4.342 1.059zM23.2 76.857c.062.338.13.743.201 1.216.072.473.1.975.084 1.506a7.08 7.08 0 01-.153 1.541 4.874 4.874 0 01-.749 1.788 3.115 3.115 0 01-1.411 1.134c-.6.217-1.32.237-2.16.06l-8.246-1.737-.399 1.89-2.822-.594.399-1.89-4.658-.981.773-3.672 4.658.981.634-3.013 2.823.594-.635 3.014 7.014 1.477c.497.086.882.024 1.155-.186s.45-.506.53-.89a3.44 3.44 0 00.046-1.163c-.051-.393-.1-.708-.144-.947l3.06-.128zm3.77-7.407c-.438 1.091-1.016 2.006-1.735 2.743a7.495 7.495 0 01-2.44 1.646 7.884 7.884 0 01-2.818.56 7.906 7.906 0 01-2.875-.58c-1.3-.522-2.371-1.284-3.216-2.286a7.23 7.23 0 01-1.572-3.527c-.22-1.356-.036-2.77.555-4.242.597-1.49 1.437-2.632 2.52-3.424a6.885 6.885 0 013.542-1.385 7.645 7.645 0 013.774.518c.208.084.421.18.64.287a14 14 0 01.498.26l-4.221 10.525c.72.209 1.407.253 2.058.132a3.845 3.845 0 001.717-.82 4.19 4.19 0 001.078-1.559 4.334 4.334 0 00.288-2.147c-.096-.762-.377-1.368-.84-1.815l2.03-2.655c.56.607.985 1.33 1.271 2.17.294.821.43 1.71.409 2.667-.04.95-.26 1.927-.663 2.932zm-9.588.287l2.855-7.12c-.72-.21-1.398-.25-2.032-.122-.645.103-1.21.36-1.696.768a3.739 3.739 0 00-1.14 1.564 3.684 3.684 0 00-.246 1.892c.075.614.307 1.19.695 1.727.377.514.898.944 1.563 1.291zm2.462-19.431l5.53-.032.543.091-.265-.511-2.143-5.08 2.18-3.292 3.278 8.284 9-.252-2.18 3.291-5.552.118-.536-.053.273.45 2.073 5.134-2.18 3.292-3.209-8.339-8.976.167 2.164-3.268zM39.57 39.139l-2.261-2.523 6.317-5.663 2.261 2.522-6.317 5.663zm24.129-9.573c-1.065.541-2.11.854-3.137.936a7.284 7.284 0 01-2.933-.392 8.139 8.139 0 01-2.515-1.485 7.906 7.906 0 01-1.782-2.329c-.627-1.23-.924-2.493-.892-3.787a7.23 7.23 0 011.139-3.69c.718-1.14 1.784-2.07 3.198-2.79 1.414-.72 2.785-1.03 4.113-.932 1.328.1 2.496.52 3.503 1.265l-2.761 2.662a3.194 3.194 0 00-1.682-.526c-.601-.03-1.185.1-1.75.388a3.627 3.627 0 00-1.493 1.388c-.355.578-.53 1.243-.524 1.995-.003.734.194 1.493.592 2.275.39.765.887 1.37 1.49 1.817a4.381 4.381 0 001.96.762 3.488 3.488 0 001.976-.377 3.48 3.48 0 001.02-.771c.3-.32.53-.668.695-1.044.164-.377.236-.75.217-1.116l3.777-.666a5.932 5.932 0 01-.433 2.42 7.086 7.086 0 01-1.4 2.251c-.62.673-1.414 1.254-2.378 1.745zm14.428-5.481c-1.155.308-2.242.396-3.263.262a7.284 7.284 0 01-2.787-.994 7.637 7.637 0 01-2.089-1.964 7.908 7.908 0 01-1.258-2.65 7.985 7.985 0 01-.237-2.95c.107-.975.385-1.89.833-2.744a6.957 6.957 0 011.927-2.224c.814-.642 1.798-1.117 2.953-1.425 1.154-.309 2.235-.385 3.242-.229a6.957 6.957 0 012.78.968 7.034 7.034 0 012.09 1.964c.578.792 1 1.684 1.264 2.676.26.974.337 1.949.23 2.924a7.033 7.033 0 01-.833 2.743c-.448.854-1.079 1.602-1.893 2.245-.819.624-1.805 1.09-2.96 1.398zm-5.663-6.342c.221.83.58 1.526 1.079 2.088a3.927 3.927 0 001.722 1.135 3.537 3.537 0 002.038.035 3.49 3.49 0 001.723-1.04c.458-.527.765-1.15.92-1.868.17-.74.144-1.526-.077-2.355-.217-.812-.583-1.497-1.1-2.054-.497-.563-1.074-.95-1.73-1.162a3.49 3.49 0 00-2.01-.043 3.415 3.415 0 00-1.742 1.074c-.463.51-.77 1.133-.921 1.869-.157.718-.124 1.491.097 2.321zm37.964 3.657l-3.751-.057.127-8.231c.018-1.157-.174-2.01-.577-2.557-.383-.566-.929-.855-1.638-.866-.728-.011-1.433.267-2.114.836-.661.55-1.139 1.28-1.434 2.19l-.131 8.539-3.752-.058.127-8.231c.018-1.176-.174-2.038-.576-2.585-.384-.548-.93-.827-1.64-.838-.727-.011-1.431.258-2.112.808-.662.55-1.14 1.28-1.434 2.19l-.132 8.567-3.752-.058.227-14.67 3.387.052-.042 2.716a5.724 5.724 0 012.274-2.15c.941-.508 2.018-.752 3.232-.734 1.213.019 2.15.332 2.813.94a3.938 3.938 0 011.282 2.232c.613-.999 1.381-1.752 2.303-2.26.942-.528 1.991-.782 3.148-.764.915.014 1.65.193 2.204.538a3.379 3.379 0 011.324 1.336c.309.547.514 1.166.615 1.858.12.693.175 1.394.164 2.103l-.142 9.155zm10.995 3.761c-1.089-.33-1.98-.865-2.673-1.602a5.577 5.577 0 01-1.319-2.595l-2.482 8.17-3.59-1.09L117.357 8.3l3.135.953-.733 2.41a6.107 6.107 0 012.622-1.31c.968-.232 1.979-.188 3.033.132.947.287 1.756.738 2.428 1.352a6.506 6.506 0 011.609 2.215c.389.84.611 1.746.667 2.72.079.96-.034 1.94-.338 2.94-.412 1.358-1.054 2.509-1.927 3.453-.854.95-1.846 1.615-2.975 1.993-1.107.366-2.258.368-3.455.004zm-.277-3.42a3.346 3.346 0 001.606.107 3.816 3.816 0 001.437-.587 4.287 4.287 0 001.165-1.139c.336-.463.588-.972.756-1.526.179-.59.246-1.164.202-1.724a3.845 3.845 0 00-.405-1.556 3.894 3.894 0 00-.983-1.294 3.756 3.756 0 00-1.429-.785 3.296 3.296 0 00-1.102-.13 4.085 4.085 0 00-1.138.18c-.386.117-.748.28-1.085.49a2.965 2.965 0 00-.794.784l-1.001 3.295a5.72 5.72 0 00.426 1.68c.245.543.571 1.012.977 1.409a3.51 3.51 0 001.368.796zm11.404 1.269l4.583-7.958 3.252 1.872-4.178 7.255c-.559.97-.805 1.81-.738 2.516.076.69.462 1.235 1.158 1.636.42.242.879.399 1.377.47a4.12 4.12 0 001.587-.12c.552-.134 1.098-.39 1.639-.769l4.541-7.885 3.252 1.872-5.227 9.075c-.195.34-.278.615-.249.825.045.22.196.426.453.617l-1.523 2.645a12.432 12.432 0 01-.881-.379 4.454 4.454 0 01-.611-.286c-.582-.336-.985-.74-1.208-1.213-.197-.48-.193-.973.012-1.48l.515-1.06a6.536 6.536 0 01-3.316.707c-1.141-.076-2.246-.42-3.313-1.036-1.311-.754-2.063-1.748-2.258-2.98-.186-1.249.192-2.69 1.133-4.324zm19.028 18.89a39.758 39.758 0 01-1.166-.398 8.34 8.34 0 01-1.365-.641 7.08 7.08 0 01-1.284-.866 4.863 4.863 0 01-1.219-1.507 3.105 3.105 0 01-.328-1.78c.092-.631.416-1.274.97-1.93l5.441-6.436-1.475-1.247 1.862-2.203 1.475 1.247 3.073-3.635 2.866 2.422-3.073 3.636 2.352 1.988-1.862 2.203-2.352-1.989-4.628 5.474c-.311.397-.439.766-.384 1.105.055.34.232.636.531.89.3.253.634.45 1.004.591.369.141.67.249.901.322l-1.339 2.755zm5.014 7.084c-.753-.904-1.283-1.847-1.591-2.83a7.484 7.484 0 01-.29-2.928c.115-.97.397-1.886.847-2.746a7.9 7.9 0 011.875-2.255c1.076-.896 2.255-1.478 3.539-1.745a7.229 7.229 0 013.85.291c1.298.45 2.455 1.284 3.47 2.503 1.027 1.234 1.633 2.515 1.817 3.844a6.886 6.886 0 01-.464 3.775 7.641 7.641 0 01-2.248 3.075 8.887 8.887 0 01-.556.427c-.184.129-.339.234-.466.315l-7.258-8.713c-.526.535-.89 1.118-1.094 1.75a3.847 3.847 0 00-.093 1.9 4.19 4.19 0 00.86 1.688 4.334 4.334 0 001.753 1.273c.717.278 1.382.318 1.996.122l1.373 3.048a6.022 6.022 0 01-2.513.09 7.368 7.368 0 01-2.542-.909c-.817-.485-1.572-1.144-2.265-1.975zm4.3-8.575l4.91 5.895c.526-.535.884-1.112 1.073-1.731a3.427 3.427 0 00.129-1.857 3.733 3.733 0 00-.835-1.746 3.683 3.683 0 00-1.548-1.116 3.695 3.695 0 00-1.85-.208c-.631.088-1.257.343-1.879.763zm15.929 11.334l-2.588 4.886-.337.436.576.008 5.49.515 1.868 3.478-8.849-1.03-4.036 8.048-1.868-3.478 2.523-4.947.3-.447-.526.028-5.504-.603-1.869-3.477 8.865 1.117 4.1-7.988 1.855 3.454zm.502 22.759l3.295-.787 1.969 8.253-3.295.786-1.969-8.252z" fill="#FF4C00"/></svg>