<svg clip-rule="evenodd" fill-rule="evenodd" stroke-linejoin="round" stroke-miterlimit="1.414" viewBox="0 0 560 400" xmlns="http://www.w3.org/2000/svg"><g fill="#da2131" fill-rule="nonzero"><path d="M399.403 249.64a50.609 50.609 0 009.95 1.007c13.54 0 25.828-5.325 34.915-13.979.16-.4.36-1.15.36-2.21 0-4.582-3.473-11.151-9.04-17.946-9.348 19.26-24.374 31.83-36.185 33.128zm19.364-49.008c-13.14-9.88-29.757-17.887-45.461-17.887-7.968 0-11.895 2.938-12.804 3.966.231-.92.504-1.803.789-2.678a50.572 50.572 0 00-2.584 15.966c0 17.56 8.95 33.017 22.523 42.1.126.037.452.056.691.056 10.39 0 26.885-18.469 36.846-41.523zm-257.499 1.399c.297 2.745 1.25 5.12 2.878 6.994 2.562 2.952 5.907 4.55 11.79 4.55 2.794 0 5.731-.715 8.567-1.764 1.46-.537 2.537-1.095 3.978-1.803.857-.426 1.914-.182 2.152.77l2.05 5.804c.297 1.16-.063 1.466-1.211 2.175-3.282 2.03-10.934 4.42-17.268 4.42-7.87 0-14.217-2.286-18.705-6.475-4.585-4.278-7.125-10.593-7.125-18.434 0-9.093 4.065-15.854 9.318-20.175 4.404-3.62 10.388-5.248 15.117-5.248 6.416 0 11.607 1.855 15.472 5.293 4.012 3.564 6.419 8.824 7.013 15.36.096 1.07.147 2.86.147 3.997v2.339c0 1.38-.525 2.197-1.706 2.197zm96.3-29.222c-14.888 0-24.769 11.074-24.769 25.169 0 14.902 10.017 25.149 24.77 25.149 14.47 0 24.716-10.706 24.716-25.16 0-14.453-10.246-25.158-24.717-25.158zM460 200c0-16.153-7.572-30.53-19.35-39.804 1.01 1.405 3.76 5.16 3.76 17.768 0 4.832-.39 9.52-1.11 14.028 7.402 9.51 11.643 19.678 11.643 27.07 0 1.533-.235 3.072-.42 3.839A50.4 50.4 0 00460 200zm-246.536 22.515h-7.417c-1.588 0-2.273-.793-2.402-2.494v-23.857c0-8.689.51-12.752 3.323-16.384 3.675-4.737 9.398-6.887 18.774-6.887 2.202 0 4.908.247 6.606.648 1.118.265 1.288 1.137 1.08 2.26l-1.113 5.469c-.258 1.021-.537 1.314-1.341 1.314-.126 0-.363-.022-.655-.059-.773-.094-2.986-.337-3.91-.337-4.66 0-6.88 1.163-8.536 2.938-1.925 2.066-1.992 5.12-1.992 10.595v24.3c0 1.6-.7 2.494-2.417 2.494zM113 173.542c1.11 0 1.69.452 2.238 1.728 2.523 5.885 5.974 11.491 8.6 14.607 1.666-1.723 5.535-6.503 9.833-14.607.715-1.391 1.361-1.728 2.33-1.728h7.98c.713 0 1.574.345 1.108 1.728-3.164 9.403-10.404 17.637-14.397 21.9 4.362 4.132 12.095 13.91 15.727 23.493.33.863.166 1.85-1.657 1.85h-9.53c-.99 0-1.756-.097-2.419-1.725-2.365-5.89-6.056-12.066-10.273-16.127-4.602 4.883-8.11 10.908-10.471 16.127-.577 1.278-1.154 1.725-2.413 1.725h-8.74c-.583 0-1.177-.686-.795-1.734 2.599-7.132 7.78-16.008 15.185-22.68-5.811-7.036-11.417-15.608-13.627-22.83-.333-1.085.249-1.727 1.055-1.727zm183.735 0c1.108 0 1.688.452 2.237 1.728 2.526 5.885 5.976 11.491 8.603 14.607 1.664-1.723 5.533-6.503 9.83-14.607.715-1.391 1.362-1.728 2.332-1.728h7.976c.715 0 1.577.345 1.11 1.728-3.161 9.403-10.402 17.637-14.393 21.9 4.356 4.132 12.089 13.91 15.726 23.493.327.863.165 1.85-1.658 1.85h-9.528c-.99 0-1.755-.097-2.423-1.725-2.363-5.89-6.053-12.066-10.272-16.127-4.602 4.883-8.11 10.908-10.473 16.127-.575 1.278-1.152 1.725-2.41 1.725h-8.74c-.58 0-1.178-.686-.795-1.734 2.6-7.132 7.78-16.008 15.186-22.68-5.814-7.036-11.42-15.608-13.63-22.83-.33-1.085.252-1.727 1.056-1.727zm-39.16 40.382c-8.67 0-12.01-7.503-12.01-15.954 0-8.45 3.34-15.947 12.01-15.947 8.668 0 11.934 7.497 11.934 15.947 0 8.451-3.266 15.954-11.934 15.954zm-73.912-20.62v-.296c0-6.537-3.961-10.941-10.445-10.941-4.722 0-8.531 2.571-10.529 6.601a15.387 15.387 0 00-1.435 4.636zm242.546-17.439c.658-4.085 1.019-8.167 1.019-12.174 0-9.601-2.825-11.702-3.715-12.317a50.628 50.628 0 00-14.16-2.021c-15.024 0-28.507 6.553-37.782 16.944 1.899-1.456 6.872-3.428 14.263-3.428 15.469 0 29.396 5.433 40.375 12.996z"/><path d="M453.552 222.519c0-8.574-5.257-19.684-14.2-29.773 1.346-6.508 2.082-13.247 2.082-20.027 0-8.397-2.662-13.57-3.629-14.62l-.035-.042c-.57-.383-1.122-.715-1.779-1.15.014.01.032.033.047.048.796.783 3.585 5.964 3.585 13.868 0 6.967-.701 13.685-1.953 20.069-.9-.954-1.843-1.89-2.807-2.817 1.225-6.045 1.91-12.239 1.91-18.435 0-7.124-2.362-13.18-3.429-14.25-.009-.008-.018-.022-.025-.029a47.04 47.04 0 00-1.797-.915l.014.02c.684.718 3.48 5.887 3.48 14.408 0 6.007-.633 11.932-1.777 17.666a85.22 85.22 0 00-3.057-2.636c1.224-5.922 1.912-11.98 1.912-18.038 0-6.866-2.03-11.454-3.027-12.531l-.006-.006a48.038 48.038 0 00-1.866-.746c.006.005.014.016.02.022 1.457 1.43 3.201 6.24 3.201 12.564 0 5.953-.66 11.798-1.81 17.458-12.124-9.535-27.834-16.476-45.257-16.476-9.052 0-12.703 2.069-14.32 3.217l-.041.027a71.99 71.99 0 00-1.586 2.2l.044-.036c1.385-1.261 6.181-3.577 14.578-3.577 17.717 0 33.733 7.337 46.013 17.253a97.86 97.86 0 01-1.109 4.316c-12.174-10.082-28.433-17.913-47.434-17.913-8.783 0-12.606 2.128-14.181 3.395 0-.008-.076.122-.187.318.054-.1.104-.2.158-.299-.064.11-.117.225-.176.334a31.28 31.28 0 00-.907 1.706 49.2 49.2 0 00-1.558 3.304 52.007 52.007 0 011.517-3.224l-.053.114c1.164-.858 5.168-3.64 13.674-3.64 19.382 0 36.029 8.093 48.404 18.44-.442 1.418-.912 2.82-1.408 4.205-12.776-10.714-29.879-19.216-48.606-19.216-8.805 0-12.709 3.053-13.753 3.892l-.01.008-.019.015c-.125.39-.277.751-.424 1.123-.087.227-.169.465-.258.685-.017.04-.032.085-.047.125a.018.018 0 01.007-.005c-.02.052-.034.105-.053.155.02-.055.042-.108.061-.162.995-.747 5.167-3.89 13.583-3.89 18.383 0 35.69 8.742 48.645 19.64-9.843 25.53-28.505 44.29-39.263 45.55h-.006l-.011.001c.135.078.259.143.386.216l.165.09c.02.01.038.021.058.03.037.021.076.044.114.064.294.159.592.313.92.481l.016-.003c.001 0 .002 0 .003-.002 13.67-2.942 30.182-21.582 39.178-45.095a97.329 97.329 0 013.034 2.79c-8.993 23.256-25.686 40.796-39.731 43.493l-.006.001-.031.008a50.67 50.67 0 001.745.742l.027-.007c.006 0 .009-.001.015-.003 15.563-3.051 31.075-20.512 39.592-42.661a87.967 87.967 0 012.842 2.998c-8.566 22.3-24.165 37.913-39.51 40.732l-.028.007-.065.014c.819.247 1.353.433 2.115.648.022-.002.04-.008.063-.012l.042-.008c15.924-2.331 30.672-18.433 38.947-39.614 7.486 8.72 11.945 17.518 11.945 23.6 0 .618-.134 1.561-.426 2.176-.395.415-.787.834-1.196 1.236.405-.399.798-.806 1.19-1.217-.006.012-.01.027-.017.039.227-.239.448-.482.668-.723.032-.035.065-.068.095-.102-.02.024-.043.045-.064.068.072-.078.143-.153.214-.232.052-.056.106-.112.157-.169.007-.008.013-.024.02-.032.34-.445.475-2.259.475-2.535 0-6.299-4.5-15.461-12.183-24.463.492-1.362.962-2.737 1.4-4.134 8.152 9.671 12.745 19.621 12.745 26.101 0 .796-.12 2.049-.543 2.765.538-.672.975-1.237 1.262-1.637.617-.848.481-2.622.481-3.148 0-6.508-4.727-16.776-13.167-26.691a102.73 102.73 0 001.164-4.504c8.673 9.987 13.764 20.825 13.764 29.054 0 .52-.112 1.777-.537 2.797l-.015.045-.002.006.029-.046c.187-.295.397-.618.586-.916.175-.275.334-.527.434-.702.029-.052.041-.118.069-.17.345-.59.682-1.183 1.004-1.787a49.075 49.075 0 01-.99 1.748c.433-.945.476-2.28.476-3.03zm-23.94-36.005a86.487 86.487 0 013.04 2.716 97.643 97.643 0 01-1.117 4.411 86.014 86.014 0 00-3.051-2.788 103.41 103.41 0 001.128-4.34zm-3.284 11.097c.496-1.388.971-2.786 1.411-4.202a89.005 89.005 0 013.04 2.798c-.439 1.418-.906 2.82-1.401 4.202a91.798 91.798 0 00-3.05-2.798zm7.494 7.38a86.708 86.708 0 00-2.836-3.003 99.657 99.657 0 001.395-4.2 84.239 84.239 0 012.82 3.01 95.506 95.506 0 01-1.379 4.192zm2.134-6.801a86.72 86.72 0 00-2.814-2.981c.41-1.466.79-2.944 1.136-4.434.972.957 1.9 1.928 2.806 2.909a103.412 103.412 0 01-1.128 4.506z"/></g></svg>